NotoSansKannada-Light.ufo
<glyph name="exclam.knda" format="2">
  <advance width="246"/>
  <unicode hex="0021"/>
  <outline>
    <contour>
      <point x="135" y="162" type="line"/>
      <point x="137" y="696" type="line"/>
      <point x="109" y="696" type="line"/>
      <point x="111" y="162" type="line"/>
    </contour>
    <contour>
      <point x="97" y="19" type="curve" smooth="yes"/>
      <point x="97" y="2"/>
      <point x="102" y="-12"/>
      <point x="122" y="-12" type="curve" smooth="yes"/>
      <point x="146" y="-12"/>
      <point x="149" y="2"/>
      <point x="149" y="19" type="curve" smooth="yes"/>
      <point x="149" y="35"/>
      <point x="146" y="50"/>
      <point x="122" y="50" type="curve" smooth="yes"/>
      <point x="102" y="50"/>
      <point x="97" y="35"/>
    </contour>
  </outline>
</glyph>
<glyph name="quotedbl.knda" format="2">
  <advance width="352"/>
  <unicode hex="0022"/>
  <outline>
    <contour>
      <point x="93" y="535" type="line"/>
      <point x="114" y="535" type="line"/>
      <point x="118" y="793" type="line"/>
      <point x="90" y="793" type="line"/>
    </contour>
    <contour>
      <point x="237" y="535" type="line"/>
      <point x="258" y="535" type="line"/>
      <point x="262" y="793" type="line"/>
      <point x="234" y="793" type="line"/>
    </contour>
  </outline>
</glyph>
<glyph name="numbersign.knda" format="2">
  <advance width="646"/>
  <unicode hex="0023"/>
  <outline>
    <contour>
      <point x="130" y="0" type="line"/>
      <point x="157" y="0" type="line"/>
      <point x="199" y="219" type="line"/>
      <point x="396" y="219" type="line"/>
      <point x="354" y="0" type="line"/>
      <point x="381" y="0" type="line"/>
      <point x="423" y="219" type="line"/>
      <point x="574" y="219" type="line"/>
      <point x="574" y="245" type="line"/>
      <point x="428" y="245" type="line"/>
      <point x="465" y="447" type="line"/>
      <point x="618" y="447" type="line"/>
      <point x="618" y="473" type="line"/>
      <point x="470" y="473" type="line"/>
      <point x="511" y="690" type="line"/>
      <point x="484" y="690" type="line"/>
      <point x="443" y="473" type="line"/>
      <point x="246" y="473" type="line"/>
      <point x="287" y="690" type="line"/>
      <point x="260" y="690" type="line"/>
      <point x="219" y="473" type="line"/>
      <point x="72" y="473" type="line"/>
      <point x="72" y="447" type="line"/>
      <point x="214" y="447" type="line"/>
      <point x="177" y="245" type="line"/>
      <point x="28" y="245" type="line"/>
      <point x="28" y="219" type="line"/>
      <point x="172" y="219" type="line"/>
    </contour>
    <contour>
      <point x="204" y="245" type="line"/>
      <point x="241" y="447" type="line"/>
      <point x="438" y="447" type="line"/>
      <point x="401" y="245" type="line"/>
    </contour>
  </outline>
</glyph>
<glyph name="percent.knda" format="2">
  <advance width="793"/>
  <unicode hex="0025"/>
  <outline>
    <contour>
      <point x="185" y="0" type="line"/>
      <point x="215" y="0" type="line"/>
      <point x="608" y="690" type="line"/>
      <point x="578" y="690" type="line"/>
    </contour>
    <contour>
      <point x="195" y="276" type="curve" smooth="yes"/>
      <point x="281" y="276"/>
      <point x="333" y="346"/>
      <point x="333" y="490" type="curve" smooth="yes"/>
      <point x="333" y="628"/>
      <point x="289" y="702"/>
      <point x="197" y="702" type="curve" smooth="yes"/>
      <point x="112" y="702"/>
      <point x="59" y="631"/>
      <point x="59" y="490" type="curve" smooth="yes"/>
      <point x="59" y="349"/>
      <point x="107" y="276"/>
    </contour>
    <contour>
      <point x="195" y="302" type="curve" smooth="yes"/>
      <point x="125" y="302"/>
      <point x="86" y="365"/>
      <point x="86" y="490" type="curve" smooth="yes"/>
      <point x="86" y="616"/>
      <point x="127" y="676"/>
      <point x="197" y="676" type="curve" smooth="yes"/>
      <point x="273" y="676"/>
      <point x="306" y="611"/>
      <point x="306" y="490" type="curve" smooth="yes"/>
      <point x="306" y="367"/>
      <point x="269" y="302"/>
    </contour>
    <contour>
      <point x="596" y="-12" type="curve" smooth="yes"/>
      <point x="682" y="-12"/>
      <point x="734" y="58"/>
      <point x="734" y="202" type="curve" smooth="yes"/>
      <point x="734" y="340"/>
      <point x="690" y="414"/>
      <point x="598" y="414" type="curve" smooth="yes"/>
      <point x="513" y="414"/>
      <point x="460" y="343"/>
      <point x="460" y="202" type="curve" smooth="yes"/>
      <point x="460" y="61"/>
      <point x="508" y="-12"/>
    </contour>
    <contour>
      <point x="596" y="14" type="curve" smooth="yes"/>
      <point x="526" y="14"/>
      <point x="487" y="77"/>
      <point x="487" y="202" type="curve" smooth="yes"/>
      <point x="487" y="328"/>
      <point x="528" y="388"/>
      <point x="598" y="388" type="curve" smooth="yes"/>
      <point x="674" y="388"/>
      <point x="707" y="323"/>
      <point x="707" y="202" type="curve" smooth="yes"/>
      <point x="707" y="79"/>
      <point x="670" y="14"/>
    </contour>
  </outline>
</glyph>
<glyph name="parenleft.knda" format="2">
  <advance width="337"/>
  <unicode hex="0028"/>
  <outline>
    <contour>
      <point x="55" y="212" type="curve" smooth="yes"/>
      <point x="55" y="-7"/>
      <point x="117" y="-208"/>
      <point x="238" y="-368" type="curve"/>
      <point x="267" y="-368" type="line"/>
      <point x="135" y="-188"/>
      <point x="82" y="3"/>
      <point x="82" y="213" type="curve" smooth="yes"/>
      <point x="82" y="422"/>
      <point x="135" y="613"/>
      <point x="267" y="793" type="curve"/>
      <point x="238" y="793" type="line"/>
      <point x="117" y="633"/>
      <point x="55" y="432"/>
    </contour>
  </outline>
</glyph>
<glyph name="parenright.knda" format="2">
  <advance width="337"/>
  <unicode hex="0029"/>
  <outline>
    <contour>
      <point x="282" y="213" type="curve" smooth="yes"/>
      <point x="282" y="432"/>
      <point x="220" y="633"/>
      <point x="99" y="793" type="curve"/>
      <point x="70" y="793" type="line"/>
      <point x="202" y="613"/>
      <point x="255" y="422"/>
      <point x="255" y="212" type="curve" smooth="yes"/>
      <point x="255" y="3"/>
      <point x="202" y="-188"/>
      <point x="70" y="-368" type="curve"/>
      <point x="99" y="-368" type="line"/>
      <point x="220" y="-208"/>
      <point x="282" y="-7"/>
    </contour>
  </outline>
</glyph>
<glyph name="asterisk.knda" format="2">
  <advance width="533"/>
  <unicode hex="002A"/>
  <outline>
    <contour>
      <point x="281" y="793" type="line"/>
      <point x="253" y="793" type="line"/>
      <point x="256" y="590" type="line"/>
      <point x="65" y="656" type="line"/>
      <point x="56" y="629" type="line"/>
      <point x="250" y="571" type="line"/>
      <point x="129" y="409" type="line"/>
      <point x="152" y="393" type="line"/>
      <point x="267" y="560" type="line"/>
      <point x="383" y="392" type="line"/>
      <point x="406" y="409" type="line"/>
      <point x="284" y="571" type="line"/>
      <point x="477" y="629" type="line"/>
      <point x="469" y="656" type="line"/>
      <point x="278" y="590" type="line"/>
    </contour>
  </outline>
</glyph>
<glyph name="plus.knda" format="2">
  <advance width="572"/>
  <unicode hex="002B"/>
  <outline>
    <contour>
      <point x="273" y="113" type="line"/>
      <point x="299" y="113" type="line"/>
      <point x="299" y="330" type="line"/>
      <point x="516" y="330" type="line"/>
      <point x="516" y="356" type="line"/>
      <point x="299" y="356" type="line"/>
      <point x="299" y="573" type="line"/>
      <point x="273" y="573" type="line"/>
      <point x="273" y="356" type="line"/>
      <point x="56" y="356" type="line"/>
      <point x="56" y="330" type="line"/>
      <point x="273" y="330" type="line"/>
    </contour>
  </outline>
</glyph>
<glyph name="comma.knda" format="2">
  <advance width="222"/>
  <unicode hex="002C"/>
  <outline>
    <contour>
      <point x="139" y="119" type="line"/>
      <point x="114" y="119" type="line"/>
      <point x="107" y="47"/>
      <point x="84" y="-57"/>
      <point x="57" y="-126" type="curve"/>
      <point x="79" y="-126" type="line"/>
      <point x="109" y="-57"/>
      <point x="134" y="28"/>
      <point x="145" y="110" type="curve"/>
    </contour>
  </outline>
</glyph>
<glyph name="slash.knda" format="2">
  <advance width="470"/>
  <unicode hex="002F"/>
  <outline>
    <contour>
      <point x="391" y="793" type="line"/>
      <point x="364" y="793" type="line"/>
      <point x="79" y="-368" type="line"/>
      <point x="106" y="-368" type="line"/>
    </contour>
  </outline>
</glyph>
<glyph name="zero.knda" format="2">
  <advance width="572"/>
  <unicode hex="0030"/>
  <outline>
    <contour>
      <point x="508" y="347" type="curve" smooth="yes"/>
      <point x="508" y="558"/>
      <point x="460" y="702"/>
      <point x="287" y="702" type="curve" smooth="yes"/>
      <point x="119" y="702"/>
      <point x="63" y="552"/>
      <point x="63" y="347" type="curve" smooth="yes"/>
      <point x="63" y="101"/>
      <point x="142" y="-12"/>
      <point x="286" y="-12" type="curve" smooth="yes"/>
      <point x="437" y="-12"/>
      <point x="508" y="107"/>
    </contour>
    <contour>
      <point x="90" y="347" type="curve" smooth="yes"/>
      <point x="90" y="538"/>
      <point x="137" y="676"/>
      <point x="287" y="676" type="curve" smooth="yes"/>
      <point x="441" y="676"/>
      <point x="481" y="545"/>
      <point x="481" y="347" type="curve" smooth="yes"/>
      <point x="481" y="122"/>
      <point x="423" y="14"/>
      <point x="286" y="14" type="curve" smooth="yes"/>
      <point x="156" y="14"/>
      <point x="90" y="120"/>
    </contour>
  </outline>
</glyph>
<glyph name="one.knda" format="2">
  <advance width="572"/>
  <unicode hex="0031"/>
  <outline>
    <contour>
      <point x="324" y="0" type="line"/>
      <point x="324" y="697" type="line"/>
      <point x="301" y="697" type="line"/>
      <point x="106" y="555" type="line"/>
      <point x="122" y="534" type="line"/>
      <point x="245" y="625" type="line" smooth="yes"/>
      <point x="270" y="644"/>
      <point x="283" y="654"/>
      <point x="299" y="668" type="curve"/>
      <point x="298" y="641"/>
      <point x="298" y="603"/>
      <point x="298" y="546" type="curve" smooth="yes"/>
      <point x="298" y="0" type="line"/>
    </contour>
  </outline>
</glyph>
<glyph name="two.knda" format="2">
  <advance width="572"/>
  <unicode hex="0032"/>
  <outline>
    <contour>
      <point x="491" y="0" type="line"/>
      <point x="491" y="26" type="line"/>
      <point x="98" y="26" type="line"/>
      <point x="98" y="27" type="line"/>
      <point x="305" y="239" type="line" smooth="yes"/>
      <point x="402" y="338"/>
      <point x="459" y="407"/>
      <point x="459" y="523" type="curve" smooth="yes"/>
      <point x="459" y="632"/>
      <point x="385" y="702"/>
      <point x="270" y="702" type="curve" smooth="yes"/>
      <point x="208" y="702"/>
      <point x="141" y="683"/>
      <point x="80" y="633" type="curve"/>
      <point x="95" y="612" type="line"/>
      <point x="148" y="655"/>
      <point x="211" y="676"/>
      <point x="268" y="676" type="curve" smooth="yes"/>
      <point x="370" y="676"/>
      <point x="432" y="618"/>
      <point x="432" y="521" type="curve" smooth="yes"/>
      <point x="432" y="415"/>
      <point x="380" y="351"/>
      <point x="283" y="252" type="curve" smooth="yes"/>
      <point x="59" y="23" type="line"/>
      <point x="59" y="0" type="line"/>
    </contour>
  </outline>
</glyph>
<glyph name="three.knda" format="2">
  <advance width="572"/>
  <unicode hex="0033"/>
  <outline>
    <contour>
      <point x="469" y="534" type="curve" smooth="yes"/>
      <point x="469" y="645"/>
      <point x="387" y="702"/>
      <point x="263" y="702" type="curve" smooth="yes"/>
      <point x="178" y="702"/>
      <point x="110" y="671"/>
      <point x="54" y="628" type="curve"/>
      <point x="68" y="606" type="line"/>
      <point x="122" y="648"/>
      <point x="188" y="676"/>
      <point x="262" y="676" type="curve" smooth="yes"/>
      <point x="369" y="676"/>
      <point x="442" y="631"/>
      <point x="442" y="533" type="curve" smooth="yes"/>
      <point x="442" y="422"/>
      <point x="344" y="374"/>
      <point x="238" y="374" type="curve" smooth="yes"/>
      <point x="155" y="374" type="line"/>
      <point x="155" y="348" type="line"/>
      <point x="238" y="348" type="line" smooth="yes"/>
      <point x="371" y="348"/>
      <point x="464" y="304"/>
      <point x="464" y="186" type="curve" smooth="yes"/>
      <point x="464" y="81"/>
      <point x="390" y="14"/>
      <point x="246" y="14" type="curve" smooth="yes"/>
      <point x="172" y="14"/>
      <point x="96" y="34"/>
      <point x="46" y="59" type="curve"/>
      <point x="46" y="30" type="line"/>
      <point x="97" y="6"/>
      <point x="164" y="-12"/>
      <point x="246" y="-12" type="curve" smooth="yes"/>
      <point x="406" y="-12"/>
      <point x="491" y="68"/>
      <point x="491" y="187" type="curve" smooth="yes"/>
      <point x="491" y="291"/>
      <point x="428" y="347"/>
      <point x="317" y="362" type="curve"/>
      <point x="317" y="364" type="line"/>
      <point x="404" y="379"/>
      <point x="469" y="443"/>
    </contour>
  </outline>
</glyph>
<glyph name="four.knda" format="2">
  <advance width="572"/>
  <unicode hex="0034"/>
  <outline>
    <contour>
      <point x="550" y="187" type="line"/>
      <point x="550" y="213" type="line"/>
      <point x="420" y="213" type="line"/>
      <point x="420" y="697" type="line"/>
      <point x="392" y="697" type="line"/>
      <point x="23" y="211" type="line"/>
      <point x="23" y="187" type="line"/>
      <point x="394" y="187" type="line"/>
      <point x="394" y="0" type="line"/>
      <point x="420" y="0" type="line"/>
      <point x="420" y="187" type="line"/>
    </contour>
    <contour>
      <point x="394" y="213" type="line"/>
      <point x="56" y="213" type="line"/>
      <point x="327" y="571" type="line" smooth="yes"/>
      <point x="355" y="608"/>
      <point x="372" y="631"/>
      <point x="393" y="664" type="curve"/>
      <point x="395" y="664" type="line"/>
      <point x="394" y="613"/>
      <point x="394" y="574"/>
      <point x="394" y="503" type="curve" smooth="yes"/>
    </contour>
  </outline>
</glyph>
<glyph name="five.knda" format="2">
  <advance width="572"/>
  <unicode hex="0035"/>
  <outline>
    <contour>
      <point x="250" y="-12" type="curve" smooth="yes"/>
      <point x="404" y="-12"/>
      <point x="503" y="72"/>
      <point x="503" y="210" type="curve" smooth="yes"/>
      <point x="503" y="344"/>
      <point x="418" y="415"/>
      <point x="272" y="415" type="curve" smooth="yes"/>
      <point x="209" y="415"/>
      <point x="161" y="406"/>
      <point x="124" y="395" type="curve"/>
      <point x="149" y="664" type="line"/>
      <point x="460" y="664" type="line"/>
      <point x="460" y="690" type="line"/>
      <point x="125" y="690" type="line"/>
      <point x="96" y="381" type="line"/>
      <point x="115" y="366" type="line"/>
      <point x="161" y="380"/>
      <point x="212" y="389"/>
      <point x="271" y="389" type="curve" smooth="yes"/>
      <point x="406" y="389"/>
      <point x="476" y="321"/>
      <point x="476" y="210" type="curve" smooth="yes"/>
      <point x="476" y="87"/>
      <point x="387" y="14"/>
      <point x="251" y="14" type="curve" smooth="yes"/>
      <point x="178" y="14"/>
      <point x="117" y="34"/>
      <point x="72" y="61" type="curve"/>
      <point x="72" y="30" type="line"/>
      <point x="114" y="6"/>
      <point x="172" y="-12"/>
    </contour>
  </outline>
</glyph>
<glyph name="six.knda" format="2">
  <advance width="572"/>
  <unicode hex="0036"/>
  <outline>
    <contour>
      <point x="71" y="289" type="curve" smooth="yes"/>
      <point x="71" y="139"/>
      <point x="130" y="-12"/>
      <point x="302" y="-12" type="curve" smooth="yes"/>
      <point x="438" y="-12"/>
      <point x="516" y="81"/>
      <point x="516" y="217" type="curve" smooth="yes"/>
      <point x="516" y="343"/>
      <point x="441" y="426"/>
      <point x="309" y="426" type="curve" smooth="yes"/>
      <point x="194" y="426"/>
      <point x="125" y="365"/>
      <point x="100" y="310" type="curve"/>
      <point x="98" y="310" type="line"/>
      <point x="102" y="583"/>
      <point x="221" y="676"/>
      <point x="370" y="676" type="curve" smooth="yes"/>
      <point x="410" y="676"/>
      <point x="444" y="670"/>
      <point x="468" y="661" type="curve"/>
      <point x="468" y="689" type="line"/>
      <point x="441" y="697"/>
      <point x="410" y="702"/>
      <point x="370" y="702" type="curve" smooth="yes"/>
      <point x="199" y="702"/>
      <point x="71" y="587"/>
    </contour>
    <contour>
      <point x="302" y="14" type="curve" smooth="yes"/>
      <point x="140" y="14"/>
      <point x="102" y="169"/>
      <point x="102" y="244" type="curve" smooth="yes"/>
      <point x="102" y="311"/>
      <point x="179" y="400"/>
      <point x="307" y="400" type="curve" smooth="yes"/>
      <point x="426" y="400"/>
      <point x="489" y="329"/>
      <point x="489" y="216" type="curve" smooth="yes"/>
      <point x="489" y="91"/>
      <point x="423" y="14"/>
    </contour>
  </outline>
</glyph>
<glyph name="seven.knda" format="2">
  <advance width="572"/>
  <unicode hex="0037"/>
  <outline>
    <contour>
      <point x="180" y="0" type="line"/>
      <point x="209" y="0" type="line"/>
      <point x="507" y="672" type="line"/>
      <point x="507" y="690" type="line"/>
      <point x="55" y="690" type="line"/>
      <point x="55" y="664" type="line"/>
      <point x="475" y="664" type="line"/>
    </contour>
  </outline>
</glyph>
<glyph name="eight.knda" format="2">
  <advance width="572"/>
  <unicode hex="0038"/>
  <outline>
    <contour>
      <point x="285" y="702" type="curve" smooth="yes"/>
      <point x="170" y="702"/>
      <point x="89" y="640"/>
      <point x="89" y="540" type="curve" smooth="yes"/>
      <point x="89" y="445"/>
      <point x="167" y="400"/>
      <point x="253" y="368" type="curve"/>
      <point x="140" y="328"/>
      <point x="66" y="274"/>
      <point x="66" y="167" type="curve" smooth="yes"/>
      <point x="66" y="58"/>
      <point x="152" y="-12"/>
      <point x="281" y="-12" type="curve" smooth="yes"/>
      <point x="406" y="-12"/>
      <point x="505" y="55"/>
      <point x="505" y="174" type="curve" smooth="yes"/>
      <point x="505" y="274"/>
      <point x="432" y="329"/>
      <point x="316" y="369" type="curve"/>
      <point x="417" y="409"/>
      <point x="481" y="458"/>
      <point x="481" y="543" type="curve" smooth="yes"/>
      <point x="481" y="646"/>
      <point x="408" y="702"/>
    </contour>
    <contour>
      <point x="93" y="168" type="curve" smooth="yes"/>
      <point x="93" y="272"/>
      <point x="170" y="316"/>
      <point x="283" y="354" type="curve"/>
      <point x="311" y="344" type="line" smooth="yes"/>
      <point x="420" y="307"/>
      <point x="478" y="258"/>
      <point x="478" y="173" type="curve" smooth="yes"/>
      <point x="478" y="68"/>
      <point x="395" y="14"/>
      <point x="281" y="14" type="curve" smooth="yes"/>
      <point x="169" y="14"/>
      <point x="93" y="72"/>
    </contour>
    <contour>
      <point x="285" y="676" type="curve" smooth="yes"/>
      <point x="391" y="676"/>
      <point x="454" y="633"/>
      <point x="454" y="542" type="curve" smooth="yes"/>
      <point x="454" y="464"/>
      <point x="383" y="418"/>
      <point x="288" y="382" type="curve"/>
      <point x="184" y="417"/>
      <point x="116" y="459"/>
      <point x="116" y="541" type="curve" smooth="yes"/>
      <point x="116" y="629"/>
      <point x="187" y="676"/>
    </contour>
  </outline>
</glyph>
<glyph name="nine.knda" format="2">
  <advance width="572"/>
  <unicode hex="0039"/>
  <outline>
    <contour>
      <point x="501" y="403" type="curve" smooth="yes"/>
      <point x="501" y="552"/>
      <point x="442" y="702"/>
      <point x="270" y="702" type="curve" smooth="yes"/>
      <point x="134" y="702"/>
      <point x="56" y="609"/>
      <point x="56" y="474" type="curve" smooth="yes"/>
      <point x="56" y="348"/>
      <point x="131" y="266"/>
      <point x="263" y="266" type="curve" smooth="yes"/>
      <point x="378" y="266"/>
      <point x="447" y="327"/>
      <point x="472" y="382" type="curve"/>
      <point x="474" y="382" type="line"/>
      <point x="470" y="108"/>
      <point x="351" y="14"/>
      <point x="202" y="14" type="curve" smooth="yes"/>
      <point x="160" y="14"/>
      <point x="118" y="21"/>
      <point x="94" y="30" type="curve"/>
      <point x="94" y="1" type="line"/>
      <point x="121" y="-7"/>
      <point x="160" y="-12"/>
      <point x="202" y="-12" type="curve" smooth="yes"/>
      <point x="373" y="-12"/>
      <point x="501" y="104"/>
    </contour>
    <contour>
      <point x="270" y="676" type="curve" smooth="yes"/>
      <point x="432" y="676"/>
      <point x="470" y="519"/>
      <point x="470" y="448" type="curve" smooth="yes"/>
      <point x="470" y="377"/>
      <point x="394" y="292"/>
      <point x="265" y="292" type="curve" smooth="yes"/>
      <point x="145" y="292"/>
      <point x="83" y="361"/>
      <point x="83" y="475" type="curve" smooth="yes"/>
      <point x="83" y="600"/>
      <point x="149" y="676"/>
    </contour>
  </outline>
</glyph>
<glyph name="semicolon.knda" format="2">
  <advance width="222"/>
  <unicode hex="003B"/>
  <outline>
    <contour>
      <point x="139" y="119" type="line"/>
      <point x="114" y="119" type="line"/>
      <point x="107" y="47"/>
      <point x="84" y="-57"/>
      <point x="57" y="-126" type="curve"/>
      <point x="79" y="-126" type="line"/>
      <point x="109" y="-57"/>
      <point x="134" y="28"/>
      <point x="145" y="110" type="curve"/>
    </contour>
    <contour>
      <point x="87" y="411" type="curve" smooth="yes"/>
      <point x="87" y="394"/>
      <point x="92" y="380"/>
      <point x="112" y="380" type="curve" smooth="yes"/>
      <point x="136" y="380"/>
      <point x="139" y="394"/>
      <point x="139" y="411" type="curve" smooth="yes"/>
      <point x="139" y="427"/>
      <point x="136" y="442"/>
      <point x="112" y="442" type="curve" smooth="yes"/>
      <point x="92" y="442"/>
      <point x="87" y="427"/>
    </contour>
  </outline>
</glyph>
<glyph name="less.knda" format="2">
  <advance width="572"/>
  <unicode hex="003C"/>
  <outline>
    <contour>
      <point x="515" y="117" type="line"/>
      <point x="515" y="145" type="line"/>
      <point x="90" y="343" type="line"/>
      <point x="515" y="541" type="line"/>
      <point x="515" y="569" type="line"/>
      <point x="57" y="354" type="line"/>
      <point x="57" y="332" type="line"/>
    </contour>
  </outline>
</glyph>
<glyph name="equal.knda" format="2">
  <advance width="572"/>
  <unicode hex="003D"/>
  <outline>
    <contour>
      <point x="56" y="432" type="line"/>
      <point x="516" y="432" type="line"/>
      <point x="516" y="458" type="line"/>
      <point x="56" y="458" type="line"/>
    </contour>
    <contour>
      <point x="56" y="228" type="line"/>
      <point x="516" y="228" type="line"/>
      <point x="516" y="254" type="line"/>
      <point x="56" y="254" type="line"/>
    </contour>
  </outline>
</glyph>
<glyph name="greater.knda" format="2">
  <advance width="572"/>
  <unicode hex="003E"/>
  <outline>
    <contour>
      <point x="57" y="117" type="line"/>
      <point x="515" y="332" type="line"/>
      <point x="515" y="354" type="line"/>
      <point x="57" y="569" type="line"/>
      <point x="57" y="541" type="line"/>
      <point x="482" y="343" type="line"/>
      <point x="57" y="145" type="line"/>
    </contour>
  </outline>
</glyph>
<glyph name="question.knda" format="2">
  <advance width="437"/>
  <unicode hex="003F"/>
  <outline>
    <contour>
      <point x="200" y="702" type="curve" smooth="yes"/>
      <point x="146" y="702"/>
      <point x="98" y="689"/>
      <point x="53" y="664" type="curve"/>
      <point x="64" y="640" type="line"/>
      <point x="105" y="664"/>
      <point x="150" y="676"/>
      <point x="199" y="676" type="curve" smooth="yes"/>
      <point x="293" y="676"/>
      <point x="362" y="631"/>
      <point x="362" y="531" type="curve" smooth="yes"/>
      <point x="362" y="441"/>
      <point x="316" y="400"/>
      <point x="244" y="349" type="curve" smooth="yes"/>
      <point x="175" y="300"/>
      <point x="158" y="259"/>
      <point x="158" y="174" type="curve" smooth="yes"/>
      <point x="158" y="168" type="line"/>
      <point x="184" y="168" type="line"/>
      <point x="184" y="174" type="line" smooth="yes"/>
      <point x="184" y="254"/>
      <point x="201" y="289"/>
      <point x="257" y="328" type="curve" smooth="yes"/>
      <point x="336" y="383"/>
      <point x="389" y="432"/>
      <point x="389" y="532" type="curve" smooth="yes"/>
      <point x="389" y="645"/>
      <point x="312" y="702"/>
    </contour>
    <contour>
      <point x="171" y="-8" type="curve" smooth="yes"/>
      <point x="195" y="-8"/>
      <point x="198" y="6"/>
      <point x="198" y="23" type="curve" smooth="yes"/>
      <point x="198" y="39"/>
      <point x="195" y="54"/>
      <point x="171" y="54" type="curve" smooth="yes"/>
      <point x="151" y="54"/>
      <point x="146" y="39"/>
      <point x="146" y="23" type="curve" smooth="yes"/>
      <point x="146" y="6"/>
      <point x="151" y="-8"/>
    </contour>
  </outline>
</glyph>
<glyph name="backslash.knda" format="2">
  <advance width="470"/>
  <unicode hex="005C"/>
  <outline>
    <contour>
      <point x="106" y="793" type="line"/>
      <point x="79" y="793" type="line"/>
      <point x="364" y="-368" type="line"/>
      <point x="391" y="-368" type="line"/>
    </contour>
  </outline>
</glyph>
<glyph name="bracketright.knda" format="2">
  <advance width="362"/>
  <unicode hex="005D"/>
  <outline>
    <contour>
      <point x="85" y="-343" type="line"/>
      <point x="85" y="-369" type="line"/>
      <point x="276" y="-369" type="line"/>
      <point x="276" y="792" type="line"/>
      <point x="85" y="792" type="line"/>
      <point x="85" y="766" type="line"/>
      <point x="250" y="766" type="line"/>
      <point x="250" y="-343" type="line"/>
    </contour>
  </outline>
</glyph>
<glyph name="underscore.knda" format="2">
  <advance width="444"/>
  <unicode hex="005F"/>
  <outline>
    <contour>
      <point x="-2" y="-115" type="line"/>
      <point x="446" y="-115" type="line"/>
      <point x="446" y="-90" type="line"/>
      <point x="-2" y="-90" type="line"/>
    </contour>
  </outline>
</glyph>
<glyph name="braceleft.knda" format="2">
  <advance width="362"/>
  <unicode hex="007B"/>
  <outline>
    <contour>
      <point x="315" y="-368" type="curve"/>
      <point x="315" y="-342" type="line"/>
      <point x="209" y="-342"/>
      <point x="177" y="-316"/>
      <point x="177" y="-229" type="curve" smooth="yes"/>
      <point x="177" y="89" type="line" smooth="yes"/>
      <point x="177" y="164"/>
      <point x="156" y="198"/>
      <point x="99" y="211" type="curve"/>
      <point x="99" y="213" type="line"/>
      <point x="157" y="224"/>
      <point x="177" y="270"/>
      <point x="177" y="338" type="curve" smooth="yes"/>
      <point x="177" y="651" type="line" smooth="yes"/>
      <point x="177" y="732"/>
      <point x="219" y="767"/>
      <point x="315" y="767" type="curve"/>
      <point x="315" y="793" type="line"/>
      <point x="207" y="793"/>
      <point x="151" y="744"/>
      <point x="151" y="657" type="curve" smooth="yes"/>
      <point x="151" y="342" type="line" smooth="yes"/>
      <point x="151" y="256"/>
      <point x="121" y="225"/>
      <point x="40" y="225" type="curve"/>
      <point x="40" y="199" type="line"/>
      <point x="121" y="199"/>
      <point x="151" y="170"/>
      <point x="151" y="85" type="curve" smooth="yes"/>
      <point x="151" y="-235" type="line" smooth="yes"/>
      <point x="151" y="-333"/>
      <point x="198" y="-368"/>
    </contour>
  </outline>
</glyph>
<glyph name="bar.knda" format="2">
  <advance width="512"/>
  <unicode hex="007C"/>
  <outline>
    <contour>
      <point x="243" y="792" type="line"/>
      <point x="243" y="-369" type="line"/>
      <point x="269" y="-369" type="line"/>
      <point x="269" y="792" type="line"/>
    </contour>
  </outline>
</glyph>
<glyph name="braceright.knda" format="2">
  <advance width="362"/>
  <unicode hex="007D"/>
  <outline>
    <contour>
      <point x="47" y="793" type="curve"/>
      <point x="47" y="767" type="line"/>
      <point x="153" y="767"/>
      <point x="185" y="741"/>
      <point x="185" y="654" type="curve" smooth="yes"/>
      <point x="185" y="336" type="line" smooth="yes"/>
      <point x="185" y="261"/>
      <point x="206" y="227"/>
      <point x="263" y="214" type="curve"/>
      <point x="263" y="212" type="line"/>
      <point x="205" y="201"/>
      <point x="185" y="155"/>
      <point x="185" y="87" type="curve" smooth="yes"/>
      <point x="185" y="-226" type="line" smooth="yes"/>
      <point x="185" y="-307"/>
      <point x="143" y="-342"/>
      <point x="47" y="-342" type="curve"/>
      <point x="47" y="-368" type="line"/>
      <point x="155" y="-368"/>
      <point x="211" y="-319"/>
      <point x="211" y="-232" type="curve" smooth="yes"/>
      <point x="211" y="83" type="line" smooth="yes"/>
      <point x="211" y="169"/>
      <point x="241" y="200"/>
      <point x="322" y="200" type="curve"/>
      <point x="322" y="226" type="line"/>
      <point x="241" y="226"/>
      <point x="211" y="255"/>
      <point x="211" y="340" type="curve" smooth="yes"/>
      <point x="211" y="660" type="line" smooth="yes"/>
      <point x="211" y="758"/>
      <point x="164" y="793"/>
    </contour>
  </outline>
</glyph>
<glyph name="asciitilde.knda" format="2">
  <advance width="572"/>
  <unicode hex="007E"/>
  <outline>
    <contour>
      <point x="280" y="331" type="curve" smooth="yes"/>
      <point x="320" y="311"/>
      <point x="357" y="298"/>
      <point x="401" y="298" type="curve" smooth="yes"/>
      <point x="445" y="298"/>
      <point x="486" y="317"/>
      <point x="516" y="346" type="curve"/>
      <point x="516" y="378" type="line"/>
      <point x="478" y="339"/>
      <point x="440" y="324"/>
      <point x="401" y="324" type="curve" smooth="yes"/>
      <point x="361" y="324"/>
      <point x="328" y="337"/>
      <point x="292" y="355" type="curve" smooth="yes"/>
      <point x="252" y="375"/>
      <point x="215" y="388"/>
      <point x="171" y="388" type="curve" smooth="yes"/>
      <point x="127" y="388"/>
      <point x="86" y="369"/>
      <point x="56" y="340" type="curve"/>
      <point x="56" y="308" type="line"/>
      <point x="94" y="347"/>
      <point x="132" y="362"/>
      <point x="171" y="362" type="curve" smooth="yes"/>
      <point x="211" y="362"/>
      <point x="244" y="349"/>
    </contour>
  </outline>
</glyph>
<glyph name="multiply.knda" format="2">
  <advance width="572"/>
  <unicode hex="00D7"/>
  <outline>
    <contour>
      <point x="482" y="557" type="line"/>
      <point x="286" y="361" type="line"/>
      <point x="90" y="557" type="line"/>
      <point x="72" y="539" type="line"/>
      <point x="268" y="343" type="line"/>
      <point x="72" y="147" type="line"/>
      <point x="90" y="129" type="line"/>
      <point x="286" y="325" type="line"/>
      <point x="482" y="129" type="line"/>
      <point x="500" y="147" type="line"/>
      <point x="304" y="343" type="line"/>
      <point x="500" y="539" type="line"/>
    </contour>
  </outline>
</glyph>
<glyph name="divide.knda" format="2">
  <advance width="572"/>
  <unicode hex="00F7"/>
  <outline>
    <contour>
      <point x="56" y="330" type="line"/>
      <point x="516" y="330" type="line"/>
      <point x="516" y="356" type="line"/>
      <point x="56" y="356" type="line"/>
    </contour>
    <contour>
      <point x="285" y="134" type="curve" smooth="yes"/>
      <point x="309" y="134"/>
      <point x="312" y="148"/>
      <point x="312" y="165" type="curve" smooth="yes"/>
      <point x="312" y="181"/>
      <point x="309" y="196"/>
      <point x="285" y="196" type="curve" smooth="yes"/>
      <point x="265" y="196"/>
      <point x="260" y="181"/>
      <point x="260" y="165" type="curve" smooth="yes"/>
      <point x="260" y="148"/>
      <point x="265" y="134"/>
    </contour>
    <contour>
      <point x="285" y="490" type="curve" smooth="yes"/>
      <point x="309" y="490"/>
      <point x="312" y="504"/>
      <point x="312" y="521" type="curve" smooth="yes"/>
      <point x="312" y="537"/>
      <point x="309" y="552"/>
      <point x="285" y="552" type="curve" smooth="yes"/>
      <point x="265" y="552"/>
      <point x="260" y="537"/>
      <point x="260" y="521" type="curve" smooth="yes"/>
      <point x="260" y="504"/>
      <point x="265" y="490"/>
    </contour>
  </outline>
</glyph>
<glyph name="uni0952" format="2">
  <unicode hex="0952"/>
  <outline>
    <contour>
      <point x="-465" y="-160" type="line"/>
      <point x="-90" y="-160" type="line"/>
      <point x="-90" y="-134" type="line"/>
      <point x="-465" y="-134" type="line"/>
    </contour>
  </outline>
</glyph>
<glyph name="dandaknda" format="2">
  <advance width="344"/>
  <unicode hex="0964"/>
  <outline>
    <contour>
      <point x="204" y="-139" type="line"/>
      <point x="230" y="-139" type="line"/>
      <point x="230" y="702" type="line"/>
      <point x="204" y="702" type="line"/>
    </contour>
  </outline>
</glyph>
<glyph name="dbldandaknda" format="2">
  <advance width="546"/>
  <unicode hex="0965"/>
  <outline>
    <contour>
      <point x="406" y="-139" type="line"/>
      <point x="432" y="-139" type="line"/>
      <point x="432" y="702" type="line"/>
      <point x="406" y="702" type="line"/>
    </contour>
    <contour>
      <point x="204" y="-139" type="line"/>
      <point x="230" y="-139" type="line"/>
      <point x="230" y="702" type="line"/>
      <point x="204" y="702" type="line"/>
    </contour>
  </outline>
</glyph>
<glyph name="uni0C80" format="2">
  <advance width="484"/>
  <unicode hex="0C80"/>
  <outline>
    <contour>
      <point x="242" y="62" type="curve" smooth="yes"/>
      <point x="370" y="62"/>
      <point x="443" y="124"/>
      <point x="443" y="248" type="curve" smooth="yes"/>
      <point x="443" y="278"/>
      <point x="438" y="313"/>
      <point x="433" y="332" type="curve"/>
      <point x="408" y="327" type="line"/>
      <point x="413" y="307"/>
      <point x="417" y="279"/>
      <point x="417" y="248" type="curve" smooth="yes"/>
      <point x="417" y="125"/>
      <point x="339" y="88"/>
      <point x="242" y="88" type="curve" smooth="yes"/>
      <point x="153" y="88"/>
      <point x="67" y="127"/>
      <point x="67" y="247" type="curve" smooth="yes"/>
      <point x="67" y="281"/>
      <point x="72" y="307"/>
      <point x="77" y="327" type="curve"/>
      <point x="52" y="332" type="line"/>
      <point x="45" y="307"/>
      <point x="41" y="279"/>
      <point x="41" y="247" type="curve" smooth="yes"/>
      <point x="41" y="122"/>
      <point x="127" y="62"/>
    </contour>
    <contour>
      <point x="242" y="213" type="curve" smooth="yes"/>
      <point x="261" y="213"/>
      <point x="274" y="225"/>
      <point x="274" y="253" type="curve" smooth="yes"/>
      <point x="274" y="278"/>
      <point x="263" y="293"/>
      <point x="242" y="293" type="curve" smooth="yes"/>
      <point x="222" y="293"/>
      <point x="209" y="279"/>
      <point x="209" y="253" type="curve" smooth="yes"/>
      <point x="209" y="226"/>
      <point x="224" y="213"/>
    </contour>
  </outline>
</glyph>
<glyph name="candrabinduknda" format="2">
  <unicode hex="0C81"/>
  <outline>
    <contour>
      <point x="-278" y="618" type="curve" smooth="yes"/>
      <point x="-180" y="618"/>
      <point x="-129" y="675"/>
      <point x="-129" y="751" type="curve" smooth="yes"/>
      <point x="-129" y="770"/>
      <point x="-131" y="786"/>
      <point x="-135" y="803" type="curve"/>
      <point x="-161" y="798" type="line"/>
      <point x="-157" y="784"/>
      <point x="-155" y="767"/>
      <point x="-155" y="753" type="curve" smooth="yes"/>
      <point x="-155" y="677"/>
      <point x="-207" y="643"/>
      <point x="-278" y="643" type="curve" smooth="yes"/>
      <point x="-349" y="643"/>
      <point x="-401" y="673"/>
      <point x="-401" y="753" type="curve" smooth="yes"/>
      <point x="-401" y="766"/>
      <point x="-399" y="784"/>
      <point x="-395" y="798" type="curve"/>
      <point x="-421" y="803" type="line"/>
      <point x="-425" y="786"/>
      <point x="-427" y="772"/>
      <point x="-427" y="753" type="curve" smooth="yes"/>
      <point x="-427" y="673"/>
      <point x="-380" y="618"/>
    </contour>
    <contour>
      <point x="-278" y="724" type="curve" smooth="yes"/>
      <point x="-259" y="724"/>
      <point x="-246" y="735"/>
      <point x="-246" y="759" type="curve" smooth="yes"/>
      <point x="-246" y="780"/>
      <point x="-257" y="794"/>
      <point x="-278" y="794" type="curve" smooth="yes"/>
      <point x="-298" y="794"/>
      <point x="-311" y="781"/>
      <point x="-311" y="759" type="curve" smooth="yes"/>
      <point x="-311" y="736"/>
      <point x="-296" y="724"/>
    </contour>
  </outline>
</glyph>
<glyph name="anusvaraknda" format="2">
  <advance width="505"/>
  <unicode hex="0C82"/>
  <outline>
    <contour>
      <point x="250" y="-12" type="curve" smooth="yes"/>
      <point x="386" y="-12"/>
      <point x="462" y="86"/>
      <point x="462" y="234" type="curve" smooth="yes"/>
      <point x="462" y="374"/>
      <point x="392" y="480"/>
      <point x="255" y="480" type="curve" smooth="yes"/>
      <point x="120" y="480"/>
      <point x="43" y="382"/>
      <point x="43" y="234" type="curve" smooth="yes"/>
      <point x="43" y="90"/>
      <point x="115" y="-12"/>
    </contour>
    <contour>
      <point x="250" y="14" type="curve" smooth="yes"/>
      <point x="133" y="14"/>
      <point x="70" y="100"/>
      <point x="70" y="233" type="curve" smooth="yes"/>
      <point x="70" y="369"/>
      <point x="132" y="454"/>
      <point x="255" y="454" type="curve" smooth="yes"/>
      <point x="372" y="454"/>
      <point x="435" y="368"/>
      <point x="435" y="235" type="curve" smooth="yes"/>
      <point x="435" y="100"/>
      <point x="373" y="14"/>
    </contour>
  </outline>
</glyph>
<glyph name="visargaknda" format="2">
  <advance width="285"/>
  <unicode hex="0C83"/>
  <outline>
    <contour>
      <point x="36" y="370" type="curve" smooth="yes"/>
      <point x="36" y="307"/>
      <point x="78" y="260"/>
      <point x="142" y="260" type="curve" smooth="yes"/>
      <point x="210" y="260"/>
      <point x="249" y="307"/>
      <point x="249" y="370" type="curve" smooth="yes"/>
      <point x="249" y="433"/>
      <point x="208" y="480"/>
      <point x="142" y="480" type="curve" smooth="yes"/>
      <point x="79" y="480"/>
      <point x="36" y="434"/>
    </contour>
    <contour>
      <point x="63" y="371" type="curve" smooth="yes"/>
      <point x="63" y="420"/>
      <point x="92" y="455"/>
      <point x="144" y="455" type="curve" smooth="yes"/>
      <point x="194" y="455"/>
      <point x="222" y="420"/>
      <point x="222" y="371" type="curve" smooth="yes"/>
      <point x="222" y="322"/>
      <point x="197" y="285"/>
      <point x="144" y="285" type="curve" smooth="yes"/>
      <point x="91" y="285"/>
      <point x="63" y="322"/>
    </contour>
    <contour>
      <point x="36" y="99" type="curve" smooth="yes"/>
      <point x="36" y="36"/>
      <point x="78" y="-12"/>
      <point x="142" y="-12" type="curve" smooth="yes"/>
      <point x="210" y="-12"/>
      <point x="249" y="34"/>
      <point x="249" y="99" type="curve" smooth="yes"/>
      <point x="249" y="161"/>
      <point x="208" y="209"/>
      <point x="142" y="209" type="curve" smooth="yes"/>
      <point x="79" y="209"/>
      <point x="36" y="161"/>
    </contour>
    <contour>
      <point x="63" y="96" type="curve" smooth="yes"/>
      <point x="63" y="146"/>
      <point x="92" y="184"/>
      <point x="144" y="184" type="curve" smooth="yes"/>
      <point x="194" y="184"/>
      <point x="222" y="146"/>
      <point x="222" y="96" type="curve" smooth="yes"/>
      <point x="222" y="50"/>
      <point x="197" y="13"/>
      <point x="144" y="13" type="curve" smooth="yes"/>
      <point x="91" y="13"/>
      <point x="63" y="50"/>
    </contour>
  </outline>
</glyph>
<glyph name="uni0C84" format="2">
  <advance width="1005"/>
  <unicode hex="0C84"/>
  <outline>
    <contour>
      <point x="92" y="532" type="curve"/>
      <point x="66" y="534" type="line"/>
      <point x="55" y="466"/>
      <point x="51" y="416"/>
      <point x="51" y="374" type="curve" smooth="yes"/>
      <point x="51" y="46"/>
      <point x="226" y="-144"/>
      <point x="512" y="-144" type="curve" smooth="yes"/>
      <point x="790" y="-144"/>
      <point x="954" y="25"/>
      <point x="954" y="298" type="curve" smooth="yes"/>
      <point x="954" y="553"/>
      <point x="812" y="713"/>
      <point x="590" y="713" type="curve" smooth="yes"/>
      <point x="386" y="713"/>
      <point x="258" y="585"/>
      <point x="258" y="383" type="curve" smooth="yes"/>
      <point x="258" y="212"/>
      <point x="357" y="107"/>
      <point x="513" y="107" type="curve" smooth="yes"/>
      <point x="663" y="107"/>
      <point x="753" y="185"/>
      <point x="753" y="319" type="curve" smooth="yes"/>
      <point x="753" y="434"/>
      <point x="685" y="506"/>
      <point x="582" y="506" type="curve" smooth="yes"/>
      <point x="494" y="506"/>
      <point x="440" y="454"/>
      <point x="440" y="386" type="curve" smooth="yes"/>
      <point x="440" y="320"/>
      <point x="485" y="279"/>
      <point x="546" y="279" type="curve" smooth="yes"/>
      <point x="581" y="279"/>
      <point x="607" y="288"/>
      <point x="631" y="306" type="curve"/>
      <point x="617" y="327" type="line"/>
      <point x="595" y="313"/>
      <point x="577" y="305"/>
      <point x="545" y="305" type="curve" smooth="yes"/>
      <point x="498" y="305"/>
      <point x="467" y="338"/>
      <point x="467" y="386" type="curve" smooth="yes"/>
      <point x="467" y="441"/>
      <point x="511" y="480"/>
      <point x="583" y="480" type="curve" smooth="yes"/>
      <point x="672" y="480"/>
      <point x="726" y="419"/>
      <point x="726" y="319" type="curve" smooth="yes"/>
      <point x="726" y="200"/>
      <point x="648" y="133"/>
      <point x="513" y="133" type="curve" smooth="yes"/>
      <point x="372" y="133"/>
      <point x="285" y="227"/>
      <point x="285" y="383" type="curve" smooth="yes"/>
      <point x="285" y="572"/>
      <point x="402" y="687"/>
      <point x="590" y="687" type="curve" smooth="yes"/>
      <point x="796" y="687"/>
      <point x="927" y="538"/>
      <point x="927" y="298" type="curve" smooth="yes"/>
      <point x="927" y="37"/>
      <point x="772" y="-118"/>
      <point x="512" y="-118" type="curve" smooth="yes"/>
      <point x="238" y="-118"/>
      <point x="77" y="64"/>
      <point x="77" y="374" type="curve" smooth="yes"/>
      <point x="77" y="427"/>
      <point x="83" y="473"/>
    </contour>
  </outline>
</glyph>
<glyph name="aknda" format="2">
  <advance width="802"/>
  <unicode hex="0C85"/>
  <outline>
    <contour>
      <point x="390" y="14" type="curve" smooth="yes"/>
      <point x="175" y="14"/>
      <point x="71" y="136"/>
      <point x="71" y="304" type="curve" smooth="yes"/>
      <point x="71" y="309" type="line" smooth="yes"/>
      <point x="71" y="444"/>
      <point x="123" y="526"/>
      <point x="214" y="526" type="curve" smooth="yes"/>
      <point x="273" y="526"/>
      <point x="302" y="488"/>
      <point x="302" y="436" type="curve" smooth="yes"/>
      <point x="302" y="378"/>
      <point x="268" y="335"/>
      <point x="182" y="335" type="curve" smooth="yes"/>
      <point x="126" y="335"/>
      <point x="86" y="361"/>
      <point x="60" y="390" type="curve"/>
      <point x="56" y="363" type="line"/>
      <point x="74" y="341"/>
      <point x="122" y="309"/>
      <point x="182" y="309" type="curve" smooth="yes"/>
      <point x="287" y="309"/>
      <point x="329" y="369"/>
      <point x="329" y="437" type="curve" smooth="yes"/>
      <point x="329" y="506"/>
      <point x="282" y="552"/>
      <point x="216" y="552" type="curve" smooth="yes"/>
      <point x="120" y="552"/>
      <point x="44" y="473"/>
      <point x="44" y="307" type="curve" smooth="yes"/>
      <point x="44" y="122"/>
      <point x="161" y="-12"/>
      <point x="390" y="-12" type="curve" smooth="yes"/>
      <point x="635" y="-12"/>
      <point x="758" y="109"/>
      <point x="758" y="331" type="curve" smooth="yes"/>
      <point x="758" y="465"/>
      <point x="700" y="552"/>
      <point x="602" y="552" type="curve" smooth="yes"/>
      <point x="528" y="552"/>
      <point x="488" y="500"/>
      <point x="488" y="439" type="curve" smooth="yes"/>
      <point x="488" y="366"/>
      <point x="533" y="325"/>
      <point x="591" y="303" type="curve"/>
      <point x="341" y="303" type="line"/>
      <point x="341" y="278" type="line"/>
      <point x="650" y="278" type="line"/>
      <point x="650" y="298" type="line"/>
      <point x="572" y="327"/>
      <point x="515" y="365"/>
      <point x="515" y="438" type="curve" smooth="yes"/>
      <point x="515" y="493"/>
      <point x="548" y="526"/>
      <point x="601" y="526" type="curve" smooth="yes"/>
      <point x="692" y="526"/>
      <point x="731" y="443"/>
      <point x="731" y="332" type="curve" smooth="yes"/>
      <point x="731" y="126"/>
      <point x="628" y="14"/>
    </contour>
  </outline>
</glyph>
<glyph name="aaknda" format="2">
  <advance width="776"/>
  <unicode hex="0C86"/>
  <outline>
    <contour>
      <point x="399" y="-12" type="curve" smooth="yes"/>
      <point x="644" y="-12"/>
      <point x="712" y="91"/>
      <point x="712" y="188" type="curve" smooth="yes"/>
      <point x="712" y="237"/>
      <point x="688" y="276"/>
      <point x="646" y="302" type="curve"/>
      <point x="634" y="310"/>
      <point x="623" y="319"/>
      <point x="607" y="328" type="curve" smooth="yes"/>
      <point x="553" y="359"/>
      <point x="515" y="384"/>
      <point x="515" y="441" type="curve" smooth="yes"/>
      <point x="515" y="485"/>
      <point x="547" y="526"/>
      <point x="610" y="526" type="curve" smooth="yes"/>
      <point x="671" y="526"/>
      <point x="716" y="490"/>
      <point x="716" y="429" type="curve" smooth="yes"/>
      <point x="716" y="364"/>
      <point x="662" y="318"/>
      <point x="609" y="303" type="curve"/>
      <point x="278" y="303" type="line"/>
      <point x="278" y="278" type="line"/>
      <point x="588" y="278" type="line" smooth="yes"/>
      <point x="634" y="278"/>
      <point x="667" y="297"/>
      <point x="696" y="324" type="curve" smooth="yes"/>
      <point x="722" y="349"/>
      <point x="743" y="386"/>
      <point x="743" y="430" type="curve" smooth="yes"/>
      <point x="743" y="498"/>
      <point x="690" y="552"/>
      <point x="610" y="552" type="curve" smooth="yes"/>
      <point x="537" y="552"/>
      <point x="488" y="501"/>
      <point x="488" y="441" type="curve" smooth="yes"/>
      <point x="488" y="377"/>
      <point x="529" y="340"/>
      <point x="610" y="300" type="curve" smooth="yes"/>
      <point x="614" y="298"/>
      <point x="617" y="292"/>
      <point x="620" y="290" type="curve"/>
      <point x="659" y="270"/>
      <point x="685" y="237"/>
      <point x="685" y="188" type="curve" smooth="yes"/>
      <point x="685" y="79"/>
      <point x="593" y="14"/>
      <point x="398" y="14" type="curve" smooth="yes"/>
      <point x="175" y="14"/>
      <point x="71" y="136"/>
      <point x="71" y="304" type="curve" smooth="yes"/>
      <point x="71" y="309" type="line" smooth="yes"/>
      <point x="71" y="444"/>
      <point x="123" y="526"/>
      <point x="214" y="526" type="curve" smooth="yes"/>
      <point x="273" y="526"/>
      <point x="302" y="488"/>
      <point x="302" y="436" type="curve" smooth="yes"/>
      <point x="302" y="378"/>
      <point x="268" y="335"/>
      <point x="182" y="335" type="curve" smooth="yes"/>
      <point x="126" y="335"/>
      <point x="86" y="361"/>
      <point x="60" y="390" type="curve"/>
      <point x="56" y="363" type="line"/>
      <point x="74" y="341"/>
      <point x="122" y="309"/>
      <point x="182" y="309" type="curve" smooth="yes"/>
      <point x="287" y="309"/>
      <point x="329" y="369"/>
      <point x="329" y="437" type="curve" smooth="yes"/>
      <point x="329" y="506"/>
      <point x="282" y="552"/>
      <point x="216" y="552" type="curve" smooth="yes"/>
      <point x="120" y="552"/>
      <point x="44" y="473"/>
      <point x="44" y="307" type="curve" smooth="yes"/>
      <point x="44" y="122"/>
      <point x="160" y="-12"/>
    </contour>
  </outline>
</glyph>
<glyph name="iknda" format="2">
  <advance width="657"/>
  <unicode hex="0C87"/>
  <outline>
    <contour>
      <point x="288" y="-12" type="curve" smooth="yes"/>
      <point x="392" y="-12"/>
      <point x="467" y="23"/>
      <point x="522" y="82" type="curve"/>
      <point x="528" y="89" type="line"/>
      <point x="580" y="148"/>
      <point x="609" y="227"/>
      <point x="609" y="319" type="curve" smooth="yes"/>
      <point x="609" y="481"/>
      <point x="539" y="552"/>
      <point x="448" y="552" type="curve" smooth="yes"/>
      <point x="379" y="552"/>
      <point x="326" y="509"/>
      <point x="303" y="405" type="curve"/>
      <point x="307" y="405" type="line"/>
      <point x="290" y="490"/>
      <point x="249" y="552"/>
      <point x="160" y="552" type="curve" smooth="yes"/>
      <point x="84" y="552"/>
      <point x="33" y="503"/>
      <point x="33" y="429" type="curve" smooth="yes"/>
      <point x="33" y="395"/>
      <point x="42" y="364"/>
      <point x="56" y="332" type="curve"/>
      <point x="81" y="340" type="line"/>
      <point x="68" y="368"/>
      <point x="60" y="395"/>
      <point x="60" y="429" type="curve" smooth="yes"/>
      <point x="60" y="490"/>
      <point x="96" y="526"/>
      <point x="160" y="526" type="curve" smooth="yes"/>
      <point x="241" y="526"/>
      <point x="276" y="467"/>
      <point x="293" y="371" type="curve"/>
      <point x="317" y="371" type="line"/>
      <point x="336" y="467"/>
      <point x="374" y="526"/>
      <point x="448" y="526" type="curve" smooth="yes"/>
      <point x="524" y="526"/>
      <point x="582" y="468"/>
      <point x="582" y="318" type="curve" smooth="yes"/>
      <point x="582" y="181"/>
      <point x="508" y="14"/>
      <point x="288" y="14" type="curve" smooth="yes"/>
      <point x="202" y="14"/>
      <point x="153" y="59"/>
      <point x="153" y="133" type="curve" smooth="yes"/>
      <point x="153" y="195"/>
      <point x="198" y="238"/>
      <point x="284" y="238" type="curve" smooth="yes"/>
      <point x="433" y="238"/>
      <point x="518" y="114"/>
      <point x="561" y="-55" type="curve"/>
      <point x="587" y="-50" type="line"/>
      <point x="573" y="5"/>
      <point x="553" y="59"/>
      <point x="526" y="106" type="curve"/>
      <point x="475" y="199"/>
      <point x="399" y="264"/>
      <point x="283" y="264" type="curve" smooth="yes"/>
      <point x="184" y="264"/>
      <point x="126" y="206"/>
      <point x="126" y="134" type="curve" smooth="yes"/>
      <point x="126" y="48"/>
      <point x="185" y="-12"/>
    </contour>
  </outline>
</glyph>
<glyph name="iiknda" format="2">
  <advance width="939"/>
  <unicode hex="0C88"/>
  <outline>
    <contour>
      <point x="338" y="-12" type="curve" smooth="yes"/>
      <point x="511" y="-12"/>
      <point x="597" y="100"/>
      <point x="597" y="259" type="curve" smooth="yes"/>
      <point x="597" y="382"/>
      <point x="544" y="482"/>
      <point x="424" y="522" type="curve"/>
      <point x="432" y="515" type="line"/>
      <point x="489" y="515"/>
      <point x="536" y="519"/>
      <point x="567" y="547" type="curve" smooth="yes"/>
      <point x="586" y="564"/>
      <point x="597" y="590"/>
      <point x="597" y="631" type="curve" smooth="yes"/>
      <point x="597" y="678"/>
      <point x="578" y="721"/>
      <point x="529" y="778" type="curve"/>
      <point x="508" y="762" type="line"/>
      <point x="556" y="708"/>
      <point x="570" y="668"/>
      <point x="570" y="631" type="curve" smooth="yes"/>
      <point x="570" y="599"/>
      <point x="562" y="578"/>
      <point x="547" y="564" type="curve" smooth="yes"/>
      <point x="525" y="544"/>
      <point x="491" y="540"/>
      <point x="423" y="540" type="curve" smooth="yes"/>
      <point x="79" y="540" type="line"/>
      <point x="79" y="515" type="line"/>
      <point x="271" y="515" type="line"/>
      <point x="257" y="521" type="line"/>
      <point x="131" y="487"/>
      <point x="79" y="381"/>
      <point x="79" y="260" type="curve" smooth="yes"/>
      <point x="79" y="81"/>
      <point x="185" y="-12"/>
    </contour>
    <contour>
      <point x="339" y="14" type="curve" smooth="yes"/>
      <point x="195" y="14"/>
      <point x="106" y="96"/>
      <point x="106" y="260" type="curve" smooth="yes"/>
      <point x="106" y="266"/>
      <point x="106" y="271"/>
      <point x="106" y="277" type="curve" smooth="yes"/>
      <point x="113" y="421"/>
      <point x="205" y="518"/>
      <point x="340" y="518" type="curve" smooth="yes"/>
      <point x="465" y="518"/>
      <point x="561" y="425"/>
      <point x="569" y="279" type="curve" smooth="yes"/>
      <point x="569" y="273"/>
      <point x="570" y="265"/>
      <point x="570" y="259" type="curve" smooth="yes"/>
      <point x="570" y="114"/>
      <point x="498" y="14"/>
    </contour>
    <contour>
      <point x="769" y="29" type="curve"/>
      <point x="772" y="3" type="line"/>
      <point x="868" y="10"/>
      <point x="891" y="65"/>
      <point x="891" y="113" type="curve" smooth="yes"/>
      <point x="891" y="174"/>
      <point x="858" y="220"/>
      <point x="798" y="277" type="curve"/>
      <point x="792" y="285" type="line"/>
      <point x="758" y="320"/>
      <point x="728" y="355"/>
      <point x="728" y="401" type="curve" smooth="yes"/>
      <point x="728" y="449"/>
      <point x="758" y="480"/>
      <point x="810" y="480" type="curve" smooth="yes"/>
      <point x="854" y="480"/>
      <point x="889" y="454"/>
      <point x="889" y="393" type="curve" smooth="yes"/>
      <point x="889" y="315"/>
      <point x="822" y="284"/>
      <point x="712" y="284" type="curve" smooth="yes"/>
      <point x="23" y="284" type="line"/>
      <point x="23" y="259" type="line"/>
      <point x="707" y="259" type="line" smooth="yes"/>
      <point x="836" y="259"/>
      <point x="916" y="300"/>
      <point x="916" y="394" type="curve" smooth="yes"/>
      <point x="916" y="462"/>
      <point x="873" y="506"/>
      <point x="810" y="506" type="curve" smooth="yes"/>
      <point x="738" y="506"/>
      <point x="701" y="455"/>
      <point x="701" y="402" type="curve" smooth="yes"/>
      <point x="701" y="352"/>
      <point x="731" y="312"/>
      <point x="763" y="280" type="curve"/>
      <point x="771" y="269" type="line"/>
      <point x="829" y="213"/>
      <point x="864" y="171"/>
      <point x="864" y="113" type="curve" smooth="yes"/>
      <point x="864" y="57"/>
      <point x="829" y="32"/>
    </contour>
  </outline>
</glyph>
<glyph name="uuknda" format="2">
  <advance width="1500"/>
  <unicode hex="0C8A"/>
  <outline>
    <contour>
      <point x="885" y="-12" type="curve" smooth="yes"/>
      <point x="984" y="-12"/>
      <point x="1031" y="47"/>
      <point x="1031" y="160" type="curve" smooth="yes"/>
      <point x="1031" y="213"/>
      <point x="1023" y="257"/>
      <point x="1023" y="320" type="curve" smooth="yes"/>
      <point x="1023" y="445"/>
      <point x="1091" y="526"/>
      <point x="1208" y="526" type="curve" smooth="yes"/>
      <point x="1345" y="526"/>
      <point x="1427" y="412"/>
      <point x="1427" y="230" type="curve" smooth="yes"/>
      <point x="1427" y="70"/>
      <point x="1355" y="14"/>
      <point x="1270" y="14" type="curve" smooth="yes"/>
      <point x="1190" y="14"/>
      <point x="1147" y="59"/>
      <point x="1147" y="131" type="curve" smooth="yes"/>
      <point x="1147" y="191"/>
      <point x="1175" y="228"/>
      <point x="1210" y="236" type="curve"/>
      <point x="1197" y="235" type="line"/>
      <point x="1197" y="211"/>
      <point x="1206" y="201"/>
      <point x="1223" y="201" type="curve" smooth="yes"/>
      <point x="1237" y="201"/>
      <point x="1249" y="207"/>
      <point x="1249" y="228" type="curve" smooth="yes"/>
      <point x="1249" y="244"/>
      <point x="1240" y="258"/>
      <point x="1213" y="258" type="curve" smooth="yes"/>
      <point x="1172" y="258"/>
      <point x="1121" y="221"/>
      <point x="1121" y="131" type="curve" smooth="yes"/>
      <point x="1121" y="49"/>
      <point x="1172" y="-12"/>
      <point x="1270" y="-12" type="curve" smooth="yes"/>
      <point x="1372" y="-12"/>
      <point x="1454" y="60"/>
      <point x="1454" y="230" type="curve" smooth="yes"/>
      <point x="1454" y="428"/>
      <point x="1357" y="552"/>
      <point x="1207" y="552" type="curve" smooth="yes"/>
      <point x="1083" y="552"/>
      <point x="997" y="464"/>
      <point x="997" y="325" type="curve" smooth="yes"/>
      <point x="997" y="263"/>
      <point x="1005" y="207"/>
      <point x="1005" y="162" type="curve" smooth="yes"/>
      <point x="1005" y="70"/>
      <point x="976" y="14"/>
      <point x="886" y="14" type="curve" smooth="yes"/>
      <point x="847" y="14"/>
      <point x="820" y="24"/>
      <point x="801" y="42" type="curve" smooth="yes"/>
      <point x="767" y="73"/>
      <point x="758" y="125"/>
      <point x="758" y="199" type="curve" smooth="yes"/>
      <point x="758" y="344" type="line" smooth="yes"/>
      <point x="758" y="431"/>
      <point x="745" y="488"/>
      <point x="704" y="523" type="curve" smooth="yes"/>
      <point x="682" y="541"/>
      <point x="654" y="552"/>
      <point x="616" y="552" type="curve" smooth="yes"/>
      <point x="512" y="552"/>
      <point x="467" y="480"/>
      <point x="467" y="380" type="curve" smooth="yes"/>
      <point x="467" y="311"/>
      <point x="478" y="261"/>
      <point x="478" y="195" type="curve" smooth="yes"/>
      <point x="478" y="78"/>
      <point x="424" y="14"/>
      <point x="294" y="14" type="curve" smooth="yes"/>
      <point x="141" y="14"/>
      <point x="71" y="131"/>
      <point x="71" y="310" type="curve" smooth="yes"/>
      <point x="71" y="304" type="line" smooth="yes"/>
      <point x="71" y="444"/>
      <point x="123" y="526"/>
      <point x="214" y="526" type="curve" smooth="yes"/>
      <point x="273" y="526"/>
      <point x="302" y="488"/>
      <point x="302" y="436" type="curve" smooth="yes"/>
      <point x="302" y="378"/>
      <point x="268" y="335"/>
      <point x="182" y="335" type="curve" smooth="yes"/>
      <point x="126" y="335"/>
      <point x="86" y="361"/>
      <point x="60" y="390" type="curve"/>
      <point x="56" y="363" type="line"/>
      <point x="74" y="341"/>
      <point x="122" y="309"/>
      <point x="182" y="309" type="curve" smooth="yes"/>
      <point x="287" y="309"/>
      <point x="329" y="369"/>
      <point x="329" y="437" type="curve" smooth="yes"/>
      <point x="329" y="506"/>
      <point x="282" y="552"/>
      <point x="216" y="552" type="curve" smooth="yes"/>
      <point x="120" y="552"/>
      <point x="44" y="473"/>
      <point x="44" y="306" type="curve" smooth="yes"/>
      <point x="44" y="114"/>
      <point x="130" y="-12"/>
      <point x="294" y="-12" type="curve" smooth="yes"/>
      <point x="438" y="-12"/>
      <point x="505" y="65"/>
      <point x="505" y="195" type="curve" smooth="yes"/>
      <point x="505" y="264"/>
      <point x="494" y="306"/>
      <point x="494" y="380" type="curve" smooth="yes"/>
      <point x="494" y="460"/>
      <point x="521" y="526"/>
      <point x="616" y="526" type="curve" smooth="yes"/>
      <point x="647" y="526"/>
      <point x="671" y="518"/>
      <point x="688" y="502" type="curve" smooth="yes"/>
      <point x="724" y="469"/>
      <point x="732" y="405"/>
      <point x="732" y="332" type="curve" smooth="yes"/>
      <point x="732" y="192" type="line" smooth="yes"/>
      <point x="732" y="110"/>
      <point x="746" y="57"/>
      <point x="783" y="23" type="curve" smooth="yes"/>
      <point x="807" y="1"/>
      <point x="840" y="-12"/>
    </contour>
  </outline>
</glyph>
<glyph name="rvocalicknda" format="2">
  <advance width="1134"/>
  <unicode hex="0C8B"/>
  <outline>
    <contour>
      <point x="162" y="-12" type="curve" smooth="yes"/>
      <point x="329" y="-12"/>
      <point x="385" y="126"/>
      <point x="385" y="266" type="curve" smooth="yes"/>
      <point x="385" y="396"/>
      <point x="320" y="552"/>
      <point x="161" y="552" type="curve" smooth="yes"/>
      <point x="88" y="552"/>
      <point x="33" y="503"/>
      <point x="33" y="435" type="curve" smooth="yes"/>
      <point x="33" y="361"/>
      <point x="80" y="322"/>
      <point x="142" y="322" type="curve" smooth="yes"/>
      <point x="207" y="322"/>
      <point x="253" y="365"/>
      <point x="253" y="436" type="curve" smooth="yes"/>
      <point x="253" y="471"/>
      <point x="237" y="505"/>
      <point x="215" y="534" type="curve"/>
      <point x="189" y="529" type="line"/>
      <point x="214" y="503"/>
      <point x="227" y="473"/>
      <point x="227" y="437" type="curve" smooth="yes"/>
      <point x="227" y="375"/>
      <point x="190" y="348"/>
      <point x="141" y="348" type="curve" smooth="yes"/>
      <point x="92" y="348"/>
      <point x="60" y="377"/>
      <point x="60" y="435" type="curve" smooth="yes"/>
      <point x="60" y="492"/>
      <point x="104" y="526"/>
      <point x="160" y="526" type="curve" smooth="yes"/>
      <point x="177" y="526"/>
      <point x="193" y="524"/>
      <point x="208" y="520" type="curve" smooth="yes"/>
      <point x="213" y="519"/>
      <point x="217" y="520"/>
      <point x="222" y="518" type="curve" smooth="yes"/>
      <point x="314" y="485"/>
      <point x="358" y="373"/>
      <point x="358" y="267" type="curve" smooth="yes"/>
      <point x="358" y="149"/>
      <point x="318" y="46"/>
      <point x="219" y="19" type="curve" smooth="yes"/>
      <point x="216" y="18"/>
      <point x="212" y="20"/>
      <point x="209" y="19" type="curve" smooth="yes"/>
      <point x="195" y="16"/>
      <point x="179" y="14"/>
      <point x="162" y="14" type="curve" smooth="yes"/>
      <point x="102" y="14"/>
      <point x="64" y="47"/>
      <point x="64" y="105" type="curve" smooth="yes"/>
      <point x="64" y="159"/>
      <point x="97" y="194"/>
      <point x="151" y="194" type="curve" smooth="yes"/>
      <point x="195" y="194"/>
      <point x="231" y="167"/>
      <point x="231" y="108" type="curve" smooth="yes"/>
      <point x="231" y="68"/>
      <point x="212" y="33"/>
      <point x="183" y="-1" type="curve"/>
      <point x="211" y="2" type="line"/>
      <point x="238" y="29"/>
      <point x="257" y="62"/>
      <point x="257" y="109" type="curve" smooth="yes"/>
      <point x="257" y="173"/>
      <point x="214" y="220"/>
      <point x="151" y="220" type="curve" smooth="yes"/>
      <point x="86" y="220"/>
      <point x="37" y="173"/>
      <point x="37" y="108" type="curve" smooth="yes"/>
      <point x="37" y="36"/>
      <point x="84" y="-12"/>
    </contour>
    <contour>
      <point x="547" y="-12" type="curve" smooth="yes"/>
      <point x="651" y="-12"/>
      <point x="723" y="63"/>
      <point x="723" y="209" type="curve" smooth="yes"/>
      <point x="723" y="351"/>
      <point x="648" y="462"/>
      <point x="515" y="522" type="curve"/>
      <point x="478" y="520" type="line"/>
      <point x="636" y="443"/>
      <point x="696" y="335"/>
      <point x="696" y="208" type="curve" smooth="yes"/>
      <point x="696" y="71"/>
      <point x="634" y="14"/>
      <point x="546" y="14" type="curve" smooth="yes"/>
      <point x="456" y="14"/>
      <point x="405" y="50"/>
      <point x="348" y="118" type="curve"/>
      <point x="336" y="95" type="line"/>
      <point x="399" y="22"/>
      <point x="455" y="-12"/>
    </contour>
    <contour>
      <point x="428" y="515" type="line"/>
      <point x="551" y="515" type="line" smooth="yes"/>
      <point x="608" y="515"/>
      <point x="655" y="519"/>
      <point x="686" y="547" type="curve" smooth="yes"/>
      <point x="705" y="564"/>
      <point x="716" y="590"/>
      <point x="716" y="631" type="curve" smooth="yes"/>
      <point x="716" y="678"/>
      <point x="697" y="721"/>
      <point x="648" y="778" type="curve"/>
      <point x="627" y="762" type="line"/>
      <point x="675" y="708"/>
      <point x="689" y="668"/>
      <point x="689" y="631" type="curve" smooth="yes"/>
      <point x="689" y="599"/>
      <point x="681" y="578"/>
      <point x="666" y="564" type="curve" smooth="yes"/>
      <point x="644" y="544"/>
      <point x="610" y="540"/>
      <point x="542" y="540" type="curve" smooth="yes"/>
      <point x="428" y="540" type="line"/>
    </contour>
    <contour>
      <point x="910" y="-12" type="curve" smooth="yes"/>
      <point x="1025" y="-12"/>
      <point x="1090" y="76"/>
      <point x="1090" y="203" type="curve" smooth="yes"/>
      <point x="1090" y="372"/>
      <point x="994" y="486"/>
      <point x="856" y="553" type="curve"/>
      <point x="844" y="529" type="line"/>
      <point x="983" y="465"/>
      <point x="1063" y="353"/>
      <point x="1063" y="204" type="curve" smooth="yes"/>
      <point x="1063" y="75"/>
      <point x="1001" y="14"/>
      <point x="910" y="14" type="curve" smooth="yes"/>
      <point x="816" y="14"/>
      <point x="758" y="61"/>
      <point x="704" y="132" type="curve"/>
      <point x="689" y="113" type="line"/>
      <point x="743" y="42"/>
      <point x="808" y="-12"/>
    </contour>
  </outline>
</glyph>
<glyph name="lvocalicknda" format="2">
  <advance width="788"/>
  <unicode hex="0C8C"/>
  <outline>
    <contour>
      <point x="423" y="-12" type="curve" smooth="yes"/>
      <point x="619" y="-12"/>
      <point x="741" y="104"/>
      <point x="741" y="276" type="curve" smooth="yes"/>
      <point x="741" y="378"/>
      <point x="711" y="468"/>
      <point x="628" y="553" type="curve"/>
      <point x="607" y="537" type="line"/>
      <point x="688" y="455"/>
      <point x="714" y="373"/>
      <point x="714" y="277" type="curve" smooth="yes"/>
      <point x="714" y="113"/>
      <point x="601" y="14"/>
      <point x="422" y="14" type="curve" smooth="yes"/>
      <point x="296" y="14"/>
      <point x="242" y="65"/>
      <point x="242" y="139" type="curve" smooth="yes"/>
      <point x="242" y="205"/>
      <point x="280" y="234"/>
      <point x="384" y="262" type="curve" smooth="yes"/>
      <point x="494" y="292"/>
      <point x="544" y="336"/>
      <point x="544" y="421" type="curve" smooth="yes"/>
      <point x="544" y="509"/>
      <point x="489" y="552"/>
      <point x="424" y="552" type="curve" smooth="yes"/>
      <point x="349" y="552"/>
      <point x="302" y="493"/>
      <point x="283" y="410" type="curve"/>
      <point x="290" y="405" type="line"/>
      <point x="273" y="494"/>
      <point x="228" y="552"/>
      <point x="151" y="552" type="curve" smooth="yes"/>
      <point x="85" y="552"/>
      <point x="33" y="511"/>
      <point x="33" y="438" type="curve" smooth="yes"/>
      <point x="33" y="402"/>
      <point x="46" y="361"/>
      <point x="58" y="338" type="curve"/>
      <point x="83" y="346" type="line"/>
      <point x="70" y="374"/>
      <point x="60" y="401"/>
      <point x="60" y="438" type="curve" smooth="yes"/>
      <point x="60" y="482"/>
      <point x="82" y="526"/>
      <point x="151" y="526" type="curve" smooth="yes"/>
      <point x="220" y="526"/>
      <point x="254" y="473"/>
      <point x="274" y="379" type="curve"/>
      <point x="298" y="379" type="line"/>
      <point x="314" y="456"/>
      <point x="348" y="526"/>
      <point x="425" y="526" type="curve" smooth="yes"/>
      <point x="473" y="526"/>
      <point x="517" y="497"/>
      <point x="517" y="421" type="curve" smooth="yes"/>
      <point x="517" y="338"/>
      <point x="460" y="309"/>
      <point x="377" y="286" type="curve" smooth="yes"/>
      <point x="264" y="255"/>
      <point x="215" y="217"/>
      <point x="215" y="140" type="curve" smooth="yes"/>
      <point x="215" y="51"/>
      <point x="281" y="-12"/>
    </contour>
  </outline>
</glyph>
<glyph name="eknda" format="2">
  <advance width="734"/>
  <unicode hex="0C8E"/>
  <outline>
    <contour>
      <point x="537" y="-12" type="curve" smooth="yes"/>
      <point x="641" y="-12"/>
      <point x="691" y="69"/>
      <point x="691" y="197" type="curve" smooth="yes"/>
      <point x="691" y="349"/>
      <point x="590" y="563"/>
      <point x="212" y="572" type="curve"/>
      <point x="210" y="546" type="line"/>
      <point x="502" y="542"/>
      <point x="664" y="396"/>
      <point x="664" y="198" type="curve" smooth="yes"/>
      <point x="664" y="75"/>
      <point x="622" y="14"/>
      <point x="533" y="14" type="curve" smooth="yes"/>
      <point x="447" y="14"/>
      <point x="401" y="61"/>
      <point x="389" y="178" type="curve"/>
      <point x="365" y="178" type="line"/>
      <point x="354" y="67"/>
      <point x="302" y="14"/>
      <point x="213" y="14" type="curve" smooth="yes"/>
      <point x="122" y="14"/>
      <point x="63" y="66"/>
      <point x="63" y="158" type="curve" smooth="yes"/>
      <point x="63" y="234"/>
      <point x="108" y="278"/>
      <point x="164" y="278" type="curve" smooth="yes"/>
      <point x="208" y="278"/>
      <point x="235" y="254"/>
      <point x="235" y="211" type="curve" smooth="yes"/>
      <point x="235" y="196"/>
      <point x="233" y="183"/>
      <point x="228" y="169" type="curve"/>
      <point x="255" y="167" type="line"/>
      <point x="260" y="182"/>
      <point x="262" y="200"/>
      <point x="262" y="212" type="curve" smooth="yes"/>
      <point x="262" y="269"/>
      <point x="219" y="304"/>
      <point x="165" y="304" type="curve" smooth="yes"/>
      <point x="86" y="304"/>
      <point x="36" y="238"/>
      <point x="36" y="157" type="curve" smooth="yes"/>
      <point x="36" y="57"/>
      <point x="106" y="-12"/>
      <point x="207" y="-12" type="curve" smooth="yes"/>
      <point x="314" y="-12"/>
      <point x="360" y="43"/>
      <point x="379" y="133" type="curve"/>
      <point x="374" y="132" type="line"/>
      <point x="393" y="39"/>
      <point x="440" y="-12"/>
    </contour>
  </outline>
</glyph>
<glyph name="eeknda" format="2">
  <advance width="734"/>
  <unicode hex="0C8F"/>
  <outline>
    <contour>
      <point x="537" y="-12" type="curve" smooth="yes"/>
      <point x="641" y="-12"/>
      <point x="691" y="69"/>
      <point x="691" y="197" type="curve" smooth="yes"/>
      <point x="691" y="383"/>
      <point x="586" y="516"/>
      <point x="366" y="572" type="curve"/>
      <point x="348" y="469"/>
      <point x="313" y="425"/>
      <point x="243" y="425" type="curve" smooth="yes"/>
      <point x="181" y="425"/>
      <point x="143" y="460"/>
      <point x="132" y="572" type="curve"/>
      <point x="106" y="569" type="line"/>
      <point x="115" y="445"/>
      <point x="170" y="399"/>
      <point x="243" y="399" type="curve" smooth="yes"/>
      <point x="324" y="399"/>
      <point x="367" y="449"/>
      <point x="388" y="550" type="curve"/>
      <point x="378" y="543" type="line"/>
      <point x="569" y="489"/>
      <point x="664" y="368"/>
      <point x="664" y="198" type="curve" smooth="yes"/>
      <point x="664" y="75"/>
      <point x="622" y="14"/>
      <point x="533" y="14" type="curve" smooth="yes"/>
      <point x="447" y="14"/>
      <point x="401" y="61"/>
      <point x="389" y="178" type="curve"/>
      <point x="365" y="178" type="line"/>
      <point x="354" y="67"/>
      <point x="302" y="14"/>
      <point x="213" y="14" type="curve" smooth="yes"/>
      <point x="122" y="14"/>
      <point x="63" y="66"/>
      <point x="63" y="158" type="curve" smooth="yes"/>
      <point x="63" y="234"/>
      <point x="108" y="278"/>
      <point x="164" y="278" type="curve" smooth="yes"/>
      <point x="208" y="278"/>
      <point x="235" y="254"/>
      <point x="235" y="211" type="curve" smooth="yes"/>
      <point x="235" y="196"/>
      <point x="233" y="183"/>
      <point x="228" y="169" type="curve"/>
      <point x="255" y="167" type="line"/>
      <point x="260" y="182"/>
      <point x="262" y="200"/>
      <point x="262" y="212" type="curve" smooth="yes"/>
      <point x="262" y="269"/>
      <point x="219" y="304"/>
      <point x="165" y="304" type="curve" smooth="yes"/>
      <point x="86" y="304"/>
      <point x="36" y="238"/>
      <point x="36" y="157" type="curve" smooth="yes"/>
      <point x="36" y="57"/>
      <point x="106" y="-12"/>
      <point x="207" y="-12" type="curve" smooth="yes"/>
      <point x="314" y="-12"/>
      <point x="360" y="43"/>
      <point x="379" y="133" type="curve"/>
      <point x="374" y="132" type="line"/>
      <point x="393" y="39"/>
      <point x="440" y="-12"/>
    </contour>
  </outline>
</glyph>
<glyph name="aiknda" format="2">
  <advance width="754"/>
  <unicode hex="0C90"/>
  <outline>
    <contour>
      <point x="533" y="-12" type="curve" smooth="yes"/>
      <point x="646" y="-12"/>
      <point x="706" y="70"/>
      <point x="706" y="245" type="curve" smooth="yes"/>
      <point x="706" y="436"/>
      <point x="633" y="552"/>
      <point x="508" y="552" type="curve" smooth="yes"/>
      <point x="433" y="552"/>
      <point x="374" y="505"/>
      <point x="352" y="407" type="curve"/>
      <point x="357" y="407" type="line"/>
      <point x="339" y="492"/>
      <point x="286" y="552"/>
      <point x="194" y="552" type="curve" smooth="yes"/>
      <point x="115" y="552"/>
      <point x="66" y="505"/>
      <point x="66" y="431" type="curve" smooth="yes"/>
      <point x="66" y="411"/>
      <point x="71" y="386"/>
      <point x="78" y="363" type="curve"/>
      <point x="103" y="370" type="line"/>
      <point x="97" y="391"/>
      <point x="93" y="412"/>
      <point x="93" y="431" type="curve" smooth="yes"/>
      <point x="93" y="489"/>
      <point x="124" y="526"/>
      <point x="193" y="526" type="curve" smooth="yes"/>
      <point x="271" y="526"/>
      <point x="328" y="472"/>
      <point x="342" y="380" type="curve"/>
      <point x="366" y="380" type="line"/>
      <point x="387" y="461"/>
      <point x="422" y="526"/>
      <point x="509" y="526" type="curve" smooth="yes"/>
      <point x="623" y="526"/>
      <point x="679" y="411"/>
      <point x="679" y="245" type="curve" smooth="yes"/>
      <point x="679" y="95"/>
      <point x="640" y="14"/>
      <point x="532" y="14" type="curve" smooth="yes"/>
      <point x="452" y="14"/>
      <point x="406" y="61"/>
      <point x="394" y="178" type="curve"/>
      <point x="370" y="178" type="line"/>
      <point x="359" y="67"/>
      <point x="307" y="14"/>
      <point x="218" y="14" type="curve" smooth="yes"/>
      <point x="127" y="14"/>
      <point x="68" y="66"/>
      <point x="68" y="158" type="curve" smooth="yes"/>
      <point x="68" y="234"/>
      <point x="113" y="278"/>
      <point x="169" y="278" type="curve" smooth="yes"/>
      <point x="213" y="278"/>
      <point x="240" y="254"/>
      <point x="240" y="211" type="curve" smooth="yes"/>
      <point x="240" y="196"/>
      <point x="238" y="183"/>
      <point x="233" y="169" type="curve"/>
      <point x="260" y="167" type="line"/>
      <point x="265" y="182"/>
      <point x="267" y="200"/>
      <point x="267" y="212" type="curve" smooth="yes"/>
      <point x="267" y="269"/>
      <point x="224" y="304"/>
      <point x="170" y="304" type="curve" smooth="yes"/>
      <point x="91" y="304"/>
      <point x="41" y="238"/>
      <point x="41" y="157" type="curve" smooth="yes"/>
      <point x="41" y="57"/>
      <point x="111" y="-12"/>
      <point x="212" y="-12" type="curve" smooth="yes"/>
      <point x="319" y="-12"/>
      <point x="365" y="43"/>
      <point x="384" y="133" type="curve"/>
      <point x="379" y="132" type="line"/>
      <point x="398" y="39"/>
      <point x="446" y="-12"/>
    </contour>
  </outline>
</glyph>
<glyph name="ooknda" format="2">
  <advance width="726"/>
  <unicode hex="0C93"/>
  <outline>
    <contour>
      <point x="159" y="542" type="curve"/>
      <point x="195" y="547" type="line"/>
      <point x="136" y="581"/>
      <point x="99" y="614"/>
      <point x="99" y="664" type="curve" smooth="yes"/>
      <point x="99" y="720"/>
      <point x="144" y="745"/>
      <point x="210" y="749" type="curve"/>
      <point x="207" y="775" type="line"/>
      <point x="114" y="768"/>
      <point x="72" y="722"/>
      <point x="72" y="664" type="curve" smooth="yes"/>
      <point x="72" y="604"/>
      <point x="114" y="569"/>
    </contour>
    <component base="oknda"/>
  </outline>
</glyph>
<glyph name="auknda" format="2">
  <advance width="729"/>
  <unicode hex="0C94"/>
  <outline>
    <contour>
      <point x="536" y="-12" type="curve" smooth="yes"/>
      <point x="641" y="-12"/>
      <point x="690" y="58"/>
      <point x="690" y="138" type="curve" smooth="yes"/>
      <point x="690" y="205"/>
      <point x="663" y="257"/>
      <point x="623" y="301" type="curve"/>
      <point x="602" y="285" type="line"/>
      <point x="642" y="239"/>
      <point x="663" y="199"/>
      <point x="663" y="139" type="curve" smooth="yes"/>
      <point x="663" y="70"/>
      <point x="627" y="14"/>
      <point x="535" y="14" type="curve" smooth="yes"/>
      <point x="442" y="14"/>
      <point x="396" y="61"/>
      <point x="384" y="178" type="curve"/>
      <point x="360" y="178" type="line"/>
      <point x="349" y="68"/>
      <point x="299" y="14"/>
      <point x="200" y="14" type="curve" smooth="yes"/>
      <point x="135" y="14"/>
      <point x="83" y="49"/>
      <point x="83" y="124" type="curve" smooth="yes"/>
      <point x="83" y="190"/>
      <point x="119" y="226"/>
      <point x="191" y="273" type="curve" smooth="yes"/>
      <point x="262" y="319"/>
      <point x="298" y="359"/>
      <point x="298" y="427" type="curve" smooth="yes"/>
      <point x="298" y="490"/>
      <point x="265" y="545"/>
      <point x="165" y="545" type="curve" smooth="yes"/>
      <point x="82" y="545"/>
      <point x="33" y="503"/>
      <point x="33" y="433" type="curve" smooth="yes"/>
      <point x="33" y="402"/>
      <point x="41" y="378"/>
      <point x="62" y="342" type="curve"/>
      <point x="85" y="354" type="line"/>
      <point x="70" y="379"/>
      <point x="60" y="403"/>
      <point x="60" y="433" type="curve" smooth="yes"/>
      <point x="60" y="490"/>
      <point x="98" y="527"/>
      <point x="165" y="527" type="curve" smooth="yes"/>
      <point x="248" y="527"/>
      <point x="271" y="476"/>
      <point x="271" y="427" type="curve" smooth="yes"/>
      <point x="271" y="371"/>
      <point x="244" y="339"/>
      <point x="175" y="294" type="curve" smooth="yes"/>
      <point x="101" y="246"/>
      <point x="56" y="200"/>
      <point x="56" y="124" type="curve" smooth="yes"/>
      <point x="56" y="50"/>
      <point x="105" y="-12"/>
      <point x="201" y="-12" type="curve" smooth="yes"/>
      <point x="309" y="-12"/>
      <point x="355" y="44"/>
      <point x="375" y="133" type="curve"/>
      <point x="370" y="132" type="line"/>
      <point x="387" y="36"/>
      <point x="437" y="-12"/>
    </contour>
    <contour>
      <point x="84" y="529" type="line"/>
      <point x="143" y="529" type="line" smooth="yes"/>
      <point x="175" y="529"/>
      <point x="203" y="532"/>
      <point x="218" y="534" type="curve" smooth="yes"/>
      <point x="273" y="543"/>
      <point x="302" y="569"/>
      <point x="302" y="625" type="curve" smooth="yes"/>
      <point x="302" y="674"/>
      <point x="280" y="709"/>
      <point x="257" y="732" type="curve"/>
      <point x="230" y="729" type="line"/>
      <point x="261" y="697"/>
      <point x="276" y="661"/>
      <point x="276" y="625" type="curve" smooth="yes"/>
      <point x="276" y="605"/>
      <point x="272" y="589"/>
      <point x="261" y="577" type="curve" smooth="yes"/>
      <point x="245" y="559"/>
      <point x="222" y="551"/>
      <point x="153" y="551" type="curve" smooth="yes"/>
      <point x="84" y="551" type="line"/>
    </contour>
    <contour>
      <point x="496" y="321" type="curve" smooth="yes"/>
      <point x="597" y="321"/>
      <point x="659" y="397"/>
      <point x="659" y="515" type="curve" smooth="yes"/>
      <point x="659" y="596"/>
      <point x="632" y="659"/>
      <point x="576" y="699" type="curve" smooth="yes"/>
      <point x="532" y="730"/>
      <point x="476" y="747"/>
      <point x="383" y="747" type="curve" smooth="yes"/>
      <point x="48" y="747" type="line"/>
      <point x="48" y="722" type="line"/>
      <point x="384" y="722" type="line" smooth="yes"/>
      <point x="475" y="722"/>
      <point x="526" y="706"/>
      <point x="565" y="675" type="curve" smooth="yes"/>
      <point x="610" y="640"/>
      <point x="632" y="584"/>
      <point x="632" y="516" type="curve" smooth="yes"/>
      <point x="632" y="399"/>
      <point x="574" y="347"/>
      <point x="497" y="347" type="curve" smooth="yes"/>
      <point x="415" y="347"/>
      <point x="389" y="398"/>
      <point x="389" y="452" type="curve" smooth="yes"/>
      <point x="389" y="501"/>
      <point x="410" y="534"/>
      <point x="444" y="546" type="curve"/>
      <point x="430" y="541" type="line"/>
      <point x="430" y="520"/>
      <point x="439" y="509"/>
      <point x="456" y="509" type="curve" smooth="yes"/>
      <point x="470" y="509"/>
      <point x="482" y="515"/>
      <point x="482" y="536" type="curve" smooth="yes"/>
      <point x="482" y="552"/>
      <point x="473" y="566"/>
      <point x="446" y="566" type="curve" smooth="yes"/>
      <point x="408" y="566"/>
      <point x="363" y="528"/>
      <point x="363" y="452" type="curve" smooth="yes"/>
      <point x="363" y="391"/>
      <point x="395" y="321"/>
    </contour>
  </outline>
</glyph>
<glyph name="kaknda" format="2">
  <advance width="526"/>
  <unicode hex="0C95"/>
  <outline>
    <contour>
      <point x="261" y="-12" type="curve" smooth="yes"/>
      <point x="395" y="-12"/>
      <point x="462" y="60"/>
      <point x="462" y="169" type="curve" smooth="yes"/>
      <point x="462" y="285"/>
      <point x="387" y="337"/>
      <point x="318" y="357" type="curve"/>
      <point x="306" y="346" type="line"/>
      <point x="487" y="342" type="line"/>
      <point x="487" y="367" type="line"/>
      <point x="266" y="367" type="line"/>
      <point x="286" y="388"/>
      <point x="303" y="418"/>
      <point x="303" y="454" type="curve" smooth="yes"/>
      <point x="303" y="484"/>
      <point x="292" y="510"/>
      <point x="274" y="532" type="curve"/>
      <point x="260" y="535" type="line"/>
      <point x="246" y="532" type="line"/>
      <point x="267" y="508"/>
      <point x="277" y="485"/>
      <point x="277" y="454" type="curve" smooth="yes"/>
      <point x="277" y="419"/>
      <point x="263" y="395"/>
      <point x="236" y="367" type="curve"/>
      <point x="39" y="367" type="line"/>
      <point x="39" y="342" type="line"/>
      <point x="223" y="346" type="line"/>
      <point x="207" y="357" type="line"/>
      <point x="138" y="337"/>
      <point x="63" y="285"/>
      <point x="63" y="170" type="curve" smooth="yes"/>
      <point x="63" y="45"/>
      <point x="147" y="-12"/>
    </contour>
    <contour>
      <point x="263" y="14" type="curve" smooth="yes"/>
      <point x="154" y="14"/>
      <point x="90" y="64"/>
      <point x="90" y="170" type="curve" smooth="yes"/>
      <point x="90" y="261"/>
      <point x="150" y="345"/>
      <point x="263" y="345" type="curve" smooth="yes"/>
      <point x="376" y="345"/>
      <point x="435" y="261"/>
      <point x="435" y="169" type="curve" smooth="yes"/>
      <point x="435" y="64"/>
      <point x="371" y="14"/>
    </contour>
    <contour>
      <point x="40" y="515" type="line"/>
      <point x="333" y="515" type="line" smooth="yes"/>
      <point x="387" y="515"/>
      <point x="434" y="519"/>
      <point x="465" y="547" type="curve" smooth="yes"/>
      <point x="484" y="564"/>
      <point x="495" y="590"/>
      <point x="495" y="631" type="curve" smooth="yes"/>
      <point x="495" y="678"/>
      <point x="476" y="721"/>
      <point x="427" y="778" type="curve"/>
      <point x="406" y="762" type="line"/>
      <point x="454" y="708"/>
      <point x="468" y="668"/>
      <point x="468" y="631" type="curve" smooth="yes"/>
      <point x="468" y="599"/>
      <point x="460" y="578"/>
      <point x="445" y="564" type="curve" smooth="yes"/>
      <point x="423" y="544"/>
      <point x="389" y="540"/>
      <point x="321" y="540" type="curve" smooth="yes"/>
      <point x="40" y="540" type="line"/>
    </contour>
  </outline>
</glyph>
<glyph name="khaknda" format="2">
  <advance width="800"/>
  <unicode hex="0C96"/>
  <outline>
    <contour>
      <point x="572" y="-12" type="curve" smooth="yes"/>
      <point x="703" y="-12"/>
      <point x="756" y="79"/>
      <point x="756" y="220" type="curve" smooth="yes"/>
      <point x="756" y="412"/>
      <point x="634" y="534"/>
      <point x="453" y="618" type="curve"/>
      <point x="441" y="595" type="line"/>
      <point x="612" y="514"/>
      <point x="729" y="404"/>
      <point x="729" y="220" type="curve" smooth="yes"/>
      <point x="729" y="81"/>
      <point x="681" y="14"/>
      <point x="572" y="14" type="curve" smooth="yes"/>
      <point x="496" y="14"/>
      <point x="432" y="65"/>
      <point x="370" y="118" type="curve" smooth="yes"/>
      <point x="361" y="125" type="line" smooth="yes"/>
      <point x="298" y="179"/>
      <point x="237" y="231"/>
      <point x="159" y="231" type="curve" smooth="yes"/>
      <point x="75" y="231"/>
      <point x="31" y="178"/>
      <point x="31" y="113" type="curve" smooth="yes"/>
      <point x="31" y="34"/>
      <point x="85" y="-12"/>
      <point x="169" y="-12" type="curve" smooth="yes"/>
      <point x="265" y="-12"/>
      <point x="331" y="32"/>
      <point x="370" y="103" type="curve"/>
      <point x="402" y="157"/>
      <point x="416" y="225"/>
      <point x="416" y="297" type="curve" smooth="yes"/>
      <point x="416" y="442"/>
      <point x="346" y="552"/>
      <point x="226" y="552" type="curve" smooth="yes"/>
      <point x="152" y="552"/>
      <point x="88" y="505"/>
      <point x="88" y="417" type="curve" smooth="yes"/>
      <point x="88" y="352"/>
      <point x="125" y="314"/>
      <point x="167" y="314" type="curve" smooth="yes"/>
      <point x="186" y="314"/>
      <point x="201" y="322"/>
      <point x="201" y="342" type="curve" smooth="yes"/>
      <point x="201" y="358"/>
      <point x="193" y="367"/>
      <point x="177" y="367" type="curve" smooth="yes"/>
      <point x="160" y="367"/>
      <point x="152" y="354"/>
      <point x="152" y="335" type="curve"/>
      <point x="167" y="335" type="line"/>
      <point x="129" y="346"/>
      <point x="115" y="380"/>
      <point x="115" y="417" type="curve" smooth="yes"/>
      <point x="115" y="483"/>
      <point x="156" y="526"/>
      <point x="225" y="526" type="curve" smooth="yes"/>
      <point x="325" y="526"/>
      <point x="389" y="438"/>
      <point x="389" y="295" type="curve" smooth="yes"/>
      <point x="389" y="150"/>
      <point x="329" y="14"/>
      <point x="168" y="14" type="curve" smooth="yes"/>
      <point x="86" y="14"/>
      <point x="58" y="60"/>
      <point x="58" y="113" type="curve" smooth="yes"/>
      <point x="58" y="174"/>
      <point x="97" y="205"/>
      <point x="160" y="205" type="curve" smooth="yes"/>
      <point x="230" y="205"/>
      <point x="288" y="155"/>
      <point x="349" y="104" type="curve" smooth="yes"/>
      <point x="351" y="102"/>
      <point x="354" y="100"/>
      <point x="356" y="98" type="curve" smooth="yes"/>
      <point x="425" y="39"/>
      <point x="488" y="-12"/>
    </contour>
  </outline>
</glyph>
<glyph name="gaknda" format="2">
  <advance width="602"/>
  <unicode hex="0C97"/>
  <outline>
    <contour>
      <point x="301" y="518" type="curve" smooth="yes"/>
      <point x="376" y="518"/>
      <point x="435" y="473"/>
      <point x="474" y="391" type="curve" smooth="yes"/>
      <point x="504" y="327"/>
      <point x="515" y="257"/>
      <point x="515" y="112" type="curve" smooth="yes"/>
      <point x="515" y="0" type="line"/>
      <point x="541" y="0" type="line"/>
      <point x="541" y="130" type="line" smooth="yes"/>
      <point x="541" y="314"/>
      <point x="520" y="459"/>
      <point x="371" y="523" type="curve"/>
      <point x="376" y="515" type="line"/>
      <point x="476" y="515"/>
      <point x="541" y="531"/>
      <point x="541" y="631" type="curve" smooth="yes"/>
      <point x="541" y="678"/>
      <point x="522" y="721"/>
      <point x="473" y="778" type="curve"/>
      <point x="452" y="762" type="line"/>
      <point x="500" y="708"/>
      <point x="514" y="668"/>
      <point x="514" y="631" type="curve" smooth="yes"/>
      <point x="514" y="599"/>
      <point x="506" y="578"/>
      <point x="491" y="564" type="curve" smooth="yes"/>
      <point x="469" y="544"/>
      <point x="435" y="540"/>
      <point x="367" y="540" type="curve" smooth="yes"/>
      <point x="57" y="540" type="line"/>
      <point x="57" y="515" type="line"/>
      <point x="245" y="515" type="line"/>
      <point x="231" y="523" type="line"/>
      <point x="82" y="459"/>
      <point x="61" y="308"/>
      <point x="61" y="131" type="curve" smooth="yes"/>
      <point x="61" y="0" type="line"/>
      <point x="87" y="0" type="line"/>
      <point x="87" y="124" type="line" smooth="yes"/>
      <point x="87" y="257"/>
      <point x="98" y="327"/>
      <point x="128" y="391" type="curve" smooth="yes"/>
      <point x="167" y="473"/>
      <point x="226" y="518"/>
    </contour>
  </outline>
</glyph>
<glyph name="ngaknda" format="2">
  <advance width="726"/>
  <unicode hex="0C99"/>
  <outline>
    <contour>
      <point x="536" y="-12" type="curve" smooth="yes"/>
      <point x="641" y="-12"/>
      <point x="690" y="56"/>
      <point x="690" y="133" type="curve" smooth="yes"/>
      <point x="690" y="193"/>
      <point x="666" y="241"/>
      <point x="631" y="282" type="curve"/>
      <point x="609" y="267" type="line"/>
      <point x="644" y="226"/>
      <point x="663" y="188"/>
      <point x="663" y="134" type="curve" smooth="yes"/>
      <point x="663" y="68"/>
      <point x="627" y="14"/>
      <point x="535" y="14" type="curve" smooth="yes"/>
      <point x="442" y="14"/>
      <point x="396" y="61"/>
      <point x="384" y="178" type="curve"/>
      <point x="360" y="178" type="line"/>
      <point x="349" y="68"/>
      <point x="299" y="14"/>
      <point x="200" y="14" type="curve" smooth="yes"/>
      <point x="135" y="14"/>
      <point x="83" y="49"/>
      <point x="83" y="124" type="curve" smooth="yes"/>
      <point x="83" y="190"/>
      <point x="119" y="226"/>
      <point x="191" y="273" type="curve" smooth="yes"/>
      <point x="262" y="319"/>
      <point x="296" y="358"/>
      <point x="296" y="427" type="curve" smooth="yes"/>
      <point x="296" y="486"/>
      <point x="267" y="552"/>
      <point x="165" y="552" type="curve" smooth="yes"/>
      <point x="78" y="552"/>
      <point x="33" y="497"/>
      <point x="33" y="433" type="curve" smooth="yes"/>
      <point x="33" y="402"/>
      <point x="41" y="378"/>
      <point x="62" y="342" type="curve"/>
      <point x="85" y="354" type="line"/>
      <point x="70" y="379"/>
      <point x="60" y="403"/>
      <point x="60" y="433" type="curve" smooth="yes"/>
      <point x="60" y="490"/>
      <point x="98" y="526"/>
      <point x="165" y="526" type="curve" smooth="yes"/>
      <point x="248" y="526"/>
      <point x="271" y="476"/>
      <point x="271" y="427" type="curve" smooth="yes"/>
      <point x="271" y="371"/>
      <point x="244" y="339"/>
      <point x="175" y="294" type="curve" smooth="yes"/>
      <point x="101" y="246"/>
      <point x="56" y="200"/>
      <point x="56" y="124" type="curve" smooth="yes"/>
      <point x="56" y="50"/>
      <point x="105" y="-12"/>
      <point x="201" y="-12" type="curve" smooth="yes"/>
      <point x="309" y="-12"/>
      <point x="355" y="44"/>
      <point x="375" y="133" type="curve"/>
      <point x="370" y="132" type="line"/>
      <point x="387" y="36"/>
      <point x="437" y="-12"/>
    </contour>
    <contour>
      <point x="404" y="277" type="curve" smooth="yes"/>
      <point x="423" y="277"/>
      <point x="436" y="289"/>
      <point x="436" y="317" type="curve" smooth="yes"/>
      <point x="436" y="342"/>
      <point x="425" y="357"/>
      <point x="404" y="357" type="curve" smooth="yes"/>
      <point x="384" y="357"/>
      <point x="371" y="343"/>
      <point x="371" y="317" type="curve" smooth="yes"/>
      <point x="371" y="290"/>
      <point x="386" y="277"/>
    </contour>
    <contour>
      <point x="506" y="552" type="curve" smooth="yes"/>
      <point x="394" y="552"/>
      <point x="322" y="470"/>
      <point x="279" y="414" type="curve"/>
      <point x="273" y="392" type="line"/>
      <point x="284" y="388" type="line"/>
      <point x="371" y="494"/>
      <point x="436" y="526"/>
      <point x="506" y="526" type="curve" smooth="yes"/>
      <point x="586" y="526"/>
      <point x="621" y="488"/>
      <point x="621" y="428" type="curve" smooth="yes"/>
      <point x="621" y="398"/>
      <point x="614" y="371"/>
      <point x="604" y="349" type="curve"/>
      <point x="630" y="342" type="line"/>
      <point x="640" y="366"/>
      <point x="648" y="395"/>
      <point x="648" y="427" type="curve" smooth="yes"/>
      <point x="648" y="507"/>
      <point x="593" y="552"/>
    </contour>
  </outline>
</glyph>
<glyph name="chaknda" format="2">
  <advance width="767"/>
  <unicode hex="0C9B"/>
  <outline>
    <contour>
      <point x="231" y="-12" type="curve" smooth="yes"/>
      <point x="325" y="-12"/>
      <point x="374" y="44"/>
      <point x="394" y="136" type="curve"/>
      <point x="388" y="132" type="line"/>
      <point x="409" y="40"/>
      <point x="455" y="-12"/>
      <point x="548" y="-12" type="curve" smooth="yes"/>
      <point x="648" y="-12"/>
      <point x="720" y="60"/>
      <point x="720" y="209" type="curve" smooth="yes"/>
      <point x="720" y="351"/>
      <point x="645" y="462"/>
      <point x="512" y="522" type="curve"/>
      <point x="475" y="520" type="line"/>
      <point x="633" y="443"/>
      <point x="693" y="335"/>
      <point x="693" y="208" type="curve" smooth="yes"/>
      <point x="693" y="71"/>
      <point x="633" y="14"/>
      <point x="545" y="14" type="curve" smooth="yes"/>
      <point x="461" y="14"/>
      <point x="417" y="64"/>
      <point x="403" y="178" type="curve"/>
      <point x="379" y="178" type="line"/>
      <point x="364" y="66"/>
      <point x="319" y="14"/>
      <point x="231" y="14" type="curve" smooth="yes"/>
      <point x="160" y="14"/>
      <point x="75" y="46"/>
      <point x="75" y="248" type="curve" smooth="yes"/>
      <point x="75" y="426"/>
      <point x="144" y="526"/>
      <point x="239" y="526" type="curve" smooth="yes"/>
      <point x="298" y="526"/>
      <point x="327" y="488"/>
      <point x="327" y="436" type="curve" smooth="yes"/>
      <point x="327" y="378"/>
      <point x="293" y="335"/>
      <point x="207" y="335" type="curve" smooth="yes"/>
      <point x="151" y="335"/>
      <point x="109" y="361"/>
      <point x="83" y="390" type="curve"/>
      <point x="77" y="362" type="line"/>
      <point x="95" y="340"/>
      <point x="147" y="309"/>
      <point x="207" y="309" type="curve" smooth="yes"/>
      <point x="312" y="309"/>
      <point x="354" y="369"/>
      <point x="354" y="437" type="curve" smooth="yes"/>
      <point x="354" y="506"/>
      <point x="307" y="552"/>
      <point x="241" y="552" type="curve" smooth="yes"/>
      <point x="129" y="552"/>
      <point x="48" y="441"/>
      <point x="48" y="248" type="curve" smooth="yes"/>
      <point x="48" y="37"/>
      <point x="143" y="-12"/>
    </contour>
    <contour>
      <point x="376" y="-144" type="line"/>
      <point x="408" y="-144" type="line"/>
      <point x="404" y="34" type="line"/>
      <point x="380" y="34" type="line"/>
    </contour>
    <contour>
      <point x="425" y="515" type="line"/>
      <point x="548" y="515" type="line" smooth="yes"/>
      <point x="605" y="515"/>
      <point x="652" y="519"/>
      <point x="683" y="547" type="curve" smooth="yes"/>
      <point x="702" y="564"/>
      <point x="713" y="590"/>
      <point x="713" y="631" type="curve" smooth="yes"/>
      <point x="713" y="678"/>
      <point x="694" y="721"/>
      <point x="645" y="778" type="curve"/>
      <point x="624" y="762" type="line"/>
      <point x="672" y="708"/>
      <point x="686" y="668"/>
      <point x="686" y="631" type="curve" smooth="yes"/>
      <point x="686" y="599"/>
      <point x="678" y="578"/>
      <point x="663" y="564" type="curve" smooth="yes"/>
      <point x="641" y="544"/>
      <point x="607" y="540"/>
      <point x="539" y="540" type="curve" smooth="yes"/>
      <point x="425" y="540" type="line"/>
    </contour>
  </outline>
</glyph>
<glyph name="jaknda" format="2">
  <advance width="726"/>
  <unicode hex="0C9C"/>
  <outline>
    <contour>
      <point x="536" y="-12" type="curve" smooth="yes"/>
      <point x="641" y="-12"/>
      <point x="690" y="56"/>
      <point x="690" y="133" type="curve" smooth="yes"/>
      <point x="690" y="193"/>
      <point x="666" y="241"/>
      <point x="631" y="282" type="curve"/>
      <point x="609" y="267" type="line"/>
      <point x="644" y="226"/>
      <point x="663" y="188"/>
      <point x="663" y="134" type="curve" smooth="yes"/>
      <point x="663" y="68"/>
      <point x="627" y="14"/>
      <point x="535" y="14" type="curve" smooth="yes"/>
      <point x="442" y="14"/>
      <point x="396" y="61"/>
      <point x="384" y="178" type="curve"/>
      <point x="360" y="178" type="line"/>
      <point x="349" y="68"/>
      <point x="299" y="14"/>
      <point x="200" y="14" type="curve" smooth="yes"/>
      <point x="135" y="14"/>
      <point x="83" y="49"/>
      <point x="83" y="124" type="curve" smooth="yes"/>
      <point x="83" y="190"/>
      <point x="119" y="226"/>
      <point x="191" y="273" type="curve" smooth="yes"/>
      <point x="262" y="319"/>
      <point x="296" y="358"/>
      <point x="296" y="427" type="curve" smooth="yes"/>
      <point x="296" y="486"/>
      <point x="267" y="552"/>
      <point x="165" y="552" type="curve" smooth="yes"/>
      <point x="78" y="552"/>
      <point x="33" y="497"/>
      <point x="33" y="433" type="curve" smooth="yes"/>
      <point x="33" y="402"/>
      <point x="41" y="378"/>
      <point x="62" y="342" type="curve"/>
      <point x="85" y="354" type="line"/>
      <point x="70" y="379"/>
      <point x="60" y="403"/>
      <point x="60" y="433" type="curve" smooth="yes"/>
      <point x="60" y="490"/>
      <point x="98" y="526"/>
      <point x="165" y="526" type="curve" smooth="yes"/>
      <point x="248" y="526"/>
      <point x="271" y="476"/>
      <point x="271" y="427" type="curve" smooth="yes"/>
      <point x="271" y="371"/>
      <point x="244" y="339"/>
      <point x="175" y="294" type="curve" smooth="yes"/>
      <point x="101" y="246"/>
      <point x="56" y="200"/>
      <point x="56" y="124" type="curve" smooth="yes"/>
      <point x="56" y="50"/>
      <point x="105" y="-12"/>
      <point x="201" y="-12" type="curve" smooth="yes"/>
      <point x="309" y="-12"/>
      <point x="355" y="44"/>
      <point x="375" y="133" type="curve"/>
      <point x="370" y="132" type="line"/>
      <point x="387" y="36"/>
      <point x="437" y="-12"/>
    </contour>
    <contour>
      <point x="484" y="331" type="curve" smooth="yes"/>
      <point x="573" y="331"/>
      <point x="627" y="376"/>
      <point x="627" y="456" type="curve" smooth="yes"/>
      <point x="627" y="493"/>
      <point x="617" y="527"/>
      <point x="604" y="552" type="curve"/>
      <point x="579" y="543" type="line"/>
      <point x="591" y="520"/>
      <point x="600" y="489"/>
      <point x="600" y="456" type="curve" smooth="yes"/>
      <point x="600" y="395"/>
      <point x="565" y="357"/>
      <point x="484" y="357" type="curve" smooth="yes"/>
      <point x="415" y="357"/>
      <point x="345" y="390"/>
      <point x="273" y="502" type="curve"/>
      <point x="258" y="491" type="line"/>
      <point x="270" y="476" type="line"/>
      <point x="303" y="411"/>
      <point x="372" y="331"/>
    </contour>
  </outline>
</glyph>
<glyph name="nyaknda" format="2">
  <advance width="898"/>
  <unicode hex="0C9E"/>
  <outline>
    <contour>
      <point x="288" y="-12" type="curve" smooth="yes"/>
      <point x="392" y="-12"/>
      <point x="467" y="23"/>
      <point x="522" y="82" type="curve" smooth="yes"/>
      <point x="528" y="89" type="line" smooth="yes"/>
      <point x="580" y="148"/>
      <point x="609" y="227"/>
      <point x="609" y="319" type="curve" smooth="yes"/>
      <point x="609" y="347"/>
      <point x="607" y="372"/>
      <point x="603" y="395" type="curve" smooth="yes"/>
      <point x="602" y="401"/>
      <point x="599" y="405"/>
      <point x="598" y="410" type="curve" smooth="yes"/>
      <point x="578" y="509"/>
      <point x="519" y="552"/>
      <point x="448" y="552" type="curve" smooth="yes"/>
      <point x="379" y="552"/>
      <point x="323" y="507"/>
      <point x="303" y="402" type="curve"/>
      <point x="307" y="402" type="line"/>
      <point x="291" y="490"/>
      <point x="249" y="552"/>
      <point x="160" y="552" type="curve" smooth="yes"/>
      <point x="84" y="552"/>
      <point x="33" y="503"/>
      <point x="33" y="429" type="curve" smooth="yes"/>
      <point x="33" y="395"/>
      <point x="42" y="364"/>
      <point x="56" y="332" type="curve"/>
      <point x="81" y="340" type="line"/>
      <point x="68" y="368"/>
      <point x="60" y="395"/>
      <point x="60" y="429" type="curve" smooth="yes"/>
      <point x="60" y="490"/>
      <point x="96" y="526"/>
      <point x="160" y="526" type="curve" smooth="yes"/>
      <point x="241" y="526"/>
      <point x="278" y="465"/>
      <point x="293" y="368" type="curve"/>
      <point x="317" y="368" type="line"/>
      <point x="334" y="465"/>
      <point x="374" y="526"/>
      <point x="448" y="526" type="curve" smooth="yes"/>
      <point x="524" y="526"/>
      <point x="582" y="468"/>
      <point x="582" y="318" type="curve" smooth="yes"/>
      <point x="582" y="181"/>
      <point x="508" y="14"/>
      <point x="288" y="14" type="curve" smooth="yes"/>
      <point x="202" y="14"/>
      <point x="153" y="59"/>
      <point x="153" y="133" type="curve" smooth="yes"/>
      <point x="153" y="195"/>
      <point x="198" y="238"/>
      <point x="284" y="238" type="curve" smooth="yes"/>
      <point x="433" y="238"/>
      <point x="515" y="118"/>
      <point x="560" y="-51" type="curve"/>
      <point x="586" y="-46" type="line"/>
      <point x="572" y="9"/>
      <point x="553" y="59"/>
      <point x="526" y="106" type="curve"/>
      <point x="475" y="199"/>
      <point x="399" y="264"/>
      <point x="283" y="264" type="curve" smooth="yes"/>
      <point x="184" y="264"/>
      <point x="126" y="206"/>
      <point x="126" y="134" type="curve" smooth="yes"/>
      <point x="126" y="48"/>
      <point x="185" y="-12"/>
    </contour>
    <contour>
      <point x="739" y="552" type="curve" smooth="yes"/>
      <point x="648" y="552"/>
      <point x="607" y="490"/>
      <point x="589" y="404" type="curve"/>
      <point x="605" y="371" type="line"/>
      <point x="622" y="467"/>
      <point x="657" y="526"/>
      <point x="739" y="526" type="curve" smooth="yes"/>
      <point x="802" y="526"/>
      <point x="838" y="490"/>
      <point x="838" y="429" type="curve" smooth="yes"/>
      <point x="838" y="395"/>
      <point x="830" y="368"/>
      <point x="817" y="340" type="curve"/>
      <point x="842" y="332" type="line"/>
      <point x="856" y="364"/>
      <point x="865" y="395"/>
      <point x="865" y="429" type="curve" smooth="yes"/>
      <point x="865" y="503"/>
      <point x="814" y="552"/>
    </contour>
  </outline>
</glyph>
<glyph name="tthaknda" format="2">
  <advance width="612"/>
  <unicode hex="0CA0"/>
  <outline>
    <contour>
      <point x="306" y="-12" type="curve" smooth="yes"/>
      <point x="479" y="-12"/>
      <point x="565" y="100"/>
      <point x="565" y="259" type="curve" smooth="yes"/>
      <point x="565" y="382"/>
      <point x="512" y="482"/>
      <point x="392" y="522" type="curve"/>
      <point x="400" y="515" type="line"/>
      <point x="457" y="515"/>
      <point x="504" y="519"/>
      <point x="535" y="547" type="curve" smooth="yes"/>
      <point x="554" y="564"/>
      <point x="565" y="590"/>
      <point x="565" y="631" type="curve" smooth="yes"/>
      <point x="565" y="678"/>
      <point x="546" y="721"/>
      <point x="497" y="778" type="curve"/>
      <point x="476" y="762" type="line"/>
      <point x="524" y="708"/>
      <point x="538" y="668"/>
      <point x="538" y="631" type="curve" smooth="yes"/>
      <point x="538" y="599"/>
      <point x="530" y="578"/>
      <point x="515" y="564" type="curve" smooth="yes"/>
      <point x="493" y="544"/>
      <point x="459" y="540"/>
      <point x="391" y="540" type="curve" smooth="yes"/>
      <point x="47" y="540" type="line"/>
      <point x="47" y="515" type="line"/>
      <point x="239" y="515" type="line"/>
      <point x="225" y="521" type="line"/>
      <point x="99" y="487"/>
      <point x="47" y="381"/>
      <point x="47" y="260" type="curve" smooth="yes"/>
      <point x="47" y="81"/>
      <point x="153" y="-12"/>
    </contour>
    <contour>
      <point x="307" y="14" type="curve" smooth="yes"/>
      <point x="163" y="14"/>
      <point x="75" y="96"/>
      <point x="75" y="260" type="curve" smooth="yes"/>
      <point x="75" y="413"/>
      <point x="168" y="518"/>
      <point x="308" y="518" type="curve" smooth="yes"/>
      <point x="438" y="518"/>
      <point x="537" y="417"/>
      <point x="537" y="259" type="curve" smooth="yes"/>
      <point x="537" y="114"/>
      <point x="466" y="14"/>
    </contour>
    <contour>
      <point x="307" y="230" type="curve" smooth="yes"/>
      <point x="326" y="230"/>
      <point x="339" y="242"/>
      <point x="339" y="270" type="curve" smooth="yes"/>
      <point x="339" y="295"/>
      <point x="328" y="310"/>
      <point x="307" y="310" type="curve" smooth="yes"/>
      <point x="287" y="310"/>
      <point x="274" y="296"/>
      <point x="274" y="270" type="curve" smooth="yes"/>
      <point x="274" y="243"/>
      <point x="289" y="230"/>
    </contour>
  </outline>
</glyph>
<glyph name="daknda" format="2">
  <advance width="723"/>
  <unicode hex="0CA6"/>
  <outline>
    <contour>
      <point x="208" y="-12" type="curve" smooth="yes"/>
      <point x="298" y="-12"/>
      <point x="345" y="39"/>
      <point x="364" y="132" type="curve"/>
      <point x="359" y="132" type="line"/>
      <point x="378" y="39"/>
      <point x="425" y="-12"/>
      <point x="515" y="-12" type="curve" smooth="yes"/>
      <point x="607" y="-12"/>
      <point x="675" y="61"/>
      <point x="675" y="214" type="curve" smooth="yes"/>
      <point x="675" y="368"/>
      <point x="602" y="495"/>
      <point x="450" y="523" type="curve"/>
      <point x="467" y="515" type="line"/>
      <point x="577" y="515"/>
      <point x="614" y="519"/>
      <point x="645" y="547" type="curve" smooth="yes"/>
      <point x="664" y="564"/>
      <point x="675" y="590"/>
      <point x="675" y="631" type="curve" smooth="yes"/>
      <point x="675" y="678"/>
      <point x="656" y="721"/>
      <point x="607" y="778" type="curve"/>
      <point x="586" y="762" type="line"/>
      <point x="634" y="708"/>
      <point x="648" y="668"/>
      <point x="648" y="631" type="curve" smooth="yes"/>
      <point x="648" y="599"/>
      <point x="640" y="578"/>
      <point x="625" y="564" type="curve" smooth="yes"/>
      <point x="603" y="544"/>
      <point x="569" y="540"/>
      <point x="501" y="540" type="curve" smooth="yes"/>
      <point x="48" y="540" type="line"/>
      <point x="48" y="515" type="line"/>
      <point x="278" y="515" type="line"/>
      <point x="273" y="523" type="line"/>
      <point x="122" y="496"/>
      <point x="48" y="368"/>
      <point x="48" y="214" type="curve" smooth="yes"/>
      <point x="48" y="61"/>
      <point x="116" y="-12"/>
    </contour>
    <contour>
      <point x="210" y="14" type="curve" smooth="yes"/>
      <point x="125" y="14"/>
      <point x="75" y="79"/>
      <point x="75" y="213" type="curve" smooth="yes"/>
      <point x="75" y="382"/>
      <point x="169" y="518"/>
      <point x="357" y="518" type="curve" smooth="yes"/>
      <point x="366" y="518" type="line" smooth="yes"/>
      <point x="554" y="518"/>
      <point x="648" y="381"/>
      <point x="648" y="212" type="curve" smooth="yes"/>
      <point x="648" y="79"/>
      <point x="598" y="14"/>
      <point x="513" y="14" type="curve" smooth="yes"/>
      <point x="431" y="14"/>
      <point x="385" y="61"/>
      <point x="373" y="178" type="curve"/>
      <point x="349" y="178" type="line"/>
      <point x="338" y="61"/>
      <point x="292" y="14"/>
    </contour>
  </outline>
</glyph>
<glyph name="naknda" format="2">
  <advance width="665"/>
  <unicode hex="0CA8"/>
  <outline>
    <contour>
      <point x="472" y="-12" type="curve" smooth="yes"/>
      <point x="568" y="-12"/>
      <point x="618" y="68"/>
      <point x="618" y="185" type="curve" smooth="yes"/>
      <point x="618" y="351"/>
      <point x="519" y="473"/>
      <point x="379" y="520" type="curve"/>
      <point x="376" y="515" type="line"/>
      <point x="453" y="515" type="line" smooth="yes"/>
      <point x="510" y="515"/>
      <point x="557" y="519"/>
      <point x="588" y="547" type="curve" smooth="yes"/>
      <point x="607" y="564"/>
      <point x="618" y="590"/>
      <point x="618" y="631" type="curve" smooth="yes"/>
      <point x="618" y="678"/>
      <point x="599" y="721"/>
      <point x="550" y="778" type="curve"/>
      <point x="529" y="762" type="line"/>
      <point x="577" y="708"/>
      <point x="591" y="668"/>
      <point x="591" y="631" type="curve" smooth="yes"/>
      <point x="591" y="599"/>
      <point x="583" y="578"/>
      <point x="568" y="564" type="curve" smooth="yes"/>
      <point x="546" y="544"/>
      <point x="512" y="540"/>
      <point x="444" y="540" type="curve" smooth="yes"/>
      <point x="41" y="540" type="line"/>
      <point x="41" y="515" type="line"/>
      <point x="335" y="515" type="line"/>
      <point x="491" y="470"/>
      <point x="591" y="341"/>
      <point x="591" y="186" type="curve" smooth="yes"/>
      <point x="591" y="75"/>
      <point x="549" y="14"/>
      <point x="472" y="14" type="curve" smooth="yes"/>
      <point x="388" y="14"/>
      <point x="362" y="62"/>
      <point x="311" y="156" type="curve" smooth="yes"/>
      <point x="265" y="241"/>
      <point x="229" y="287"/>
      <point x="160" y="287" type="curve" smooth="yes"/>
      <point x="93" y="287"/>
      <point x="40" y="242"/>
      <point x="40" y="151" type="curve" smooth="yes"/>
      <point x="40" y="86"/>
      <point x="67" y="32"/>
      <point x="99" y="-15" type="curve"/>
      <point x="122" y="-1" type="line"/>
      <point x="87" y="46"/>
      <point x="66" y="98"/>
      <point x="66" y="150" type="curve" smooth="yes"/>
      <point x="66" y="233"/>
      <point x="110" y="261"/>
      <point x="161" y="261" type="curve" smooth="yes"/>
      <point x="210" y="261"/>
      <point x="240" y="232"/>
      <point x="288" y="144" type="curve" smooth="yes"/>
      <point x="343" y="42"/>
      <point x="375" y="-12"/>
    </contour>
  </outline>
</glyph>
<glyph name="baknda" format="2">
  <advance width="752"/>
  <unicode hex="0CAC"/>
  <outline>
    <contour>
      <point x="532" y="-12" type="curve" smooth="yes"/>
      <point x="643" y="-12"/>
      <point x="708" y="76"/>
      <point x="708" y="203" type="curve" smooth="yes"/>
      <point x="708" y="372"/>
      <point x="612" y="486"/>
      <point x="474" y="553" type="curve"/>
      <point x="462" y="529" type="line"/>
      <point x="601" y="465"/>
      <point x="681" y="353"/>
      <point x="681" y="204" type="curve" smooth="yes"/>
      <point x="681" y="75"/>
      <point x="619" y="14"/>
      <point x="532" y="14" type="curve" smooth="yes"/>
      <point x="442" y="14"/>
      <point x="396" y="61"/>
      <point x="384" y="178" type="curve"/>
      <point x="360" y="178" type="line"/>
      <point x="349" y="68"/>
      <point x="299" y="14"/>
      <point x="200" y="14" type="curve" smooth="yes"/>
      <point x="135" y="14"/>
      <point x="83" y="49"/>
      <point x="83" y="124" type="curve" smooth="yes"/>
      <point x="83" y="190"/>
      <point x="119" y="226"/>
      <point x="191" y="273" type="curve" smooth="yes"/>
      <point x="262" y="319"/>
      <point x="298" y="359"/>
      <point x="298" y="427" type="curve" smooth="yes"/>
      <point x="298" y="486"/>
      <point x="265" y="552"/>
      <point x="165" y="552" type="curve" smooth="yes"/>
      <point x="78" y="552"/>
      <point x="33" y="497"/>
      <point x="33" y="433" type="curve" smooth="yes"/>
      <point x="33" y="402"/>
      <point x="41" y="378"/>
      <point x="62" y="342" type="curve"/>
      <point x="85" y="354" type="line"/>
      <point x="70" y="379"/>
      <point x="60" y="403"/>
      <point x="60" y="433" type="curve" smooth="yes"/>
      <point x="60" y="490"/>
      <point x="98" y="526"/>
      <point x="165" y="526" type="curve" smooth="yes"/>
      <point x="248" y="526"/>
      <point x="271" y="476"/>
      <point x="271" y="427" type="curve" smooth="yes"/>
      <point x="271" y="371"/>
      <point x="244" y="339"/>
      <point x="175" y="294" type="curve" smooth="yes"/>
      <point x="101" y="246"/>
      <point x="56" y="200"/>
      <point x="56" y="124" type="curve" smooth="yes"/>
      <point x="56" y="50"/>
      <point x="105" y="-12"/>
      <point x="201" y="-12" type="curve" smooth="yes"/>
      <point x="309" y="-12"/>
      <point x="355" y="44"/>
      <point x="375" y="133" type="curve"/>
      <point x="370" y="132" type="line"/>
      <point x="387" y="36"/>
      <point x="437" y="-12"/>
    </contour>
  </outline>
</glyph>
<glyph name="yaknda" format="2">
  <advance width="1285"/>
  <unicode hex="0CAF"/>
  <outline>
    <contour>
      <point x="288" y="-12" type="curve" smooth="yes"/>
      <point x="448" y="-12"/>
      <point x="527" y="112"/>
      <point x="527" y="270" type="curve" smooth="yes"/>
      <point x="527" y="428"/>
      <point x="448" y="552"/>
      <point x="286" y="552" type="curve" smooth="yes"/>
      <point x="125" y="552"/>
      <point x="46" y="428"/>
      <point x="46" y="271" type="curve" smooth="yes"/>
      <point x="46" y="112"/>
      <point x="125" y="-12"/>
    </contour>
    <contour>
      <point x="286" y="14" type="curve" smooth="yes"/>
      <point x="140" y="14"/>
      <point x="73" y="124"/>
      <point x="73" y="271" type="curve" smooth="yes"/>
      <point x="73" y="416"/>
      <point x="140" y="526"/>
      <point x="286" y="526" type="curve" smooth="yes"/>
      <point x="433" y="526"/>
      <point x="500" y="416"/>
      <point x="500" y="270" type="curve" smooth="yes"/>
      <point x="500" y="124"/>
      <point x="433" y="14"/>
    </contour>
    <contour>
      <point x="700" y="-12" type="curve" smooth="yes"/>
      <point x="815" y="-12"/>
      <point x="880" y="76"/>
      <point x="880" y="203" type="curve" smooth="yes"/>
      <point x="880" y="351"/>
      <point x="803" y="477"/>
      <point x="653" y="527" type="curve"/>
      <point x="623" y="518" type="line"/>
      <point x="774" y="464"/>
      <point x="853" y="347"/>
      <point x="853" y="204" type="curve" smooth="yes"/>
      <point x="853" y="75"/>
      <point x="791" y="14"/>
      <point x="700" y="14" type="curve" smooth="yes"/>
      <point x="606" y="14"/>
      <point x="548" y="61"/>
      <point x="494" y="132" type="curve"/>
      <point x="481" y="110" type="line"/>
      <point x="535" y="41"/>
      <point x="598" y="-12"/>
    </contour>
    <contour>
      <point x="1061" y="-12" type="curve" smooth="yes"/>
      <point x="1176" y="-12"/>
      <point x="1241" y="76"/>
      <point x="1241" y="203" type="curve" smooth="yes"/>
      <point x="1241" y="372"/>
      <point x="1145" y="486"/>
      <point x="1007" y="553" type="curve"/>
      <point x="995" y="529" type="line"/>
      <point x="1134" y="465"/>
      <point x="1214" y="353"/>
      <point x="1214" y="204" type="curve" smooth="yes"/>
      <point x="1214" y="75"/>
      <point x="1152" y="14"/>
      <point x="1061" y="14" type="curve" smooth="yes"/>
      <point x="967" y="14"/>
      <point x="909" y="61"/>
      <point x="855" y="132" type="curve"/>
      <point x="842" y="110" type="line"/>
      <point x="896" y="41"/>
      <point x="959" y="-12"/>
    </contour>
    <contour>
      <point x="863" y="631" type="curve" smooth="yes"/>
      <point x="863" y="678"/>
      <point x="844" y="721"/>
      <point x="795" y="778" type="curve"/>
      <point x="774" y="762" type="line"/>
      <point x="822" y="708"/>
      <point x="836" y="668"/>
      <point x="836" y="631" type="curve" smooth="yes"/>
      <point x="836" y="599"/>
      <point x="828" y="578"/>
      <point x="813" y="564" type="curve" smooth="yes"/>
      <point x="791" y="544"/>
      <point x="757" y="540"/>
      <point x="689" y="540" type="curve" smooth="yes"/>
      <point x="563" y="540" type="line"/>
      <point x="563" y="515" type="line"/>
      <point x="701" y="515" type="line" smooth="yes"/>
      <point x="755" y="515"/>
      <point x="802" y="519"/>
      <point x="833" y="547" type="curve" smooth="yes"/>
      <point x="852" y="564"/>
      <point x="863" y="590"/>
    </contour>
  </outline>
</glyph>
<glyph name="rraknda" format="2">
  <advance width="795"/>
  <unicode hex="0CB1"/>
  <outline>
    <contour>
      <point x="234" y="-12" type="curve" smooth="yes"/>
      <point x="330" y="-12"/>
      <point x="380" y="44"/>
      <point x="400" y="136" type="curve"/>
      <point x="394" y="136" type="line"/>
      <point x="414" y="44"/>
      <point x="465" y="-12"/>
      <point x="561" y="-12" type="curve" smooth="yes"/>
      <point x="650" y="-12"/>
      <point x="747" y="37"/>
      <point x="747" y="248" type="curve" smooth="yes"/>
      <point x="747" y="441"/>
      <point x="666" y="552"/>
      <point x="554" y="552" type="curve" smooth="yes"/>
      <point x="488" y="552"/>
      <point x="441" y="506"/>
      <point x="441" y="437" type="curve" smooth="yes"/>
      <point x="441" y="388"/>
      <point x="462" y="345"/>
      <point x="517" y="328" type="curve"/>
      <point x="537" y="316"/>
      <point x="559" y="309"/>
      <point x="588" y="309" type="curve" smooth="yes"/>
      <point x="648" y="309"/>
      <point x="700" y="340"/>
      <point x="718" y="362" type="curve"/>
      <point x="712" y="390" type="line"/>
      <point x="686" y="361"/>
      <point x="644" y="335"/>
      <point x="588" y="335" type="curve" smooth="yes"/>
      <point x="502" y="335"/>
      <point x="468" y="378"/>
      <point x="468" y="436" type="curve" smooth="yes"/>
      <point x="468" y="488"/>
      <point x="497" y="526"/>
      <point x="556" y="526" type="curve" smooth="yes"/>
      <point x="651" y="526"/>
      <point x="720" y="426"/>
      <point x="720" y="248" type="curve" smooth="yes"/>
      <point x="720" y="46"/>
      <point x="633" y="14"/>
      <point x="561" y="14" type="curve" smooth="yes"/>
      <point x="471" y="14"/>
      <point x="424" y="66"/>
      <point x="409" y="178" type="curve"/>
      <point x="385" y="178" type="line"/>
      <point x="370" y="66"/>
      <point x="324" y="14"/>
      <point x="234" y="14" type="curve" smooth="yes"/>
      <point x="162" y="14"/>
      <point x="75" y="46"/>
      <point x="75" y="248" type="curve" smooth="yes"/>
      <point x="75" y="426"/>
      <point x="144" y="526"/>
      <point x="239" y="526" type="curve" smooth="yes"/>
      <point x="298" y="526"/>
      <point x="327" y="488"/>
      <point x="327" y="436" type="curve" smooth="yes"/>
      <point x="327" y="378"/>
      <point x="293" y="335"/>
      <point x="207" y="335" type="curve" smooth="yes"/>
      <point x="151" y="335"/>
      <point x="109" y="361"/>
      <point x="83" y="390" type="curve"/>
      <point x="77" y="362" type="line"/>
      <point x="95" y="340"/>
      <point x="147" y="309"/>
      <point x="207" y="309" type="curve" smooth="yes"/>
      <point x="234" y="309"/>
      <point x="259" y="316"/>
      <point x="277" y="327" type="curve"/>
      <point x="333" y="346"/>
      <point x="354" y="387"/>
      <point x="354" y="437" type="curve" smooth="yes"/>
      <point x="354" y="506"/>
      <point x="307" y="552"/>
      <point x="241" y="552" type="curve" smooth="yes"/>
      <point x="129" y="552"/>
      <point x="48" y="441"/>
      <point x="48" y="248" type="curve" smooth="yes"/>
      <point x="48" y="37"/>
      <point x="145" y="-12"/>
    </contour>
    <contour>
      <point x="207" y="309" type="line"/>
      <point x="588" y="309" type="line"/>
      <point x="588" y="321" type="line"/>
      <point x="550" y="326"/>
      <point x="483" y="334"/>
      <point x="438" y="334" type="curve" smooth="yes"/>
      <point x="356" y="334" type="line" smooth="yes"/>
      <point x="316" y="334"/>
      <point x="251" y="328"/>
      <point x="222" y="324" type="curve"/>
    </contour>
  </outline>
</glyph>
<glyph name="laknda" format="2">
  <advance width="708"/>
  <unicode hex="0CB2"/>
  <outline>
    <contour>
      <point x="361" y="-12" type="curve" smooth="yes"/>
      <point x="569" y="-12"/>
      <point x="664" y="114"/>
      <point x="664" y="267" type="curve" smooth="yes"/>
      <point x="664" y="406"/>
      <point x="600" y="493"/>
      <point x="494" y="553" type="curve"/>
      <point x="480" y="531" type="line"/>
      <point x="578" y="478"/>
      <point x="638" y="394"/>
      <point x="638" y="269" type="curve" smooth="yes"/>
      <point x="638" y="120"/>
      <point x="549" y="14"/>
      <point x="361" y="14" type="curve" smooth="yes"/>
      <point x="158" y="14"/>
      <point x="71" y="140"/>
      <point x="71" y="304" type="curve" smooth="yes"/>
      <point x="71" y="444"/>
      <point x="123" y="526"/>
      <point x="214" y="526" type="curve" smooth="yes"/>
      <point x="273" y="526"/>
      <point x="302" y="488"/>
      <point x="302" y="436" type="curve" smooth="yes"/>
      <point x="302" y="378"/>
      <point x="268" y="335"/>
      <point x="182" y="335" type="curve" smooth="yes"/>
      <point x="126" y="335"/>
      <point x="86" y="361"/>
      <point x="60" y="390" type="curve"/>
      <point x="56" y="363" type="line"/>
      <point x="74" y="341"/>
      <point x="122" y="309"/>
      <point x="182" y="309" type="curve" smooth="yes"/>
      <point x="287" y="309"/>
      <point x="329" y="369"/>
      <point x="329" y="437" type="curve" smooth="yes"/>
      <point x="329" y="506"/>
      <point x="282" y="552"/>
      <point x="216" y="552" type="curve" smooth="yes"/>
      <point x="120" y="552"/>
      <point x="44" y="473"/>
      <point x="44" y="303" type="curve" smooth="yes"/>
      <point x="44" y="121"/>
      <point x="149" y="-12"/>
    </contour>
  </outline>
</glyph>
<glyph name="llaknda" format="2">
  <advance width="656"/>
  <unicode hex="0CB3"/>
  <outline>
    <contour>
      <point x="339" y="-12" type="curve" smooth="yes"/>
      <point x="420" y="-12"/>
      <point x="469" y="30"/>
      <point x="469" y="94" type="curve" smooth="yes"/>
      <point x="469" y="149"/>
      <point x="433" y="182"/>
      <point x="381" y="195" type="curve"/>
      <point x="365" y="190" type="line"/>
      <point x="524" y="191"/>
      <point x="612" y="257"/>
      <point x="612" y="371" type="curve" smooth="yes"/>
      <point x="612" y="458"/>
      <point x="563" y="502"/>
      <point x="497" y="527" type="curve"/>
      <point x="500" y="517" type="line"/>
      <point x="581" y="524"/>
      <point x="616" y="558"/>
      <point x="616" y="631" type="curve" smooth="yes"/>
      <point x="616" y="678"/>
      <point x="597" y="721"/>
      <point x="548" y="778" type="curve"/>
      <point x="527" y="762" type="line"/>
      <point x="575" y="708"/>
      <point x="589" y="668"/>
      <point x="589" y="631" type="curve" smooth="yes"/>
      <point x="589" y="599"/>
      <point x="581" y="578"/>
      <point x="566" y="564" type="curve" smooth="yes"/>
      <point x="544" y="544"/>
      <point x="510" y="540"/>
      <point x="442" y="540" type="curve" smooth="yes"/>
      <point x="389" y="540" type="line"/>
      <point x="389" y="515" type="line"/>
      <point x="478" y="515" type="line"/>
      <point x="541" y="486"/>
      <point x="585" y="447"/>
      <point x="585" y="371" type="curve" smooth="yes"/>
      <point x="585" y="269"/>
      <point x="509" y="213"/>
      <point x="341" y="208" type="curve"/>
      <point x="142" y="220"/>
      <point x="63" y="291"/>
      <point x="63" y="390" type="curve" smooth="yes"/>
      <point x="63" y="477"/>
      <point x="112" y="526"/>
      <point x="184" y="526" type="curve" smooth="yes"/>
      <point x="247" y="526"/>
      <point x="278" y="491"/>
      <point x="278" y="447" type="curve" smooth="yes"/>
      <point x="278" y="386"/>
      <point x="242" y="356"/>
      <point x="161" y="356" type="curve" smooth="yes"/>
      <point x="119" y="356"/>
      <point x="82" y="369"/>
      <point x="48" y="392" type="curve"/>
      <point x="53" y="363" type="line"/>
      <point x="83" y="340"/>
      <point x="119" y="330"/>
      <point x="161" y="330" type="curve" smooth="yes"/>
      <point x="265" y="330"/>
      <point x="305" y="382"/>
      <point x="305" y="447" type="curve" smooth="yes"/>
      <point x="305" y="503"/>
      <point x="261" y="552"/>
      <point x="186" y="552" type="curve" smooth="yes"/>
      <point x="101" y="552"/>
      <point x="37" y="495"/>
      <point x="37" y="393" type="curve" smooth="yes"/>
      <point x="37" y="276"/>
      <point x="126" y="204"/>
      <point x="294" y="189" type="curve"/>
      <point x="291" y="193" type="line"/>
      <point x="248" y="181"/>
      <point x="209" y="145"/>
      <point x="209" y="93" type="curve" smooth="yes"/>
      <point x="209" y="25"/>
      <point x="266" y="-12"/>
    </contour>
    <contour>
      <point x="339" y="14" type="curve" smooth="yes"/>
      <point x="270" y="14"/>
      <point x="236" y="45"/>
      <point x="236" y="95" type="curve" smooth="yes"/>
      <point x="236" y="146"/>
      <point x="277" y="179"/>
      <point x="339" y="185" type="curve"/>
      <point x="399" y="177"/>
      <point x="442" y="145"/>
      <point x="442" y="96" type="curve" smooth="yes"/>
      <point x="442" y="38"/>
      <point x="401" y="14"/>
    </contour>
  </outline>
</glyph>
<glyph name="vaknda" format="2">
  <advance width="740"/>
  <unicode hex="0CB5"/>
  <outline>
    <contour>
      <point x="209" y="-12" type="curve" smooth="yes"/>
      <point x="316" y="-12"/>
      <point x="362" y="43"/>
      <point x="381" y="133" type="curve"/>
      <point x="376" y="132" type="line"/>
      <point x="395" y="39"/>
      <point x="442" y="-12"/>
      <point x="539" y="-12" type="curve" smooth="yes"/>
      <point x="643" y="-12"/>
      <point x="693" y="68"/>
      <point x="693" y="185" type="curve" smooth="yes"/>
      <point x="693" y="351"/>
      <point x="594" y="473"/>
      <point x="454" y="520" type="curve"/>
      <point x="410" y="515" type="line"/>
      <point x="566" y="470"/>
      <point x="666" y="341"/>
      <point x="666" y="186" type="curve" smooth="yes"/>
      <point x="666" y="75"/>
      <point x="624" y="14"/>
      <point x="535" y="14" type="curve" smooth="yes"/>
      <point x="449" y="14"/>
      <point x="403" y="61"/>
      <point x="391" y="178" type="curve"/>
      <point x="367" y="178" type="line"/>
      <point x="356" y="67"/>
      <point x="304" y="14"/>
      <point x="215" y="14" type="curve" smooth="yes"/>
      <point x="124" y="14"/>
      <point x="65" y="66"/>
      <point x="65" y="158" type="curve" smooth="yes"/>
      <point x="65" y="234"/>
      <point x="110" y="278"/>
      <point x="166" y="278" type="curve" smooth="yes"/>
      <point x="210" y="278"/>
      <point x="237" y="254"/>
      <point x="237" y="211" type="curve" smooth="yes"/>
      <point x="237" y="196"/>
      <point x="235" y="183"/>
      <point x="230" y="169" type="curve"/>
      <point x="257" y="167" type="line"/>
      <point x="262" y="182"/>
      <point x="264" y="200"/>
      <point x="264" y="212" type="curve" smooth="yes"/>
      <point x="264" y="269"/>
      <point x="221" y="304"/>
      <point x="167" y="304" type="curve" smooth="yes"/>
      <point x="88" y="304"/>
      <point x="38" y="238"/>
      <point x="38" y="157" type="curve" smooth="yes"/>
      <point x="38" y="57"/>
      <point x="108" y="-12"/>
    </contour>
    <contour>
      <point x="38" y="515" type="line"/>
      <point x="528" y="515" type="line" smooth="yes"/>
      <point x="585" y="515"/>
      <point x="632" y="519"/>
      <point x="663" y="547" type="curve" smooth="yes"/>
      <point x="682" y="564"/>
      <point x="693" y="590"/>
      <point x="693" y="631" type="curve" smooth="yes"/>
      <point x="693" y="678"/>
      <point x="674" y="721"/>
      <point x="625" y="778" type="curve"/>
      <point x="604" y="762" type="line"/>
      <point x="652" y="708"/>
      <point x="666" y="668"/>
      <point x="666" y="631" type="curve" smooth="yes"/>
      <point x="666" y="599"/>
      <point x="658" y="578"/>
      <point x="643" y="564" type="curve" smooth="yes"/>
      <point x="621" y="544"/>
      <point x="587" y="540"/>
      <point x="519" y="540" type="curve" smooth="yes"/>
      <point x="38" y="540" type="line"/>
    </contour>
  </outline>
</glyph>
<glyph name="shaknda" format="2">
  <advance width="580"/>
  <unicode hex="0CB6"/>
  <outline>
    <contour>
      <point x="244" y="-12" type="curve" smooth="yes"/>
      <point x="416" y="-12"/>
      <point x="534" y="79"/>
      <point x="534" y="257" type="curve" smooth="yes"/>
      <point x="534" y="378"/>
      <point x="475" y="470"/>
      <point x="359" y="527" type="curve"/>
      <point x="344" y="525" type="line"/>
      <point x="336" y="519" type="line"/>
      <point x="414" y="473"/>
      <point x="507" y="406"/>
      <point x="507" y="258" type="curve" smooth="yes"/>
      <point x="507" y="90"/>
      <point x="399" y="14"/>
      <point x="244" y="14" type="curve" smooth="yes"/>
      <point x="116" y="14"/>
      <point x="65" y="75"/>
      <point x="65" y="143" type="curve" smooth="yes"/>
      <point x="65" y="229"/>
      <point x="126" y="251"/>
      <point x="222" y="265" type="curve" smooth="yes"/>
      <point x="313" y="278"/>
      <point x="376" y="311"/>
      <point x="376" y="405" type="curve" smooth="yes"/>
      <point x="376" y="486"/>
      <point x="324" y="534"/>
      <point x="236" y="534" type="curve" smooth="yes"/>
      <point x="132" y="534"/>
      <point x="92" y="479"/>
      <point x="92" y="426" type="curve" smooth="yes"/>
      <point x="92" y="396"/>
      <point x="103" y="367"/>
      <point x="115" y="345" type="curve"/>
      <point x="138" y="355" type="line"/>
      <point x="128" y="374"/>
      <point x="119" y="394"/>
      <point x="119" y="423" type="curve" smooth="yes"/>
      <point x="119" y="467"/>
      <point x="144" y="518"/>
      <point x="235" y="518" type="curve" smooth="yes"/>
      <point x="319" y="518"/>
      <point x="350" y="464"/>
      <point x="350" y="407" type="curve" smooth="yes"/>
      <point x="350" y="323"/>
      <point x="297" y="301"/>
      <point x="218" y="290" type="curve" smooth="yes"/>
      <point x="110" y="275"/>
      <point x="38" y="240"/>
      <point x="38" y="143" type="curve" smooth="yes"/>
      <point x="38" y="57"/>
      <point x="109" y="-12"/>
    </contour>
    <contour>
      <point x="38" y="515" type="line"/>
      <point x="171" y="515" type="line"/>
      <point x="235" y="526" type="line"/>
      <point x="310" y="515" type="line"/>
      <point x="369" y="515" type="line" smooth="yes"/>
      <point x="426" y="515"/>
      <point x="473" y="519"/>
      <point x="504" y="547" type="curve" smooth="yes"/>
      <point x="523" y="564"/>
      <point x="534" y="590"/>
      <point x="534" y="631" type="curve" smooth="yes"/>
      <point x="534" y="678"/>
      <point x="515" y="721"/>
      <point x="466" y="778" type="curve"/>
      <point x="445" y="762" type="line"/>
      <point x="493" y="708"/>
      <point x="507" y="668"/>
      <point x="507" y="631" type="curve" smooth="yes"/>
      <point x="507" y="599"/>
      <point x="499" y="578"/>
      <point x="484" y="564" type="curve" smooth="yes"/>
      <point x="462" y="544"/>
      <point x="428" y="540"/>
      <point x="360" y="540" type="curve" smooth="yes"/>
      <point x="38" y="540" type="line"/>
    </contour>
  </outline>
</glyph>
<glyph name="saknda" format="2">
  <advance width="665"/>
  <unicode hex="0CB8"/>
  <outline>
    <contour>
      <point x="474" y="-12" type="curve" smooth="yes"/>
      <point x="573" y="-12"/>
      <point x="620" y="69"/>
      <point x="620" y="190" type="curve" smooth="yes"/>
      <point x="620" y="281"/>
      <point x="583" y="366"/>
      <point x="510" y="440" type="curve"/>
      <point x="490" y="423" type="line"/>
      <point x="564" y="351"/>
      <point x="593" y="263"/>
      <point x="593" y="190" type="curve" smooth="yes"/>
      <point x="593" y="75"/>
      <point x="553" y="14"/>
      <point x="474" y="14" type="curve" smooth="yes"/>
      <point x="390" y="14"/>
      <point x="364" y="62"/>
      <point x="313" y="156" type="curve" smooth="yes"/>
      <point x="267" y="241"/>
      <point x="231" y="287"/>
      <point x="162" y="287" type="curve" smooth="yes"/>
      <point x="95" y="287"/>
      <point x="42" y="242"/>
      <point x="42" y="151" type="curve" smooth="yes"/>
      <point x="42" y="86"/>
      <point x="69" y="32"/>
      <point x="101" y="-15" type="curve"/>
      <point x="124" y="-1" type="line"/>
      <point x="89" y="46"/>
      <point x="68" y="98"/>
      <point x="68" y="150" type="curve" smooth="yes"/>
      <point x="68" y="233"/>
      <point x="112" y="261"/>
      <point x="163" y="261" type="curve" smooth="yes"/>
      <point x="212" y="261"/>
      <point x="242" y="232"/>
      <point x="290" y="144" type="curve" smooth="yes"/>
      <point x="345" y="42"/>
      <point x="377" y="-12"/>
    </contour>
    <contour>
      <point x="311" y="360" type="curve" smooth="yes"/>
      <point x="330" y="360"/>
      <point x="343" y="372"/>
      <point x="343" y="400" type="curve" smooth="yes"/>
      <point x="343" y="424"/>
      <point x="332" y="440"/>
      <point x="311" y="440" type="curve" smooth="yes"/>
      <point x="291" y="440"/>
      <point x="278" y="426"/>
      <point x="278" y="400" type="curve" smooth="yes"/>
      <point x="278" y="373"/>
      <point x="293" y="360"/>
    </contour>
    <contour>
      <point x="40" y="515" type="line"/>
      <point x="455" y="515" type="line" smooth="yes"/>
      <point x="512" y="515"/>
      <point x="559" y="519"/>
      <point x="590" y="547" type="curve" smooth="yes"/>
      <point x="609" y="564"/>
      <point x="620" y="590"/>
      <point x="620" y="631" type="curve" smooth="yes"/>
      <point x="620" y="678"/>
      <point x="601" y="721"/>
      <point x="552" y="778" type="curve"/>
      <point x="531" y="762" type="line"/>
      <point x="579" y="708"/>
      <point x="593" y="668"/>
      <point x="593" y="631" type="curve" smooth="yes"/>
      <point x="593" y="599"/>
      <point x="585" y="578"/>
      <point x="570" y="564" type="curve" smooth="yes"/>
      <point x="548" y="544"/>
      <point x="514" y="540"/>
      <point x="446" y="540" type="curve" smooth="yes"/>
      <point x="40" y="540" type="line"/>
    </contour>
  </outline>
</glyph>
<glyph name="haknda" format="2">
  <advance width="754"/>
  <unicode hex="0CB9"/>
  <outline>
    <contour>
      <point x="210" y="-12" type="curve" smooth="yes"/>
      <point x="304" y="-12"/>
      <point x="364" y="34"/>
      <point x="381" y="130" type="curve"/>
      <point x="373" y="131" type="line"/>
      <point x="387" y="42"/>
      <point x="442" y="-12"/>
      <point x="543" y="-12" type="curve" smooth="yes"/>
      <point x="641" y="-12"/>
      <point x="714" y="58"/>
      <point x="714" y="177" type="curve" smooth="yes"/>
      <point x="714" y="292"/>
      <point x="649" y="367"/>
      <point x="538" y="367" type="curve" smooth="yes"/>
      <point x="458" y="367"/>
      <point x="405" y="329"/>
      <point x="381" y="244" type="curve"/>
      <point x="384" y="244" type="line"/>
      <point x="389" y="262"/>
      <point x="391" y="285"/>
      <point x="391" y="297" type="curve" smooth="yes"/>
      <point x="391" y="433"/>
      <point x="327" y="485"/>
      <point x="246" y="522" type="curve"/>
      <point x="191" y="524" type="line"/>
      <point x="297" y="487"/>
      <point x="366" y="423"/>
      <point x="366" y="297" type="curve" smooth="yes"/>
      <point x="366" y="281"/>
      <point x="366" y="265"/>
      <point x="365" y="242" type="curve"/>
      <point x="371" y="250" type="line"/>
      <point x="351" y="322"/>
      <point x="303" y="367"/>
      <point x="217" y="367" type="curve" smooth="yes"/>
      <point x="105" y="367"/>
      <point x="40" y="292"/>
      <point x="40" y="178" type="curve" smooth="yes"/>
      <point x="40" y="58"/>
      <point x="112" y="-12"/>
    </contour>
    <contour>
      <point x="211" y="14" type="curve" smooth="yes"/>
      <point x="123" y="14"/>
      <point x="67" y="73"/>
      <point x="67" y="178" type="curve" smooth="yes"/>
      <point x="67" y="269"/>
      <point x="110" y="341"/>
      <point x="217" y="341" type="curve" smooth="yes"/>
      <point x="313" y="341"/>
      <point x="364" y="275"/>
      <point x="364" y="177" type="curve" smooth="yes"/>
      <point x="364" y="82"/>
      <point x="317" y="14"/>
    </contour>
    <contour>
      <point x="541" y="14" type="curve" smooth="yes"/>
      <point x="436" y="14"/>
      <point x="390" y="82"/>
      <point x="390" y="177" type="curve" smooth="yes"/>
      <point x="390" y="276"/>
      <point x="442" y="341"/>
      <point x="538" y="341" type="curve" smooth="yes"/>
      <point x="644" y="341"/>
      <point x="687" y="269"/>
      <point x="687" y="177" type="curve" smooth="yes"/>
      <point x="687" y="73"/>
      <point x="631" y="14"/>
    </contour>
    <contour>
      <point x="41" y="515" type="line"/>
      <point x="549" y="515" type="line" smooth="yes"/>
      <point x="606" y="515"/>
      <point x="653" y="519"/>
      <point x="684" y="547" type="curve" smooth="yes"/>
      <point x="703" y="564"/>
      <point x="714" y="590"/>
      <point x="714" y="631" type="curve" smooth="yes"/>
      <point x="714" y="678"/>
      <point x="695" y="721"/>
      <point x="646" y="778" type="curve"/>
      <point x="625" y="762" type="line"/>
      <point x="673" y="708"/>
      <point x="687" y="668"/>
      <point x="687" y="631" type="curve" smooth="yes"/>
      <point x="687" y="599"/>
      <point x="679" y="578"/>
      <point x="664" y="564" type="curve" smooth="yes"/>
      <point x="642" y="544"/>
      <point x="608" y="540"/>
      <point x="540" y="540" type="curve" smooth="yes"/>
      <point x="41" y="540" type="line"/>
    </contour>
  </outline>
</glyph>
<glyph name="nuktaknda" format="2">
  <unicode hex="0CBC"/>
  <outline>
    <contour>
      <point x="-175" y="-160" type="curve" smooth="yes"/>
      <point x="-156" y="-160"/>
      <point x="-143" y="-148"/>
      <point x="-143" y="-120" type="curve" smooth="yes"/>
      <point x="-143" y="-95"/>
      <point x="-154" y="-80"/>
      <point x="-175" y="-80" type="curve" smooth="yes"/>
      <point x="-195" y="-80"/>
      <point x="-208" y="-94"/>
      <point x="-208" y="-120" type="curve" smooth="yes"/>
      <point x="-208" y="-147"/>
      <point x="-193" y="-160"/>
    </contour>
    <contour>
      <point x="-381" y="-160" type="curve" smooth="yes"/>
      <point x="-362" y="-160"/>
      <point x="-349" y="-148"/>
      <point x="-349" y="-120" type="curve" smooth="yes"/>
      <point x="-349" y="-95"/>
      <point x="-360" y="-80"/>
      <point x="-381" y="-80" type="curve" smooth="yes"/>
      <point x="-401" y="-80"/>
      <point x="-414" y="-94"/>
      <point x="-414" y="-120" type="curve" smooth="yes"/>
      <point x="-414" y="-147"/>
      <point x="-399" y="-160"/>
    </contour>
  </outline>
</glyph>
<glyph name="avagrahaknda" format="2">
  <advance width="402"/>
  <unicode hex="0CBD"/>
  <outline>
    <contour>
      <point x="208" y="-12" type="curve" smooth="yes"/>
      <point x="325" y="-12"/>
      <point x="364" y="60"/>
      <point x="364" y="131" type="curve" smooth="yes"/>
      <point x="364" y="216"/>
      <point x="321" y="253"/>
      <point x="205" y="307" type="curve" smooth="yes"/>
      <point x="115" y="349"/>
      <point x="72" y="375"/>
      <point x="72" y="436" type="curve" smooth="yes"/>
      <point x="72" y="492"/>
      <point x="115" y="515"/>
      <point x="175" y="515" type="curve" smooth="yes"/>
      <point x="341" y="515" type="line"/>
      <point x="341" y="540" type="line"/>
      <point x="190" y="540" type="line" smooth="yes"/>
      <point x="125" y="540"/>
      <point x="96" y="528"/>
      <point x="73" y="506" type="curve" smooth="yes"/>
      <point x="53" y="486"/>
      <point x="45" y="461"/>
      <point x="45" y="436" type="curve" smooth="yes"/>
      <point x="45" y="364"/>
      <point x="95" y="329"/>
      <point x="195" y="283" type="curve" smooth="yes"/>
      <point x="296" y="237"/>
      <point x="337" y="207"/>
      <point x="337" y="130" type="curve" smooth="yes"/>
      <point x="337" y="63"/>
      <point x="301" y="14"/>
      <point x="208" y="14" type="curve" smooth="yes"/>
      <point x="122" y="14"/>
      <point x="60" y="73"/>
      <point x="49" y="186" type="curve"/>
      <point x="23" y="184" type="line"/>
      <point x="33" y="63"/>
      <point x="107" y="-12"/>
    </contour>
  </outline>
</glyph>
<glyph name="aavowelsignknda" format="2">
  <advance width="408"/>
  <unicode hex="0CBE"/>
  <outline>
    <contour>
      <point x="360" y="235" type="curve" smooth="yes"/>
      <point x="360" y="329"/>
      <point x="336" y="408"/>
      <point x="283" y="461" type="curve" smooth="yes"/>
      <point x="232" y="512"/>
      <point x="171" y="540"/>
      <point x="40" y="540" type="curve" smooth="yes"/>
      <point x="-240" y="540" type="line"/>
      <point x="-240" y="515" type="line"/>
      <point x="38" y="515" type="line" smooth="yes"/>
      <point x="160" y="515"/>
      <point x="219" y="490"/>
      <point x="266" y="441" type="curve" smooth="yes"/>
      <point x="310" y="395"/>
      <point x="333" y="326"/>
      <point x="333" y="235" type="curve" smooth="yes"/>
      <point x="333" y="70"/>
      <point x="261" y="14"/>
      <point x="176" y="14" type="curve" smooth="yes"/>
      <point x="96" y="14"/>
      <point x="53" y="59"/>
      <point x="53" y="131" type="curve" smooth="yes"/>
      <point x="53" y="191"/>
      <point x="81" y="228"/>
      <point x="116" y="236" type="curve"/>
      <point x="103" y="235" type="line"/>
      <point x="103" y="211"/>
      <point x="112" y="201"/>
      <point x="129" y="201" type="curve" smooth="yes"/>
      <point x="143" y="201"/>
      <point x="155" y="207"/>
      <point x="155" y="228" type="curve" smooth="yes"/>
      <point x="155" y="244"/>
      <point x="146" y="258"/>
      <point x="119" y="258" type="curve" smooth="yes"/>
      <point x="78" y="258"/>
      <point x="27" y="221"/>
      <point x="27" y="131" type="curve" smooth="yes"/>
      <point x="27" y="49"/>
      <point x="79" y="-12"/>
      <point x="176" y="-12" type="curve" smooth="yes"/>
      <point x="282" y="-12"/>
      <point x="360" y="66"/>
    </contour>
  </outline>
</glyph>
<glyph name="ivowelsignknda" format="2">
  <advance width="313"/>
  <unicode hex="0CBF"/>
  <outline>
    <contour>
      <point x="126" y="331" type="curve" smooth="yes"/>
      <point x="237" y="331"/>
      <point x="287" y="390"/>
      <point x="287" y="504" type="curve" smooth="yes"/>
      <point x="287" y="618"/>
      <point x="216" y="702"/>
      <point x="125" y="702" type="curve" smooth="yes"/>
      <point x="48" y="702"/>
      <point x="4" y="652"/>
      <point x="4" y="594" type="curve" smooth="yes"/>
      <point x="4" y="529"/>
      <point x="54" y="491"/>
      <point x="116" y="491" type="curve" smooth="yes"/>
      <point x="195" y="491"/>
      <point x="237" y="532"/>
      <point x="266" y="569" type="curve"/>
      <point x="256" y="589" type="line"/>
      <point x="213" y="540"/>
      <point x="173" y="517"/>
      <point x="116" y="517" type="curve" smooth="yes"/>
      <point x="66" y="517"/>
      <point x="31" y="544"/>
      <point x="31" y="595" type="curve" smooth="yes"/>
      <point x="31" y="639"/>
      <point x="62" y="676"/>
      <point x="125" y="676" type="curve" smooth="yes"/>
      <point x="205" y="676"/>
      <point x="260" y="599"/>
      <point x="260" y="508" type="curve" smooth="yes"/>
      <point x="260" y="504" type="line" smooth="yes"/>
      <point x="260" y="404"/>
      <point x="222" y="357"/>
      <point x="126" y="357" type="curve" smooth="yes"/>
      <point x="61" y="357"/>
      <point x="5" y="391"/>
      <point x="-39" y="440" type="curve"/>
      <point x="-54" y="423" type="line"/>
      <point x="-17" y="377"/>
      <point x="46" y="331"/>
    </contour>
  </outline>
</glyph>
<glyph name="uvowelsignknda" format="2">
  <advance width="364"/>
  <unicode hex="0CC1"/>
  <outline>
    <contour>
      <point x="140" y="-12" type="curve" smooth="yes"/>
      <point x="255" y="-12"/>
      <point x="320" y="76"/>
      <point x="320" y="203" type="curve" smooth="yes"/>
      <point x="320" y="372"/>
      <point x="224" y="486"/>
      <point x="86" y="553" type="curve"/>
      <point x="74" y="529" type="line"/>
      <point x="213" y="465"/>
      <point x="293" y="353"/>
      <point x="293" y="204" type="curve" smooth="yes"/>
      <point x="293" y="75"/>
      <point x="231" y="14"/>
      <point x="140" y="14" type="curve" smooth="yes"/>
      <point x="46" y="14"/>
      <point x="-12" y="61"/>
      <point x="-66" y="132" type="curve"/>
      <point x="-81" y="113" type="line"/>
      <point x="-27" y="42"/>
      <point x="38" y="-12"/>
    </contour>
  </outline>
</glyph>
<glyph name="rvocalicvowelsignknda" format="2">
  <advance width="95"/>
  <unicode hex="0CC3"/>
  <outline>
    <contour>
      <point x="-127" y="-408" type="curve" smooth="yes"/>
      <point x="16" y="-408"/>
      <point x="102" y="-323"/>
      <point x="102" y="-157" type="curve" smooth="yes"/>
      <point x="102" y="-67"/>
      <point x="63" y="15"/>
      <point x="35" y="64" type="curve"/>
      <point x="11" y="52" type="line"/>
      <point x="43" y="1"/>
      <point x="75" y="-78"/>
      <point x="75" y="-155" type="curve" smooth="yes"/>
      <point x="75" y="-311"/>
      <point x="2" y="-382"/>
      <point x="-126" y="-382" type="curve" smooth="yes"/>
      <point x="-221" y="-382"/>
      <point x="-285" y="-327"/>
      <point x="-285" y="-225" type="curve" smooth="yes"/>
      <point x="-285" y="-219" type="line" smooth="yes"/>
      <point x="-285" y="-150"/>
      <point x="-247" y="-92"/>
      <point x="-184" y="-92" type="curve" smooth="yes"/>
      <point x="-140" y="-92"/>
      <point x="-113" y="-116"/>
      <point x="-113" y="-162" type="curve" smooth="yes"/>
      <point x="-113" y="-208"/>
      <point x="-139" y="-233"/>
      <point x="-201" y="-233" type="curve" smooth="yes"/>
      <point x="-239" y="-233"/>
      <point x="-269" y="-224"/>
      <point x="-297" y="-199" type="curve"/>
      <point x="-301" y="-227" type="line"/>
      <point x="-271" y="-248"/>
      <point x="-241" y="-258"/>
      <point x="-200" y="-258" type="curve" smooth="yes"/>
      <point x="-115" y="-258"/>
      <point x="-87" y="-211"/>
      <point x="-87" y="-162" type="curve" smooth="yes"/>
      <point x="-87" y="-115"/>
      <point x="-113" y="-67"/>
      <point x="-183" y="-67" type="curve" smooth="yes"/>
      <point x="-256" y="-67"/>
      <point x="-310" y="-127"/>
      <point x="-310" y="-222" type="curve" smooth="yes"/>
      <point x="-310" y="-325"/>
      <point x="-249" y="-408"/>
    </contour>
  </outline>
</glyph>
<glyph name="rrvocalicvowelsignknda" format="2">
  <advance width="435"/>
  <unicode hex="0CC4"/>
  <outline>
    <contour>
      <point x="-127" y="-408" type="curve" smooth="yes"/>
      <point x="16" y="-408"/>
      <point x="102" y="-323"/>
      <point x="102" y="-157" type="curve" smooth="yes"/>
      <point x="102" y="-67"/>
      <point x="63" y="15"/>
      <point x="32" y="64" type="curve"/>
      <point x="26" y="70" type="line"/>
      <point x="11" y="52" type="line"/>
      <point x="43" y="1"/>
      <point x="75" y="-78"/>
      <point x="75" y="-155" type="curve" smooth="yes"/>
      <point x="75" y="-311"/>
      <point x="2" y="-382"/>
      <point x="-126" y="-382" type="curve" smooth="yes"/>
      <point x="-221" y="-382"/>
      <point x="-285" y="-327"/>
      <point x="-285" y="-225" type="curve" smooth="yes"/>
      <point x="-285" y="-219" type="line" smooth="yes"/>
      <point x="-285" y="-150"/>
      <point x="-247" y="-92"/>
      <point x="-184" y="-92" type="curve" smooth="yes"/>
      <point x="-140" y="-92"/>
      <point x="-113" y="-116"/>
      <point x="-113" y="-162" type="curve" smooth="yes"/>
      <point x="-113" y="-208"/>
      <point x="-139" y="-233"/>
      <point x="-201" y="-233" type="curve" smooth="yes"/>
      <point x="-239" y="-233"/>
      <point x="-269" y="-224"/>
      <point x="-297" y="-199" type="curve"/>
      <point x="-301" y="-227" type="line"/>
      <point x="-271" y="-248"/>
      <point x="-241" y="-258"/>
      <point x="-200" y="-258" type="curve" smooth="yes"/>
      <point x="-115" y="-258"/>
      <point x="-87" y="-211"/>
      <point x="-87" y="-162" type="curve" smooth="yes"/>
      <point x="-87" y="-115"/>
      <point x="-113" y="-67"/>
      <point x="-183" y="-67" type="curve" smooth="yes"/>
      <point x="-256" y="-67"/>
      <point x="-310" y="-127"/>
      <point x="-310" y="-222" type="curve" smooth="yes"/>
      <point x="-310" y="-325"/>
      <point x="-249" y="-408"/>
    </contour>
    <contour>
      <point x="296" y="-338" type="curve" smooth="yes"/>
      <point x="389" y="-338"/>
      <point x="451" y="-275"/>
      <point x="451" y="-156" type="curve" smooth="yes"/>
      <point x="451" y="-83"/>
      <point x="427" y="-24"/>
      <point x="381" y="14" type="curve" smooth="yes"/>
      <point x="337" y="51"/>
      <point x="277" y="70"/>
      <point x="166" y="70" type="curve" smooth="yes"/>
      <point x="26" y="70" type="line"/>
      <point x="23" y="45" type="line"/>
      <point x="161" y="45" type="line" smooth="yes"/>
      <point x="271" y="45"/>
      <point x="326" y="27"/>
      <point x="366" y="-7" type="curve" smooth="yes"/>
      <point x="405" y="-41"/>
      <point x="424" y="-90"/>
      <point x="424" y="-156" type="curve" smooth="yes"/>
      <point x="424" y="-274"/>
      <point x="363" y="-313"/>
      <point x="296" y="-313" type="curve" smooth="yes"/>
      <point x="229" y="-313"/>
      <point x="198" y="-278"/>
      <point x="198" y="-221" type="curve" smooth="yes"/>
      <point x="198" y="-195"/>
      <point x="210" y="-166"/>
      <point x="236" y="-154" type="curve"/>
      <point x="223" y="-157" type="line"/>
      <point x="223" y="-178"/>
      <point x="232" y="-189"/>
      <point x="249" y="-189" type="curve" smooth="yes"/>
      <point x="263" y="-189"/>
      <point x="275" y="-183"/>
      <point x="275" y="-162" type="curve" smooth="yes"/>
      <point x="275" y="-146"/>
      <point x="266" y="-132"/>
      <point x="241" y="-132" type="curve" smooth="yes"/>
      <point x="204" y="-132"/>
      <point x="172" y="-168"/>
      <point x="172" y="-221" type="curve" smooth="yes"/>
      <point x="172" y="-282"/>
      <point x="205" y="-338"/>
    </contour>
  </outline>
</glyph>
<glyph name="evowelsignknda" format="2">
  <unicode hex="0CC6"/>
  <outline>
    <contour>
      <point x="-509" y="515" type="line"/>
      <point x="-217" y="515" type="line" smooth="yes"/>
      <point x="-143" y="515"/>
      <point x="-99" y="527"/>
      <point x="-68" y="555" type="curve" smooth="yes"/>
      <point x="-43" y="578"/>
      <point x="-30" y="613"/>
      <point x="-30" y="659" type="curve" smooth="yes"/>
      <point x="-30" y="727"/>
      <point x="-77" y="794"/>
      <point x="-169" y="794" type="curve" smooth="yes"/>
      <point x="-252" y="794"/>
      <point x="-301" y="739"/>
      <point x="-301" y="677" type="curve" smooth="yes"/>
      <point x="-301" y="640"/>
      <point x="-285" y="613"/>
      <point x="-253" y="613" type="curve" smooth="yes"/>
      <point x="-238" y="613"/>
      <point x="-227" y="620"/>
      <point x="-227" y="636" type="curve" smooth="yes"/>
      <point x="-227" y="649"/>
      <point x="-234" y="659"/>
      <point x="-251" y="659" type="curve" smooth="yes"/>
      <point x="-261" y="659"/>
      <point x="-270" y="656"/>
      <point x="-277" y="645" type="curve"/>
      <point x="-271" y="646" type="line"/>
      <point x="-274" y="656"/>
      <point x="-275" y="667"/>
      <point x="-275" y="677" type="curve" smooth="yes"/>
      <point x="-275" y="730"/>
      <point x="-233" y="769"/>
      <point x="-169" y="769" type="curve" smooth="yes"/>
      <point x="-109" y="769"/>
      <point x="-57" y="732"/>
      <point x="-57" y="659" type="curve" smooth="yes"/>
      <point x="-57" y="620"/>
      <point x="-65" y="593"/>
      <point x="-86" y="573" type="curve" smooth="yes"/>
      <point x="-109" y="551"/>
      <point x="-145" y="540"/>
      <point x="-222" y="540" type="curve" smooth="yes"/>
      <point x="-509" y="540" type="line"/>
    </contour>
  </outline>
</glyph>
<glyph name="auvowelsignknda" format="2">
  <advance width="386"/>
  <unicode hex="0CCC"/>
  <outline>
    <contour>
      <point x="4" y="623" type="curve" smooth="yes"/>
      <point x="4" y="668"/>
      <point x="-13" y="703"/>
      <point x="-34" y="728" type="curve"/>
      <point x="-61" y="726" type="line"/>
      <point x="-31" y="685"/>
      <point x="-22" y="650"/>
      <point x="-22" y="623" type="curve" smooth="yes"/>
      <point x="-22" y="597"/>
      <point x="-29" y="576"/>
      <point x="-44" y="563" type="curve" smooth="yes"/>
      <point x="-64" y="546"/>
      <point x="-88" y="540"/>
      <point x="-162" y="540" type="curve" smooth="yes"/>
      <point x="-240" y="540" type="line"/>
      <point x="-240" y="515" type="line"/>
      <point x="-157" y="515" type="line" smooth="yes"/>
      <point x="-95" y="515"/>
      <point x="-57" y="521"/>
      <point x="-29" y="543" type="curve" smooth="yes"/>
      <point x="-8" y="559"/>
      <point x="4" y="584"/>
    </contour>
    <contour>
      <point x="356" y="442" type="curve" smooth="yes"/>
      <point x="356" y="536"/>
      <point x="332" y="615"/>
      <point x="279" y="668" type="curve" smooth="yes"/>
      <point x="228" y="719"/>
      <point x="167" y="747"/>
      <point x="36" y="747" type="curve" smooth="yes"/>
      <point x="-218" y="747" type="line"/>
      <point x="-217" y="722" type="line"/>
      <point x="34" y="722" type="line" smooth="yes"/>
      <point x="156" y="722"/>
      <point x="215" y="697"/>
      <point x="262" y="648" type="curve" smooth="yes"/>
      <point x="306" y="602"/>
      <point x="329" y="533"/>
      <point x="329" y="442" type="curve" smooth="yes"/>
      <point x="329" y="277"/>
      <point x="257" y="221"/>
      <point x="172" y="221" type="curve" smooth="yes"/>
      <point x="92" y="221"/>
      <point x="49" y="266"/>
      <point x="49" y="338" type="curve" smooth="yes"/>
      <point x="49" y="398"/>
      <point x="77" y="435"/>
      <point x="112" y="443" type="curve"/>
      <point x="99" y="442" type="line"/>
      <point x="99" y="418"/>
      <point x="108" y="408"/>
      <point x="125" y="408" type="curve" smooth="yes"/>
      <point x="139" y="408"/>
      <point x="151" y="414"/>
      <point x="151" y="435" type="curve" smooth="yes"/>
      <point x="151" y="451"/>
      <point x="142" y="465"/>
      <point x="115" y="465" type="curve" smooth="yes"/>
      <point x="74" y="465"/>
      <point x="23" y="428"/>
      <point x="23" y="338" type="curve" smooth="yes"/>
      <point x="23" y="256"/>
      <point x="75" y="195"/>
      <point x="172" y="195" type="curve" smooth="yes"/>
      <point x="278" y="195"/>
      <point x="356" y="273"/>
    </contour>
  </outline>
</glyph>
<glyph name="viramaknda" format="2">
  <advance width="256"/>
  <unicode hex="0CCD"/>
  <outline>
    <contour>
      <point x="127" y="337" type="curve" smooth="yes"/>
      <point x="189" y="337"/>
      <point x="230" y="366"/>
      <point x="230" y="435" type="curve" smooth="yes"/>
      <point x="230" y="471"/>
      <point x="215" y="498"/>
      <point x="194" y="513" type="curve" smooth="yes"/>
      <point x="167" y="533"/>
      <point x="138" y="540"/>
      <point x="87" y="540" type="curve" smooth="yes"/>
      <point x="-191" y="540" type="line"/>
      <point x="-191" y="515" type="line"/>
      <point x="80" y="515" type="line" smooth="yes"/>
      <point x="136" y="515"/>
      <point x="160" y="508"/>
      <point x="178" y="493" type="curve" smooth="yes"/>
      <point x="194" y="480"/>
      <point x="203" y="460"/>
      <point x="203" y="434" type="curve" smooth="yes"/>
      <point x="203" y="378"/>
      <point x="172" y="362"/>
      <point x="127" y="362" type="curve" smooth="yes"/>
      <point x="61" y="362"/>
      <point x="28" y="409"/>
      <point x="28" y="490" type="curve" smooth="yes"/>
      <point x="28" y="480" type="line" smooth="yes"/>
      <point x="28" y="593"/>
      <point x="74" y="650"/>
      <point x="165" y="650" type="curve" smooth="yes"/>
      <point x="201" y="650"/>
      <point x="231" y="641"/>
      <point x="261" y="623" type="curve"/>
      <point x="276" y="644" type="line"/>
      <point x="243" y="665"/>
      <point x="208" y="676"/>
      <point x="165" y="676" type="curve" smooth="yes"/>
      <point x="59" y="676"/>
      <point x="2" y="602"/>
      <point x="2" y="489" type="curve" smooth="yes"/>
      <point x="2" y="484" type="line" smooth="yes"/>
      <point x="2" y="393"/>
      <point x="49" y="337"/>
    </contour>
  </outline>
</glyph>
<glyph name="lengthmarkknda" format="2">
  <advance width="368"/>
  <unicode hex="0CD5"/>
  <outline>
    <contour>
      <point x="336" y="428" type="curve" smooth="yes"/>
      <point x="336" y="496"/>
      <point x="295" y="552"/>
      <point x="214" y="552" type="curve" smooth="yes"/>
      <point x="124" y="552"/>
      <point x="43" y="469"/>
      <point x="43" y="318" type="curve" smooth="yes"/>
      <point x="43" y="156"/>
      <point x="127" y="61"/>
      <point x="266" y="-12" type="curve"/>
      <point x="279" y="11" type="line"/>
      <point x="135" y="83"/>
      <point x="69" y="183"/>
      <point x="69" y="313" type="curve" smooth="yes"/>
      <point x="69" y="324" type="line" smooth="yes"/>
      <point x="69" y="455"/>
      <point x="139" y="526"/>
      <point x="214" y="526" type="curve" smooth="yes"/>
      <point x="280" y="526"/>
      <point x="309" y="483"/>
      <point x="309" y="429" type="curve" smooth="yes"/>
      <point x="309" y="362"/>
      <point x="267" y="323"/>
      <point x="188" y="323" type="curve" smooth="yes"/>
      <point x="139" y="323"/>
      <point x="90" y="347"/>
      <point x="63" y="381" type="curve"/>
      <point x="52" y="358" type="line"/>
      <point x="78" y="328"/>
      <point x="127" y="297"/>
      <point x="188" y="297" type="curve" smooth="yes"/>
      <point x="291" y="297"/>
      <point x="336" y="359"/>
    </contour>
  </outline>
</glyph>
<glyph name="ailengthmarkknda" format="2">
  <advance width="141"/>
  <unicode hex="0CD6"/>
  <outline>
    <contour>
      <point x="-103" y="-408" type="curve" smooth="yes"/>
      <point x="26" y="-408"/>
      <point x="125" y="-343"/>
      <point x="125" y="-196" type="curve" smooth="yes"/>
      <point x="125" y="-141"/>
      <point x="106" y="-86"/>
      <point x="61" y="-33" type="curve"/>
      <point x="59" y="-53" type="line"/>
      <point x="91" y="-26"/>
      <point x="117" y="4"/>
      <point x="117" y="56" type="curve" smooth="yes"/>
      <point x="117" y="104"/>
      <point x="96" y="151"/>
      <point x="29" y="201" type="curve"/>
      <point x="12" y="181" type="line"/>
      <point x="60" y="145"/>
      <point x="90" y="111"/>
      <point x="90" y="55" type="curve" smooth="yes"/>
      <point x="90" y="14"/>
      <point x="70" y="-14"/>
      <point x="36" y="-41" type="curve"/>
      <point x="67" y="-79"/>
      <point x="98" y="-128"/>
      <point x="98" y="-197" type="curve" smooth="yes"/>
      <point x="98" y="-330"/>
      <point x="12" y="-382"/>
      <point x="-102" y="-382" type="curve" smooth="yes"/>
      <point x="-211" y="-382"/>
      <point x="-271" y="-327"/>
      <point x="-271" y="-225" type="curve" smooth="yes"/>
      <point x="-271" y="-219" type="line" smooth="yes"/>
      <point x="-271" y="-150"/>
      <point x="-233" y="-92"/>
      <point x="-170" y="-92" type="curve" smooth="yes"/>
      <point x="-126" y="-92"/>
      <point x="-99" y="-116"/>
      <point x="-99" y="-162" type="curve" smooth="yes"/>
      <point x="-99" y="-208"/>
      <point x="-125" y="-233"/>
      <point x="-187" y="-233" type="curve" smooth="yes"/>
      <point x="-225" y="-233"/>
      <point x="-255" y="-224"/>
      <point x="-283" y="-199" type="curve"/>
      <point x="-287" y="-227" type="line"/>
      <point x="-257" y="-248"/>
      <point x="-227" y="-258"/>
      <point x="-186" y="-258" type="curve" smooth="yes"/>
      <point x="-101" y="-258"/>
      <point x="-73" y="-211"/>
      <point x="-73" y="-162" type="curve" smooth="yes"/>
      <point x="-73" y="-115"/>
      <point x="-99" y="-67"/>
      <point x="-169" y="-67" type="curve" smooth="yes"/>
      <point x="-242" y="-67"/>
      <point x="-296" y="-127"/>
      <point x="-296" y="-222" type="curve" smooth="yes"/>
      <point x="-296" y="-325"/>
      <point x="-238" y="-408"/>
    </contour>
  </outline>
</glyph>
<glyph name="faknda" format="2">
  <advance width="783"/>
  <unicode hex="0CDE"/>
  <outline>
    <contour>
      <point x="231" y="-12" type="curve" smooth="yes"/>
      <point x="325" y="-12"/>
      <point x="374" y="44"/>
      <point x="394" y="136" type="curve"/>
      <point x="388" y="136" type="line"/>
      <point x="408" y="44"/>
      <point x="458" y="-12"/>
      <point x="552" y="-12" type="curve" smooth="yes"/>
      <point x="640" y="-12"/>
      <point x="735" y="37"/>
      <point x="735" y="248" type="curve" smooth="yes"/>
      <point x="735" y="441"/>
      <point x="654" y="552"/>
      <point x="542" y="552" type="curve" smooth="yes"/>
      <point x="476" y="552"/>
      <point x="429" y="506"/>
      <point x="429" y="437" type="curve" smooth="yes"/>
      <point x="429" y="369"/>
      <point x="471" y="309"/>
      <point x="576" y="309" type="curve" smooth="yes"/>
      <point x="636" y="309"/>
      <point x="688" y="340"/>
      <point x="706" y="362" type="curve"/>
      <point x="700" y="390" type="line"/>
      <point x="674" y="361"/>
      <point x="632" y="335"/>
      <point x="576" y="335" type="curve" smooth="yes"/>
      <point x="490" y="335"/>
      <point x="456" y="378"/>
      <point x="456" y="436" type="curve" smooth="yes"/>
      <point x="456" y="488"/>
      <point x="485" y="526"/>
      <point x="544" y="526" type="curve" smooth="yes"/>
      <point x="639" y="526"/>
      <point x="708" y="426"/>
      <point x="708" y="248" type="curve" smooth="yes"/>
      <point x="708" y="46"/>
      <point x="623" y="14"/>
      <point x="552" y="14" type="curve" smooth="yes"/>
      <point x="464" y="14"/>
      <point x="418" y="66"/>
      <point x="403" y="178" type="curve"/>
      <point x="379" y="178" type="line"/>
      <point x="364" y="66"/>
      <point x="319" y="14"/>
      <point x="231" y="14" type="curve" smooth="yes"/>
      <point x="160" y="14"/>
      <point x="75" y="46"/>
      <point x="75" y="248" type="curve" smooth="yes"/>
      <point x="75" y="426"/>
      <point x="144" y="526"/>
      <point x="239" y="526" type="curve" smooth="yes"/>
      <point x="298" y="526"/>
      <point x="327" y="488"/>
      <point x="327" y="436" type="curve" smooth="yes"/>
      <point x="327" y="378"/>
      <point x="293" y="335"/>
      <point x="207" y="335" type="curve" smooth="yes"/>
      <point x="151" y="335"/>
      <point x="109" y="361"/>
      <point x="83" y="390" type="curve"/>
      <point x="77" y="362" type="line"/>
      <point x="95" y="340"/>
      <point x="147" y="309"/>
      <point x="207" y="309" type="curve" smooth="yes"/>
      <point x="312" y="309"/>
      <point x="354" y="369"/>
      <point x="354" y="437" type="curve" smooth="yes"/>
      <point x="354" y="506"/>
      <point x="307" y="552"/>
      <point x="241" y="552" type="curve" smooth="yes"/>
      <point x="129" y="552"/>
      <point x="48" y="441"/>
      <point x="48" y="248" type="curve" smooth="yes"/>
      <point x="48" y="37"/>
      <point x="143" y="-12"/>
    </contour>
  </outline>
</glyph>
<glyph name="rrvocalicknda" format="2">
  <advance width="1452"/>
  <unicode hex="0CE0"/>
  <outline>
    <contour>
      <point x="162" y="-12" type="curve" smooth="yes"/>
      <point x="329" y="-12"/>
      <point x="385" y="126"/>
      <point x="385" y="266" type="curve" smooth="yes"/>
      <point x="385" y="396"/>
      <point x="320" y="552"/>
      <point x="161" y="552" type="curve" smooth="yes"/>
      <point x="88" y="552"/>
      <point x="33" y="503"/>
      <point x="33" y="435" type="curve" smooth="yes"/>
      <point x="33" y="361"/>
      <point x="80" y="322"/>
      <point x="142" y="322" type="curve" smooth="yes"/>
      <point x="207" y="322"/>
      <point x="253" y="365"/>
      <point x="253" y="436" type="curve" smooth="yes"/>
      <point x="253" y="471"/>
      <point x="237" y="505"/>
      <point x="215" y="534" type="curve"/>
      <point x="189" y="529" type="line"/>
      <point x="214" y="503"/>
      <point x="227" y="473"/>
      <point x="227" y="437" type="curve" smooth="yes"/>
      <point x="227" y="375"/>
      <point x="190" y="348"/>
      <point x="141" y="348" type="curve" smooth="yes"/>
      <point x="92" y="348"/>
      <point x="60" y="377"/>
      <point x="60" y="435" type="curve" smooth="yes"/>
      <point x="60" y="492"/>
      <point x="104" y="526"/>
      <point x="160" y="526" type="curve" smooth="yes"/>
      <point x="177" y="526"/>
      <point x="193" y="524"/>
      <point x="208" y="520" type="curve" smooth="yes"/>
      <point x="213" y="519"/>
      <point x="217" y="520"/>
      <point x="222" y="518" type="curve" smooth="yes"/>
      <point x="314" y="485"/>
      <point x="358" y="373"/>
      <point x="358" y="267" type="curve" smooth="yes"/>
      <point x="358" y="149"/>
      <point x="318" y="46"/>
      <point x="219" y="19" type="curve" smooth="yes"/>
      <point x="216" y="18"/>
      <point x="212" y="20"/>
      <point x="209" y="19" type="curve" smooth="yes"/>
      <point x="195" y="16"/>
      <point x="179" y="14"/>
      <point x="162" y="14" type="curve" smooth="yes"/>
      <point x="102" y="14"/>
      <point x="64" y="47"/>
      <point x="64" y="105" type="curve" smooth="yes"/>
      <point x="64" y="159"/>
      <point x="97" y="194"/>
      <point x="151" y="194" type="curve" smooth="yes"/>
      <point x="195" y="194"/>
      <point x="231" y="167"/>
      <point x="231" y="108" type="curve" smooth="yes"/>
      <point x="231" y="68"/>
      <point x="212" y="33"/>
      <point x="183" y="-1" type="curve"/>
      <point x="211" y="2" type="line"/>
      <point x="238" y="29"/>
      <point x="257" y="62"/>
      <point x="257" y="109" type="curve" smooth="yes"/>
      <point x="257" y="173"/>
      <point x="214" y="220"/>
      <point x="151" y="220" type="curve" smooth="yes"/>
      <point x="86" y="220"/>
      <point x="37" y="173"/>
      <point x="37" y="108" type="curve" smooth="yes"/>
      <point x="37" y="36"/>
      <point x="84" y="-12"/>
    </contour>
    <contour>
      <point x="547" y="-12" type="curve" smooth="yes"/>
      <point x="651" y="-12"/>
      <point x="723" y="63"/>
      <point x="723" y="209" type="curve" smooth="yes"/>
      <point x="723" y="351"/>
      <point x="648" y="462"/>
      <point x="515" y="522" type="curve"/>
      <point x="478" y="520" type="line"/>
      <point x="636" y="443"/>
      <point x="696" y="335"/>
      <point x="696" y="208" type="curve" smooth="yes"/>
      <point x="696" y="71"/>
      <point x="634" y="14"/>
      <point x="546" y="14" type="curve" smooth="yes"/>
      <point x="456" y="14"/>
      <point x="405" y="50"/>
      <point x="348" y="118" type="curve"/>
      <point x="336" y="95" type="line"/>
      <point x="399" y="22"/>
      <point x="455" y="-12"/>
    </contour>
    <contour>
      <point x="428" y="515" type="line"/>
      <point x="551" y="515" type="line" smooth="yes"/>
      <point x="608" y="515"/>
      <point x="655" y="519"/>
      <point x="686" y="547" type="curve" smooth="yes"/>
      <point x="705" y="564"/>
      <point x="716" y="590"/>
      <point x="716" y="631" type="curve" smooth="yes"/>
      <point x="716" y="678"/>
      <point x="697" y="721"/>
      <point x="648" y="778" type="curve"/>
      <point x="627" y="762" type="line"/>
      <point x="675" y="708"/>
      <point x="689" y="668"/>
      <point x="689" y="631" type="curve" smooth="yes"/>
      <point x="689" y="599"/>
      <point x="681" y="578"/>
      <point x="666" y="564" type="curve" smooth="yes"/>
      <point x="644" y="544"/>
      <point x="610" y="540"/>
      <point x="542" y="540" type="curve" smooth="yes"/>
      <point x="428" y="540" type="line"/>
    </contour>
    <component base="uuvowelsignknda" xOffset="772"/>
  </outline>
</glyph>
<glyph name="llvocalicknda" format="2">
  <advance width="1186"/>
  <unicode hex="0CE1"/>
  <outline>
    <contour>
      <point x="423" y="-12" type="curve" smooth="yes"/>
      <point x="619" y="-12"/>
      <point x="741" y="104"/>
      <point x="741" y="276" type="curve" smooth="yes"/>
      <point x="741" y="367"/>
      <point x="716" y="451"/>
      <point x="650" y="526" type="curve"/>
      <point x="648" y="515" type="line"/>
      <point x="816" y="515" type="line" smooth="yes"/>
      <point x="938" y="515"/>
      <point x="997" y="490"/>
      <point x="1044" y="441" type="curve" smooth="yes"/>
      <point x="1088" y="395"/>
      <point x="1111" y="326"/>
      <point x="1111" y="235" type="curve" smooth="yes"/>
      <point x="1111" y="70"/>
      <point x="1039" y="14"/>
      <point x="954" y="14" type="curve" smooth="yes"/>
      <point x="874" y="14"/>
      <point x="831" y="59"/>
      <point x="831" y="131" type="curve" smooth="yes"/>
      <point x="831" y="191"/>
      <point x="859" y="228"/>
      <point x="894" y="236" type="curve"/>
      <point x="881" y="235" type="line"/>
      <point x="881" y="211"/>
      <point x="890" y="201"/>
      <point x="907" y="201" type="curve" smooth="yes"/>
      <point x="921" y="201"/>
      <point x="933" y="207"/>
      <point x="933" y="228" type="curve" smooth="yes"/>
      <point x="933" y="244"/>
      <point x="924" y="258"/>
      <point x="897" y="258" type="curve" smooth="yes"/>
      <point x="856" y="258"/>
      <point x="805" y="221"/>
      <point x="805" y="131" type="curve" smooth="yes"/>
      <point x="805" y="49"/>
      <point x="857" y="-12"/>
      <point x="954" y="-12" type="curve" smooth="yes"/>
      <point x="1060" y="-12"/>
      <point x="1138" y="66"/>
      <point x="1138" y="235" type="curve" smooth="yes"/>
      <point x="1138" y="329"/>
      <point x="1114" y="408"/>
      <point x="1061" y="461" type="curve" smooth="yes"/>
      <point x="1010" y="512"/>
      <point x="949" y="540"/>
      <point x="818" y="540" type="curve" smooth="yes"/>
      <point x="641" y="540" type="line"/>
      <point x="624" y="518" type="line"/>
      <point x="692" y="443"/>
      <point x="714" y="366"/>
      <point x="714" y="277" type="curve" smooth="yes"/>
      <point x="714" y="113"/>
      <point x="601" y="14"/>
      <point x="422" y="14" type="curve" smooth="yes"/>
      <point x="296" y="14"/>
      <point x="242" y="65"/>
      <point x="242" y="139" type="curve" smooth="yes"/>
      <point x="242" y="205"/>
      <point x="280" y="234"/>
      <point x="384" y="262" type="curve" smooth="yes"/>
      <point x="494" y="292"/>
      <point x="544" y="336"/>
      <point x="544" y="421" type="curve" smooth="yes"/>
      <point x="544" y="509"/>
      <point x="489" y="552"/>
      <point x="424" y="552" type="curve" smooth="yes"/>
      <point x="349" y="552"/>
      <point x="302" y="493"/>
      <point x="283" y="410" type="curve"/>
      <point x="290" y="405" type="line"/>
      <point x="273" y="494"/>
      <point x="228" y="552"/>
      <point x="151" y="552" type="curve" smooth="yes"/>
      <point x="85" y="552"/>
      <point x="33" y="511"/>
      <point x="33" y="438" type="curve" smooth="yes"/>
      <point x="33" y="402"/>
      <point x="46" y="361"/>
      <point x="58" y="338" type="curve"/>
      <point x="83" y="346" type="line"/>
      <point x="70" y="374"/>
      <point x="60" y="401"/>
      <point x="60" y="438" type="curve" smooth="yes"/>
      <point x="60" y="482"/>
      <point x="82" y="526"/>
      <point x="151" y="526" type="curve" smooth="yes"/>
      <point x="220" y="526"/>
      <point x="254" y="473"/>
      <point x="274" y="379" type="curve"/>
      <point x="298" y="379" type="line"/>
      <point x="314" y="456"/>
      <point x="348" y="526"/>
      <point x="425" y="526" type="curve" smooth="yes"/>
      <point x="473" y="526"/>
      <point x="517" y="497"/>
      <point x="517" y="421" type="curve" smooth="yes"/>
      <point x="517" y="338"/>
      <point x="460" y="309"/>
      <point x="377" y="286" type="curve" smooth="yes"/>
      <point x="264" y="255"/>
      <point x="215" y="217"/>
      <point x="215" y="140" type="curve" smooth="yes"/>
      <point x="215" y="51"/>
      <point x="281" y="-12"/>
    </contour>
  </outline>
</glyph>
<glyph name="lvocalicvowelsignknda" format="2">
  <advance width="69"/>
  <unicode hex="0CE2"/>
  <outline>
    <contour>
      <point x="95" y="-182" type="curve" smooth="yes"/>
      <point x="95" y="-95"/>
      <point x="40" y="-58"/>
      <point x="-15" y="-58" type="curve" smooth="yes"/>
      <point x="-73" y="-58"/>
      <point x="-113" y="-92"/>
      <point x="-125" y="-159" type="curve"/>
      <point x="-115" y="-159" type="line"/>
      <point x="-131" y="-87"/>
      <point x="-168" y="-58"/>
      <point x="-225" y="-58" type="curve" smooth="yes"/>
      <point x="-289" y="-58"/>
      <point x="-320" y="-105"/>
      <point x="-320" y="-159" type="curve" smooth="yes"/>
      <point x="-320" y="-178"/>
      <point x="-316" y="-200"/>
      <point x="-308" y="-225" type="curve"/>
      <point x="-283" y="-219" type="line"/>
      <point x="-291" y="-196"/>
      <point x="-294" y="-177"/>
      <point x="-294" y="-159" type="curve" smooth="yes"/>
      <point x="-294" y="-117"/>
      <point x="-273" y="-83"/>
      <point x="-225" y="-83" type="curve" smooth="yes"/>
      <point x="-169" y="-83"/>
      <point x="-139" y="-123"/>
      <point x="-132" y="-182" type="curve"/>
      <point x="-108" y="-182" type="line"/>
      <point x="-102" y="-136"/>
      <point x="-80" y="-83"/>
      <point x="-15" y="-83" type="curve" smooth="yes"/>
      <point x="42" y="-83"/>
      <point x="69" y="-128"/>
      <point x="69" y="-182" type="curve" smooth="yes"/>
      <point x="69" y="-198"/>
      <point x="67" y="-218"/>
      <point x="62" y="-229" type="curve"/>
      <point x="81" y="-247" type="line"/>
      <point x="88" y="-235"/>
      <point x="95" y="-213"/>
    </contour>
    <contour>
      <point x="44" y="-444" type="curve" smooth="yes"/>
      <point x="78" y="-444"/>
      <point x="101" y="-438"/>
      <point x="124" y="-427" type="curve"/>
      <point x="115" y="-403" type="line"/>
      <point x="95" y="-414"/>
      <point x="73" y="-419"/>
      <point x="44" y="-419" type="curve" smooth="yes"/>
      <point x="7" y="-419"/>
      <point x="-40" y="-405"/>
      <point x="-40" y="-348" type="curve" smooth="yes"/>
      <point x="-40" y="-291"/>
      <point x="5" y="-261"/>
      <point x="81" y="-247" type="curve"/>
      <point x="68" y="-225" type="line"/>
      <point x="-45" y="-247"/>
      <point x="-66" y="-304"/>
      <point x="-66" y="-348" type="curve" smooth="yes"/>
      <point x="-66" y="-410"/>
      <point x="-21" y="-444"/>
    </contour>
  </outline>
</glyph>
<glyph name="llvocalicvowelsignknda" format="2">
  <advance width="69"/>
  <unicode hex="0CE3"/>
  <outline>
    <contour>
      <point x="95" y="-182" type="curve" smooth="yes"/>
      <point x="95" y="-95"/>
      <point x="40" y="-58"/>
      <point x="-15" y="-58" type="curve" smooth="yes"/>
      <point x="-73" y="-58"/>
      <point x="-113" y="-92"/>
      <point x="-125" y="-159" type="curve"/>
      <point x="-115" y="-159" type="line"/>
      <point x="-131" y="-87"/>
      <point x="-168" y="-58"/>
      <point x="-225" y="-58" type="curve" smooth="yes"/>
      <point x="-289" y="-58"/>
      <point x="-320" y="-105"/>
      <point x="-320" y="-159" type="curve" smooth="yes"/>
      <point x="-320" y="-178"/>
      <point x="-316" y="-200"/>
      <point x="-308" y="-225" type="curve"/>
      <point x="-283" y="-219" type="line"/>
      <point x="-291" y="-196"/>
      <point x="-294" y="-177"/>
      <point x="-294" y="-159" type="curve" smooth="yes"/>
      <point x="-294" y="-117"/>
      <point x="-273" y="-83"/>
      <point x="-225" y="-83" type="curve" smooth="yes"/>
      <point x="-169" y="-83"/>
      <point x="-139" y="-123"/>
      <point x="-132" y="-182" type="curve"/>
      <point x="-108" y="-182" type="line"/>
      <point x="-102" y="-136"/>
      <point x="-80" y="-83"/>
      <point x="-15" y="-83" type="curve" smooth="yes"/>
      <point x="42" y="-83"/>
      <point x="69" y="-128"/>
      <point x="69" y="-182" type="curve" smooth="yes"/>
      <point x="69" y="-198"/>
      <point x="67" y="-214"/>
      <point x="62" y="-225" type="curve"/>
      <point x="65" y="-231" type="line"/>
      <point x="87" y="-231" type="line"/>
      <point x="93" y="-212"/>
      <point x="95" y="-198"/>
    </contour>
    <contour>
      <point x="44" y="-392" type="curve" smooth="yes"/>
      <point x="78" y="-392"/>
      <point x="101" y="-386"/>
      <point x="124" y="-375" type="curve"/>
      <point x="115" y="-351" type="line"/>
      <point x="95" y="-362"/>
      <point x="73" y="-367"/>
      <point x="44" y="-367" type="curve" smooth="yes"/>
      <point x="-4" y="-367"/>
      <point x="-36" y="-345"/>
      <point x="-36" y="-307" type="curve" smooth="yes"/>
      <point x="-36" y="-262"/>
      <point x="1" y="-239"/>
      <point x="87" y="-231" type="curve"/>
      <point x="70" y="-210" type="line"/>
      <point x="-37" y="-218"/>
      <point x="-62" y="-270"/>
      <point x="-62" y="-306" type="curve" smooth="yes"/>
      <point x="-62" y="-360"/>
      <point x="-19" y="-392"/>
    </contour>
    <contour>
      <point x="62" y="-514" type="curve" smooth="yes"/>
      <point x="96" y="-514"/>
      <point x="119" y="-508"/>
      <point x="142" y="-497" type="curve"/>
      <point x="133" y="-473" type="line"/>
      <point x="113" y="-484"/>
      <point x="91" y="-489"/>
      <point x="62" y="-489" type="curve" smooth="yes"/>
      <point x="8" y="-489"/>
      <point x="-20" y="-467"/>
      <point x="-20" y="-427" type="curve" smooth="yes"/>
      <point x="-20" y="-404"/>
      <point x="-9" y="-386"/>
      <point x="8" y="-372" type="curve"/>
      <point x="-13" y="-359" type="line"/>
      <point x="-37" y="-377"/>
      <point x="-46" y="-405"/>
      <point x="-46" y="-427" type="curve" smooth="yes"/>
      <point x="-46" y="-489"/>
      <point x="4" y="-514"/>
    </contour>
  </outline>
</glyph>
<glyph name="zeroknda" format="2">
  <advance width="688"/>
  <unicode hex="0CE6"/>
  <outline>
    <contour>
      <point x="62" y="343" type="curve" smooth="yes"/>
      <point x="62" y="156"/>
      <point x="154" y="-12"/>
      <point x="343" y="-12" type="curve" smooth="yes"/>
      <point x="521" y="-12"/>
      <point x="626" y="140"/>
      <point x="626" y="347" type="curve" smooth="yes"/>
      <point x="626" y="534"/>
      <point x="534" y="702"/>
      <point x="345" y="702" type="curve" smooth="yes"/>
      <point x="167" y="702"/>
      <point x="62" y="550"/>
    </contour>
    <contour>
      <point x="89" y="343" type="curve" smooth="yes"/>
      <point x="89" y="551"/>
      <point x="190" y="676"/>
      <point x="345" y="676" type="curve" smooth="yes"/>
      <point x="488" y="676"/>
      <point x="599" y="562"/>
      <point x="599" y="347" type="curve" smooth="yes"/>
      <point x="599" y="139"/>
      <point x="498" y="14"/>
      <point x="343" y="14" type="curve" smooth="yes"/>
      <point x="200" y="14"/>
      <point x="89" y="128"/>
    </contour>
  </outline>
</glyph>
<glyph name="oneknda" format="2">
  <advance width="688"/>
  <unicode hex="0CE7"/>
  <outline>
    <contour>
      <point x="344" y="702" type="curve" smooth="yes"/>
      <point x="159" y="702"/>
      <point x="62" y="544"/>
      <point x="62" y="359" type="curve" smooth="yes"/>
      <point x="62" y="209"/>
      <point x="125" y="85"/>
      <point x="198" y="-13" type="curve"/>
      <point x="220" y="2" type="line"/>
      <point x="140" y="103"/>
      <point x="89" y="228"/>
      <point x="89" y="359" type="curve" smooth="yes"/>
      <point x="89" y="531"/>
      <point x="173" y="676"/>
      <point x="345" y="676" type="curve" smooth="yes"/>
      <point x="520" y="676"/>
      <point x="599" y="527"/>
      <point x="599" y="360" type="curve" smooth="yes"/>
      <point x="599" y="226"/>
      <point x="547" y="103"/>
      <point x="468" y="2" type="curve"/>
      <point x="490" y="-13" type="line"/>
      <point x="569" y="93"/>
      <point x="626" y="215"/>
      <point x="626" y="361" type="curve" smooth="yes"/>
      <point x="626" y="534"/>
      <point x="539" y="702"/>
    </contour>
  </outline>
</glyph>
<glyph name="twoknda" format="2">
  <advance width="688"/>
  <unicode hex="0CE8"/>
  <outline>
    <contour>
      <point x="405" y="702" type="curve" smooth="yes"/>
      <point x="306" y="702"/>
      <point x="239" y="632"/>
      <point x="239" y="529" type="curve" smooth="yes"/>
      <point x="239" y="438"/>
      <point x="297" y="394"/>
      <point x="358" y="394" type="curve" smooth="yes"/>
      <point x="442" y="394"/>
      <point x="465" y="453"/>
      <point x="465" y="499" type="curve" smooth="yes"/>
      <point x="465" y="502"/>
      <point x="465" y="509"/>
      <point x="464" y="515" type="curve"/>
      <point x="438" y="513" type="line"/>
      <point x="438" y="443"/>
      <point x="412" y="420"/>
      <point x="359" y="420" type="curve" smooth="yes"/>
      <point x="316" y="420"/>
      <point x="266" y="446"/>
      <point x="266" y="531" type="curve" smooth="yes"/>
      <point x="266" y="620"/>
      <point x="321" y="676"/>
      <point x="405" y="676" type="curve" smooth="yes"/>
      <point x="537" y="676"/>
      <point x="597" y="540"/>
      <point x="597" y="361" type="curve" smooth="yes"/>
      <point x="597" y="242"/>
      <point x="571" y="150"/>
      <point x="503" y="93" type="curve" smooth="yes"/>
      <point x="451" y="50"/>
      <point x="378" y="26"/>
      <point x="246" y="26" type="curve" smooth="yes"/>
      <point x="29" y="26" type="line"/>
      <point x="29" y="0" type="line"/>
      <point x="254" y="0" type="line" smooth="yes"/>
      <point x="391" y="0"/>
      <point x="466" y="27"/>
      <point x="523" y="76" type="curve" smooth="yes"/>
      <point x="594" y="137"/>
      <point x="624" y="235"/>
      <point x="624" y="361" type="curve" smooth="yes"/>
      <point x="624" y="561"/>
      <point x="549" y="702"/>
    </contour>
  </outline>
</glyph>
<glyph name="threeknda" format="2">
  <advance width="688"/>
  <unicode hex="0CE9"/>
  <outline>
    <contour>
      <point x="235" y="319" type="curve" smooth="yes"/>
      <point x="151" y="319"/>
      <point x="91" y="267"/>
      <point x="91" y="182" type="curve" smooth="yes"/>
      <point x="91" y="93"/>
      <point x="150" y="40"/>
      <point x="232" y="40" type="curve" smooth="yes"/>
      <point x="301" y="40"/>
      <point x="373" y="81"/>
      <point x="418" y="176" type="curve"/>
      <point x="445" y="230"/>
      <point x="461" y="299"/>
      <point x="461" y="391" type="curve" smooth="yes"/>
      <point x="461" y="581"/>
      <point x="387" y="702"/>
      <point x="259" y="702" type="curve" smooth="yes"/>
      <point x="167" y="702"/>
      <point x="109" y="633"/>
      <point x="109" y="555" type="curve" smooth="yes"/>
      <point x="109" y="473"/>
      <point x="164" y="431"/>
      <point x="220" y="431" type="curve" smooth="yes"/>
      <point x="296" y="431"/>
      <point x="321" y="489"/>
      <point x="321" y="523" type="curve" smooth="yes"/>
      <point x="321" y="526"/>
      <point x="321" y="530"/>
      <point x="320" y="536" type="curve"/>
      <point x="294" y="534" type="line"/>
      <point x="294" y="499"/>
      <point x="283" y="458"/>
      <point x="220" y="458" type="curve" smooth="yes"/>
      <point x="178" y="458"/>
      <point x="136" y="485"/>
      <point x="136" y="554" type="curve" smooth="yes"/>
      <point x="136" y="632"/>
      <point x="193" y="676"/>
      <point x="259" y="676" type="curve" smooth="yes"/>
      <point x="366" y="676"/>
      <point x="434" y="576"/>
      <point x="434" y="390" type="curve" smooth="yes"/>
      <point x="434" y="194"/>
      <point x="350" y="66"/>
      <point x="233" y="66" type="curve" smooth="yes"/>
      <point x="160" y="66"/>
      <point x="118" y="108"/>
      <point x="118" y="182" type="curve" smooth="yes"/>
      <point x="118" y="254"/>
      <point x="165" y="293"/>
      <point x="234" y="293" type="curve" smooth="yes"/>
      <point x="308" y="293"/>
      <point x="353" y="239"/>
      <point x="396" y="177" type="curve"/>
      <point x="405" y="165" type="line"/>
      <point x="468" y="67"/>
      <point x="519" y="-12"/>
      <point x="609" y="-12" type="curve" smooth="yes"/>
      <point x="635" y="-12"/>
      <point x="662" y="-7"/>
      <point x="689" y="6" type="curve"/>
      <point x="681" y="30" type="line"/>
      <point x="662" y="21"/>
      <point x="640" y="14"/>
      <point x="609" y="14" type="curve" smooth="yes"/>
      <point x="536" y="14"/>
      <point x="496" y="69"/>
      <point x="419" y="188" type="curve"/>
      <point x="409" y="200" type="line"/>
      <point x="363" y="265"/>
      <point x="314" y="319"/>
    </contour>
  </outline>
</glyph>
<glyph name="fourknda" format="2">
  <advance width="688"/>
  <unicode hex="0CEA"/>
  <outline>
    <contour>
      <point x="356" y="-12" type="curve" smooth="yes"/>
      <point x="437" y="-12"/>
      <point x="497" y="21"/>
      <point x="497" y="100" type="curve" smooth="yes"/>
      <point x="497" y="165"/>
      <point x="453" y="201"/>
      <point x="383" y="218" type="curve"/>
      <point x="373" y="208" type="line"/>
      <point x="553" y="260"/>
      <point x="636" y="344"/>
      <point x="636" y="468" type="curve" smooth="yes"/>
      <point x="636" y="590"/>
      <point x="561" y="652"/>
      <point x="474" y="702" type="curve"/>
      <point x="459" y="680" type="line"/>
      <point x="557" y="625"/>
      <point x="609" y="568"/>
      <point x="609" y="468" type="curve" smooth="yes"/>
      <point x="609" y="363"/>
      <point x="534" y="278"/>
      <point x="363" y="228" type="curve"/>
      <point x="144" y="282"/>
      <point x="78" y="381"/>
      <point x="78" y="488" type="curve" smooth="yes"/>
      <point x="78" y="568"/>
      <point x="126" y="676"/>
      <point x="241" y="676" type="curve" smooth="yes"/>
      <point x="295" y="676"/>
      <point x="332" y="645"/>
      <point x="332" y="586" type="curve" smooth="yes"/>
      <point x="332" y="545"/>
      <point x="313" y="488"/>
      <point x="204" y="488" type="curve" smooth="yes"/>
      <point x="150" y="488"/>
      <point x="103" y="505"/>
      <point x="71" y="526" type="curve"/>
      <point x="67" y="500" type="line"/>
      <point x="94" y="482"/>
      <point x="149" y="462"/>
      <point x="205" y="462" type="curve" smooth="yes"/>
      <point x="315" y="462"/>
      <point x="359" y="522"/>
      <point x="359" y="583" type="curve" smooth="yes"/>
      <point x="359" y="668"/>
      <point x="299" y="702"/>
      <point x="241" y="702" type="curve" smooth="yes"/>
      <point x="129" y="702"/>
      <point x="52" y="606"/>
      <point x="52" y="488" type="curve" smooth="yes"/>
      <point x="52" y="338"/>
      <point x="160" y="255"/>
      <point x="343" y="211" type="curve"/>
      <point x="345" y="218" type="line"/>
      <point x="255" y="199"/>
      <point x="217" y="157"/>
      <point x="217" y="103" type="curve" smooth="yes"/>
      <point x="217" y="41"/>
      <point x="261" y="-12"/>
    </contour>
    <contour>
      <point x="357" y="14" type="curve" smooth="yes"/>
      <point x="279" y="14"/>
      <point x="244" y="50"/>
      <point x="244" y="103" type="curve" smooth="yes"/>
      <point x="244" y="161"/>
      <point x="301" y="188"/>
      <point x="361" y="204" type="curve"/>
      <point x="424" y="189"/>
      <point x="470" y="158"/>
      <point x="470" y="100" type="curve" smooth="yes"/>
      <point x="470" y="38"/>
      <point x="425" y="14"/>
    </contour>
  </outline>
</glyph>
<glyph name="fiveknda" format="2">
  <advance width="688"/>
  <unicode hex="0CEB"/>
  <outline>
    <contour>
      <point x="173" y="424" type="curve"/>
      <point x="176" y="450" type="line"/>
      <point x="99" y="461"/>
      <point x="65" y="495"/>
      <point x="65" y="565" type="curve" smooth="yes"/>
      <point x="65" y="634"/>
      <point x="109" y="676"/>
      <point x="175" y="676" type="curve" smooth="yes"/>
      <point x="291" y="676"/>
      <point x="325" y="489"/>
      <point x="325" y="269" type="curve" smooth="yes"/>
      <point x="325" y="76"/>
      <point x="255" y="14"/>
      <point x="174" y="14" type="curve" smooth="yes"/>
      <point x="124" y="14"/>
      <point x="68" y="46"/>
      <point x="68" y="136" type="curve" smooth="yes"/>
      <point x="68" y="230"/>
      <point x="128" y="299"/>
      <point x="339" y="347" type="curve"/>
      <point x="487" y="385" type="line"/>
      <point x="634" y="428"/>
      <point x="657" y="509"/>
      <point x="657" y="571" type="curve" smooth="yes"/>
      <point x="657" y="637"/>
      <point x="618" y="702"/>
      <point x="533" y="702" type="curve" smooth="yes"/>
      <point x="465" y="702"/>
      <point x="410" y="646"/>
      <point x="410" y="570" type="curve" smooth="yes"/>
      <point x="410" y="512"/>
      <point x="438" y="456"/>
      <point x="472" y="400" type="curve" smooth="yes"/>
      <point x="474" y="397"/>
      <point x="475" y="395"/>
      <point x="477" y="392" type="curve" smooth="yes"/>
      <point x="529" y="310"/>
      <point x="580" y="240"/>
      <point x="580" y="155" type="curve" smooth="yes"/>
      <point x="580" y="104"/>
      <point x="565" y="60"/>
      <point x="506" y="6" type="curve"/>
      <point x="526" y="-12" type="line"/>
      <point x="591" y="52"/>
      <point x="607" y="97"/>
      <point x="607" y="154" type="curve" smooth="yes"/>
      <point x="607" y="243"/>
      <point x="559" y="312"/>
      <point x="501" y="401" type="curve"/>
      <point x="463" y="458"/>
      <point x="437" y="515"/>
      <point x="437" y="569" type="curve" smooth="yes"/>
      <point x="437" y="636"/>
      <point x="481" y="676"/>
      <point x="533" y="676" type="curve" smooth="yes"/>
      <point x="596" y="676"/>
      <point x="630" y="632"/>
      <point x="630" y="571" type="curve" smooth="yes"/>
      <point x="630" y="507"/>
      <point x="602" y="444"/>
      <point x="478" y="408" type="curve"/>
      <point x="334" y="371" type="line"/>
      <point x="91" y="316"/>
      <point x="41" y="231"/>
      <point x="41" y="136" type="curve" smooth="yes"/>
      <point x="41" y="52"/>
      <point x="92" y="-12"/>
      <point x="174" y="-12" type="curve" smooth="yes"/>
      <point x="300" y="-12"/>
      <point x="351" y="109"/>
      <point x="351" y="271" type="curve" smooth="yes"/>
      <point x="351" y="483"/>
      <point x="319" y="702"/>
      <point x="175" y="702" type="curve" smooth="yes"/>
      <point x="97" y="702"/>
      <point x="38" y="648"/>
      <point x="38" y="565" type="curve" smooth="yes"/>
      <point x="38" y="472"/>
      <point x="94" y="437"/>
    </contour>
  </outline>
</glyph>
